<?xml version="1.0" encoding="UTF-8" standalone="no"?>
<!-- Created with Inkscape (http://www.inkscape.org/) -->

<svg
   xmlns:dc="http://purl.org/dc/elements/1.1/"
   xmlns:cc="http://creativecommons.org/ns#"
   xmlns:rdf="http://www.w3.org/1999/02/22-rdf-syntax-ns#"
   xmlns:svg="http://www.w3.org/2000/svg"
   xmlns="http://www.w3.org/2000/svg"
   xmlns:sodipodi="http://sodipodi.sourceforge.net/DTD/sodipodi-0.dtd"
   xmlns:inkscape="http://www.inkscape.org/namespaces/inkscape"
   width="61.043858mm"
   height="26.686375mm"
   viewBox="0 0 61.043859 26.686375"
   version="1.1"
   id="svg8"
   inkscape:version="0.92.3 (2405546, 2018-03-11)"
   sodipodi:docname="LogoFull.svg">
  <defs
     id="defs2" />
  <sodipodi:namedview
     id="base"
     pagecolor="#ffffff"
     bordercolor="#666666"
     borderopacity="1.0"
     inkscape:pageopacity="0.0"
     inkscape:pageshadow="2"
     inkscape:zoom="1.979899"
     inkscape:cx="134.05194"
     inkscape:cy="67.111365"
     inkscape:document-units="mm"
     inkscape:current-layer="layer1"
     showgrid="false"
     fit-margin-left="2"
     fit-margin-right="2"
     fit-margin-top="2"
     fit-margin-bottom="2"
     inkscape:showpageshadow="false"
     inkscape:window-width="1383"
     inkscape:window-height="845"
     inkscape:window-x="900"
     inkscape:window-y="27"
     inkscape:window-maximized="1" />
  <metadata
     id="metadata5">
    <rdf:RDF>
      <cc:Work
         rdf:about="">
        <dc:format>image/svg+xml</dc:format>
        <dc:type
           rdf:resource="http://purl.org/dc/dcmitype/StillImage" />
        <dc:title></dc:title>
      </cc:Work>
    </rdf:RDF>
  </metadata>
  <g
     inkscape:label="Camada 1"
     inkscape:groupmode="layer"
     id="layer1"
     transform="translate(-24.166576,-154.84551)">
    <g
       id="g1240"
       transform="translate(98.577973,162.52373)">
      <g
         id="g1247"
         transform="translate(0,0.96884138)">
        <g
           id="g1827">
          <g
             id="g1074-0-0-0"
             transform="matrix(1.9448609,0,0,1.9448609,-163.42896,-242.30121)">
            <path
               sodipodi:nodetypes="ccc"
               inkscape:connector-curvature="0"
               id="path851-06-0-5"
               d="m 56.291651,124.5 -4.330128,2.5 -4.330126,-2.5"
               style="fill:none;stroke:#000000;stroke-width:0.2570878;stroke-linecap:butt;stroke-linejoin:miter;stroke-miterlimit:4;stroke-dasharray:none;stroke-opacity:1" />
            <path
               sodipodi:nodetypes="cc"
               inkscape:connector-curvature="0"
               id="path847-9-2-5"
               d="m 51.961523,132 v -5"
               style="fill:none;stroke:#000000;stroke-width:0.2570878;stroke-linecap:butt;stroke-linejoin:miter;stroke-miterlimit:4;stroke-dasharray:none;stroke-opacity:1" />
            <path
               style="opacity:1;fill:none;fill-opacity:1;fill-rule:nonzero;stroke:#000000;stroke-width:0.51417559;stroke-linecap:butt;stroke-linejoin:round;stroke-miterlimit:4;stroke-dasharray:none;stroke-dashoffset:0;stroke-opacity:1;paint-order:fill markers stroke"
               inkscape:transform-center-y="-1.6e-06"
               d="m 51.961525,132 -4.330127,-2.5 v -5 l 4.330127,-2.5 4.330127,2.5 v 5 z"
               id="path819-1-8-0"
               inkscape:connector-curvature="0" />
            <path
               sodipodi:nodetypes="cc"
               inkscape:connector-curvature="0"
               id="path831-5-3-1"
               d="m 51.961523,122 v 5"
               style="fill:none;stroke:#bebebe;stroke-width:0.2570878;stroke-linecap:butt;stroke-linejoin:miter;stroke-miterlimit:4;stroke-dasharray:none;stroke-dashoffset:0;stroke-opacity:1" />
            <path
               sodipodi:nodetypes="ccc"
               inkscape:connector-curvature="0"
               id="path853-6-5-6"
               d="m 47.631397,129.5 4.330126,-2.5 4.330128,2.5"
               style="fill:none;stroke:#bebebe;stroke-width:0.2570878;stroke-linecap:butt;stroke-linejoin:miter;stroke-miterlimit:4;stroke-dasharray:none;stroke-dashoffset:0;stroke-opacity:1" />
            <path
               style="opacity:1;fill:#000000;fill-opacity:1;fill-rule:nonzero;stroke:none;stroke-width:0.33521515;stroke-linecap:butt;stroke-linejoin:round;stroke-miterlimit:4;stroke-dasharray:none;stroke-dashoffset:0;stroke-opacity:0.44067796;paint-order:fill markers stroke"
               d="M 57.124045,124.5 A 0.83239245,0.83239245 0 0 1 56.291653,125.33239 0.83239245,0.83239245 0 0 1 55.45926,124.5 0.83239245,0.83239245 0 0 1 56.291653,123.66761 0.83239245,0.83239245 0 0 1 57.124045,124.5 Z"
               id="path855-3-9-9-0"
               inkscape:connector-curvature="0" />
            <path
               style="opacity:1;fill:#000000;fill-opacity:1;fill-rule:nonzero;stroke:none;stroke-width:0.33521515;stroke-linecap:butt;stroke-linejoin:round;stroke-miterlimit:4;stroke-dasharray:none;stroke-dashoffset:0;stroke-opacity:0.44067796;paint-order:fill markers stroke"
               d="M 57.124045,129.5 A 0.83239245,0.83239245 0 0 1 56.291653,130.33239 0.83239245,0.83239245 0 0 1 55.45926,129.5 0.83239245,0.83239245 0 0 1 56.291653,128.66761 0.83239245,0.83239245 0 0 1 57.124045,129.5 Z"
               id="path855-6-1-0-2"
               inkscape:connector-curvature="0" />
            <path
               style="opacity:1;fill:#000000;fill-opacity:1;fill-rule:nonzero;stroke:none;stroke-width:0.33521515;stroke-linecap:butt;stroke-linejoin:round;stroke-miterlimit:4;stroke-dasharray:none;stroke-dashoffset:0;stroke-opacity:0.44067796;paint-order:fill markers stroke"
               d="M 52.793917,132 A 0.83239245,0.83239245 0 0 1 51.961525,132.83239 0.83239245,0.83239245 0 0 1 51.129133,132 0.83239245,0.83239245 0 0 1 51.961525,131.16761 0.83239245,0.83239245 0 0 1 52.793917,132 Z"
               id="path855-7-2-9-8"
               inkscape:connector-curvature="0" />
            <path
               style="opacity:1;fill:#000000;fill-opacity:1;fill-rule:nonzero;stroke:none;stroke-width:0.33521515;stroke-linecap:butt;stroke-linejoin:round;stroke-miterlimit:4;stroke-dasharray:none;stroke-dashoffset:0;stroke-opacity:0.44067796;paint-order:fill markers stroke"
               d="M 48.463794,129.5 A 0.83239245,0.83239245 0 0 1 47.631401,130.33239 0.83239245,0.83239245 0 0 1 46.799009,129.5 0.83239245,0.83239245 0 0 1 47.631401,128.66761 0.83239245,0.83239245 0 0 1 48.463794,129.5 Z"
               id="path855-5-0-6-8"
               inkscape:connector-curvature="0" />
            <path
               style="opacity:1;fill:#000000;fill-opacity:1;fill-rule:nonzero;stroke:none;stroke-width:0.33521515;stroke-linecap:butt;stroke-linejoin:round;stroke-miterlimit:4;stroke-dasharray:none;stroke-dashoffset:0;stroke-opacity:0.44067796;paint-order:fill markers stroke"
               d="M 48.463794,124.5 A 0.83239245,0.83239245 0 0 1 47.631401,125.33239 0.83239245,0.83239245 0 0 1 46.799009,124.5 0.83239245,0.83239245 0 0 1 47.631401,123.66761 0.83239245,0.83239245 0 0 1 48.463794,124.5 Z"
               id="path855-35-73-4-4"
               inkscape:connector-curvature="0" />
            <path
               style="opacity:1;fill:#000000;fill-opacity:1;fill-rule:nonzero;stroke:none;stroke-width:0.33521515;stroke-linecap:butt;stroke-linejoin:round;stroke-miterlimit:4;stroke-dasharray:none;stroke-dashoffset:0;stroke-opacity:0.44067796;paint-order:fill markers stroke"
               d="M 52.793917,122 A 0.83239245,0.83239245 0 0 1 51.961525,122.83239 0.83239245,0.83239245 0 0 1 51.129133,122 0.83239245,0.83239245 0 0 1 51.961525,121.16761 0.83239245,0.83239245 0 0 1 52.793917,122 Z"
               id="path855-62-0-2-9"
               inkscape:connector-curvature="0" />
            <path
               style="opacity:1;fill:#bebebe;fill-opacity:1;fill-rule:nonzero;stroke:none;stroke-width:0.26499999;stroke-linecap:butt;stroke-linejoin:round;stroke-miterlimit:4;stroke-dasharray:none;stroke-dashoffset:0;stroke-opacity:0.39215686;paint-order:fill markers stroke"
               d="M 52.793917,127 A 0.83239245,0.83239245 0 0 1 51.961525,127.83239 0.83239245,0.83239245 0 0 1 51.129133,127 0.83239245,0.83239245 0 0 1 51.961525,126.16761 0.83239245,0.83239245 0 0 1 52.793917,127 Z"
               id="path855-77-7-8"
               inkscape:connector-curvature="0" />
          </g>
          <g
             id="g1757">
            <g
               aria-label="LabTMC"
               style="font-style:normal;font-variant:normal;font-weight:normal;font-stretch:normal;font-size:9.82725525px;line-height:1.25;font-family:'Latin Modern Roman';-inkscape-font-specification:'Latin Modern Roman, ';letter-spacing:0px;word-spacing:0px;fill:#000000;fill-opacity:1;stroke:none;stroke-width:0.18426102"
               id="text1305-3-4">
              <path
                 d="m -49.566195,2.9354172 q 0.02399,-0.8637236 0.03839,-1.693858 0.01919,-0.83013434 0.01919,-1.65547023 0,-0.91650667 -0.0144,-1.73704417 -0.0144,-0.8205374 -0.04798,-1.6266794 0.110364,0.019194 0.220729,0.028791 0.110365,0.0096 0.244722,0.0096 0.12476,0 0.235124,-0.0096 0.115164,-0.0096 0.215931,-0.028791 -0.03839,0.9596929 -0.06238,1.8426103 -0.01919,0.8829175 -0.01919,1.64587335 0,0.79174664 0.0096,1.46353165 0.0144,0.671785 0.04319,1.3003839 0.105566,0.0048 0.235124,0.0096 0.134357,0 0.431862,0 0.642994,0 1.142035,-0.033589 0.49904,-0.038388 0.863723,-0.1151632 0,0.043186 -0.0048,0.1439539 -0.0048,0.095969 -0.0048,0.1535509 0,0.043186 0.0048,0.1439539 0.0048,0.1007678 0,0.1583494 -0.868522,-0.014395 -1.434741,-0.019194 -0.566219,-0.0096 -0.839731,-0.0096 -0.350288,0 -0.671785,0.0096 -0.316699,0.0048 -0.604607,0.019194 z"
                 style="font-style:normal;font-variant:normal;font-weight:normal;font-stretch:normal;font-family:'ZapfHumnst BT';-inkscape-font-specification:'ZapfHumnst BT';stroke-width:0.18426102"
                 id="path18158"
                 inkscape:connector-curvature="0" />
              <path
                 d="m -42.440475,0.49779722 q -1.285989,0.2159309 -1.655471,0.46065259 -0.369481,0.23992319 -0.369481,0.72936659 0,0.4462572 0.225528,0.6909789 0.230326,0.2399232 0.647792,0.2399232 0.244722,0 0.513436,-0.1151631 0.273512,-0.1199616 0.470249,-0.3166987 0.08637,-0.086372 0.124761,-0.1727447 0.04319,-0.091171 0.04319,-0.2495202 v -0.047985 z m -0.0144,1.86660268 q -0.3119,0.3262956 -0.681382,0.4942418 -0.364683,0.1631478 -0.782149,0.1631478 -0.647793,0 -1.002879,-0.3119002 -0.350288,-0.3166986 -0.350288,-0.8925143 0,-0.5230327 0.278311,-0.83493287 0.283109,-0.31669865 0.858925,-0.44625719 0.244721,-0.0527831 0.666986,-0.12955854 0.868522,-0.15834933 1.046066,-0.32149712 V -0.1212047 q 0,-0.67658349 -0.263916,-0.9788867 -0.259117,-0.3071018 -0.830134,-0.3071018 -0.403071,0 -0.71977,0.1775432 -0.316699,0.1727447 -0.547025,0.51823417 h -0.07678 L -44.83972,-1.22965 q 0.321498,-0.268714 0.724569,-0.4078695 0.403071,-0.1439539 0.858925,-0.1439539 0.81094,0 1.180422,0.3934741 0.369482,0.3886756 0.369482,1.25719767 v 0.11996162 l -0.03839,1.67946261 V 1.942135 q 0,0.3982726 0.09117,0.5230327 0.09117,0.12476 0.340691,0.12476 0.06718,0 0.100768,0 0.03839,-0.0048 0.06718,-0.0048 l 0.03839,0.1919385 -0.02879,0.0096 q -0.49904,0.1487524 -0.777351,0.1487524 -0.239923,0 -0.369482,-0.1295586 -0.12476,-0.134357 -0.172745,-0.4414587 z"
                 style="font-style:normal;font-variant:normal;font-weight:normal;font-stretch:normal;font-family:'ZapfHumnst BT';-inkscape-font-specification:'ZapfHumnst BT';stroke-width:0.18426102"
                 id="path18160"
                 inkscape:connector-curvature="0" />
              <path
                 d="m -38.054679,-1.3975962 q -0.700575,0 -1.070057,0.57101723 -0.364683,0.57101727 -0.364683,1.6602687 0,0.90690977 0.340691,1.37715927 0.345489,0.4702496 1.002879,0.4702496 0.705374,0 1.084453,-0.5710173 0.383877,-0.5758158 0.383877,-1.63147794 0,-0.92610364 -0.350288,-1.40115162 -0.350288,-0.47504794 -1.026872,-0.47504794 z m -2.130518,4.3330134 q 0.0144,-0.3886756 0.01919,-0.878119 0.0096,-0.4942419 0.0096,-1.57869484 V -0.96573444 -2.314103 q 0,-0.9692898 -0.0096,-1.3867562 -0.0048,-0.4222649 -0.02399,-0.7341651 0.09597,0.019194 0.196737,0.028791 0.105566,0.0096 0.230326,0.0096 0.115163,0 0.215931,-0.0096 0.100768,-0.0096 0.196737,-0.028791 -0.03839,0.7245682 -0.05758,1.362764 -0.0144,0.6333973 -0.0144,1.2332053 0,0.1487524 0.0048,0.4654511 0.0048,0.3119002 0.0048,0.47504796 0.307102,-0.46065256 0.68618,-0.67658346 0.383878,-0.2159309 0.887716,-0.2159309 0.916507,0 1.449137,0.599808 0.537428,0.59980808 0.537428,1.63147795 0,1.16122845 -0.599808,1.87140115 -0.599808,0.7101727 -1.573897,0.7101727 -0.393474,0 -0.753359,-0.1487524 -0.355086,-0.1487524 -0.700576,-0.4606526 -0.12476,0.095969 -0.259117,0.2303263 -0.129558,0.1295586 -0.263915,0.2927064 z"
                 style="font-style:normal;font-variant:normal;font-weight:normal;font-stretch:normal;font-family:'ZapfHumnst BT';-inkscape-font-specification:'ZapfHumnst BT';stroke-width:0.18426102"
                 id="path18162"
                 inkscape:connector-curvature="0" />
              <path
                 d="m -33.289804,2.9354172 q 0.02879,-1.2140115 0.04319,-2.36564301 0.0144,-1.15642994 0.0144,-2.24568139 V -3.316982 h -0.263916 q -0.585412,0 -1.041267,0.033589 -0.451055,0.028791 -0.767754,0.086372 0.0096,-0.095969 0.0144,-0.1583494 0.0048,-0.06238 0.0048,-0.1151631 0,-0.057582 -0.0048,-0.1247601 -0.0048,-0.071977 -0.0144,-0.1823416 0.56142,0.014395 1.142035,0.023992 0.585412,0.0048 1.204414,0.0048 0.628599,0 1.276392,-0.0048 0.652591,-0.0096 1.338771,-0.019194 -0.0096,0.043186 -0.0144,0.1007678 -0.0048,0.057582 -0.0048,0.1823416 0,0.1199617 0.0048,0.1823417 0.0048,0.057582 0.0144,0.1103647 -0.335892,-0.06238 -0.758157,-0.091171 -0.422265,-0.028791 -0.978887,-0.028791 l -0.287908,0.0048 q -0.02399,0.4174664 -0.03839,0.9452975 -0.0096,0.5230327 -0.0096,1.2523993 0,0.93570053 0.0144,1.952975 0.0144,1.0172745 0.04319,2.096929 -0.110364,-0.014395 -0.220729,-0.019194 -0.110365,-0.0096 -0.230326,-0.0096 -0.110365,0 -0.230327,0.0096 -0.119961,0.0048 -0.24952,0.019194 z"
                 style="font-style:normal;font-variant:normal;font-weight:normal;font-stretch:normal;font-family:'ZapfHumnst BT';-inkscape-font-specification:'ZapfHumnst BT';stroke-width:0.18426102"
                 id="path18164"
                 inkscape:connector-curvature="0" />
              <path
                 d="m -29.801319,2.9354172 q 0.182341,-0.8109405 0.412668,-2.35124762 0.230326,-1.54510556 0.599808,-4.48656428 h 0.163148 q 0.87332,1.7466411 1.525911,3.00863722 0.652591,1.26199616 1.238004,2.32725528 0.642994,-1.13723609 1.353167,-2.43762 0.710173,-1.3051823 1.554703,-2.8982725 h 0.129558 q 0.134357,1.2955854 0.3119,2.8838771 0.182342,1.58829179 0.460653,3.9539348 -0.119962,-0.023992 -0.230326,-0.033589 -0.105567,-0.014395 -0.211133,-0.014395 -0.100768,0 -0.211132,0.014395 -0.105566,0.0096 -0.225528,0.033589 -0.12476,-1.7274472 -0.263916,-3.03262957 -0.134357,-1.30518233 -0.24952,-1.87140113 -0.911708,1.53071015 -1.583493,2.83589249 -0.666987,1.30038391 -0.935701,2.05854121 h -0.134357 Q -26.207269,2.5419431 -26.4232,2.0716936 -26.634333,1.6014441 -27.032605,0.87207745 l -1.53071,-2.83109405 q -0.225528,1.58349329 -0.350288,2.85028791 -0.12476,1.26679459 -0.134357,2.04414589 -0.09597,-0.023992 -0.18714,-0.033589 -0.08637,-0.014395 -0.172745,-0.014395 -0.08637,0 -0.182342,0.014395 -0.09597,0.0096 -0.211132,0.033589 z"
                 style="font-style:normal;font-variant:normal;font-weight:normal;font-stretch:normal;font-family:'ZapfHumnst BT';-inkscape-font-specification:'ZapfHumnst BT';stroke-width:0.18426102"
                 id="path18166"
                 inkscape:connector-curvature="0" />
              <path
                 d="m -15.497097,2.5131523 q -0.369482,0.2735125 -0.926103,0.4126679 -0.551824,0.1391555 -1.271594,0.1391555 -1.636276,0 -2.533589,-0.9117082 -0.897313,-0.9117083 -0.897313,-2.56717853 0,-1.59309017 0.988484,-2.53838767 0.993282,-0.950096 2.658349,-0.950096 0.580615,0 1.113244,0.1199616 0.53263,0.1151632 0.998081,0.3502879 -0.07678,0.2543186 -0.119962,0.4894434 -0.03839,0.2303263 -0.03839,0.4558541 -0.350287,-0.5470249 -0.830134,-0.8013436 -0.479846,-0.2543186 -1.151631,-0.2543186 -1.238004,0 -1.924185,0.8253359 -0.681382,0.8205374 -0.681382,2.3128599 0,1.4395393 0.676584,2.2696737 0.681382,0.8253359 1.857006,0.8253359 0.551823,0 1.098848,-0.2111325 0.547025,-0.2111324 1.046065,-0.6142034 z"
                 style="font-style:normal;font-variant:normal;font-weight:normal;font-stretch:normal;font-family:'ZapfHumnst BT';-inkscape-font-specification:'ZapfHumnst BT';stroke-width:0.18426102"
                 id="path18168"
                 inkscape:connector-curvature="0" />
            </g>
            <path
               inkscape:connector-curvature="0"
               id="path1582"
               style="font-style:normal;font-variant:normal;font-weight:normal;font-stretch:normal;font-size:medium;line-height:1.25;font-family:'ZapfHumnst BT';-inkscape-font-specification:'ZapfHumnst BT';text-align:start;letter-spacing:0px;word-spacing:0px;text-anchor:start;fill:#000000;fill-opacity:1;stroke:none;stroke-width:0.06257838"
               d="m -49.750819,9.4570894 q 0.0081,-0.2933362 0.01304,-0.5752648 0.0065,-0.2819287 0.0065,-0.5622277 0,-0.3112623 -0.0049,-0.5899317 -0.0049,-0.2786694 -0.0163,-0.5524498 0.03748,0.00652 0.07496,0.00978 0.03748,0.00326 0.08311,0.00326 0.04237,0 0.07985,-0.00326 0.03911,-0.00326 0.07333,-0.00978 -0.01304,0.3259291 -0.02119,0.6257839 -0.0065,0.2998547 -0.0065,0.5589684 0,0.2688915 0.0033,0.4970418 0.0049,0.2281504 0.01467,0.441634 0.03585,0.00163 0.07985,0.00326 0.04563,0 0.146669,0 0.218372,0 0.387855,-0.011408 0.169483,-0.013037 0.293336,-0.039111 0,0.014667 -0.0016,0.048889 -0.0016,0.032593 -0.0016,0.052149 0,0.014667 0.0016,0.048889 0.0016,0.034223 0,0.053778 -0.294966,-0.00489 -0.487264,-0.00652 -0.192298,-0.00326 -0.285188,-0.00326 -0.118964,0 -0.228151,0.00326 -0.107556,0.00163 -0.205335,0.00652 z" />
            <path
               inkscape:connector-curvature="0"
               id="path1584"
               style="font-style:normal;font-variant:normal;font-weight:normal;font-stretch:normal;font-size:medium;line-height:1.25;font-family:'ZapfHumnst BT';-inkscape-font-specification:'ZapfHumnst BT';text-align:start;letter-spacing:0px;word-spacing:0px;text-anchor:start;fill:#000000;fill-opacity:1;stroke:none;stroke-width:0.06257838"
               d="m -47.330795,8.6292295 q -0.436745,0.073334 -0.562228,0.156446 -0.125483,0.081482 -0.125483,0.2477061 0,0.151557 0.07659,0.2346689 0.07822,0.081482 0.220002,0.081482 0.08311,0 0.174372,-0.039112 0.09289,-0.040741 0.159705,-0.1075566 0.02933,-0.029334 0.04237,-0.058667 0.01467,-0.030963 0.01467,-0.084742 v -0.016296 z m -0.0049,0.6339321 q -0.105927,0.1108159 -0.23141,0.1678535 -0.123853,0.055408 -0.265632,0.055408 -0.220002,0 -0.340596,-0.1059269 -0.118964,-0.1075566 -0.118964,-0.3031141 0,-0.1776313 0.09452,-0.2835583 0.09615,-0.1075566 0.291707,-0.151557 0.08311,-0.017926 0.226521,-0.044 0.294965,-0.053778 0.355262,-0.1091863 v -0.070075 q 0,-0.2297801 -0.08963,-0.3324477 -0.088,-0.1042973 -0.281929,-0.1042973 -0.13689,0 -0.244447,0.060297 -0.107556,0.058667 -0.185779,0.1760017 h -0.02608 l 0.0065,-0.1760017 q 0.109186,-0.09126 0.246076,-0.1385199 0.136891,-0.048889 0.291707,-0.048889 0.27541,0 0.400893,0.133631 0.125482,0.1320012 0.125482,0.4269671 v 0.040741 l -0.01304,0.5703759 v 0.09289 q 0,0.1352606 0.03096,0.1776314 0.03096,0.042371 0.115704,0.042371 0.02282,0 0.03422,0 0.01304,-0.00163 0.02282,-0.00163 l 0.01304,0.065186 -0.0098,0.00326 q -0.169483,0.050519 -0.264002,0.050519 -0.08148,0 -0.125483,-0.044 -0.04237,-0.04563 -0.05867,-0.1499274 z" />
            <path
               inkscape:connector-curvature="0"
               id="path1586"
               style="font-style:normal;font-variant:normal;font-weight:normal;font-stretch:normal;font-size:medium;line-height:1.25;font-family:'ZapfHumnst BT';-inkscape-font-specification:'ZapfHumnst BT';text-align:start;letter-spacing:0px;word-spacing:0px;text-anchor:start;fill:#000000;fill-opacity:1;stroke:none;stroke-width:0.06257838"
               d="m -45.841299,7.9855196 q -0.237928,0 -0.363411,0.1939278 -0.123853,0.1939278 -0.123853,0.5638573 0,0.308003 0.115705,0.4677083 0.117334,0.1597052 0.340596,0.1597052 0.239557,0 0.368299,-0.1939278 0.130372,-0.1955575 0.130372,-0.5540795 0,-0.3145215 -0.118964,-0.4758564 -0.118964,-0.1613349 -0.348744,-0.1613349 z m -0.723563,1.4715698 q 0.0049,-0.1320013 0.0065,-0.2982251 0.0033,-0.1678535 0.0033,-0.5361534 V 8.1321877 7.6742573 q 0,-0.3291884 -0.0033,-0.4709676 -0.0016,-0.1434088 -0.0081,-0.2493357 0.03259,0.00652 0.06681,0.00978 0.03585,0.00326 0.07822,0.00326 0.03911,0 0.07333,-0.00326 0.03422,-0.00326 0.06681,-0.00978 -0.01304,0.2460764 -0.01956,0.4628193 -0.0049,0.2151132 -0.0049,0.4188189 0,0.050519 0.0016,0.1580756 0.0016,0.1059269 0.0016,0.1613349 0.104297,-0.156446 0.233039,-0.22978 0.130372,-0.073334 0.301485,-0.073334 0.311262,0 0.492153,0.2037057 0.18252,0.2037057 0.18252,0.5540795 0,0.3943742 -0.203706,0.6355617 -0.203705,0.2411875 -0.534523,0.2411875 -0.133631,0 -0.255855,-0.050519 -0.120593,-0.050519 -0.237928,-0.1564459 -0.04237,0.032593 -0.088,0.078223 -0.044,0.044 -0.08963,0.099408 z" />
            <path
               inkscape:connector-curvature="0"
               id="path1588"
               style="font-style:normal;font-variant:normal;font-weight:normal;font-stretch:normal;font-size:medium;line-height:1.25;font-family:'ZapfHumnst BT';-inkscape-font-specification:'ZapfHumnst BT';text-align:start;letter-spacing:0px;word-spacing:0px;text-anchor:start;fill:#000000;fill-opacity:1;stroke:none;stroke-width:0.06257838"
               d="m -44.063356,9.3870147 q 0.247706,0 0.376448,-0.1776314 0.130372,-0.179261 0.130372,-0.5198569 0,-0.3601516 -0.130372,-0.5491905 -0.130372,-0.1890389 -0.379708,-0.1890389 -0.247706,0 -0.376448,0.1825203 -0.127112,0.1825203 -0.127112,0.5328941 0,0.353633 0.128742,0.537783 0.128742,0.1825203 0.378078,0.1825203 z m 0,0.099408 q -0.348744,0 -0.570376,-0.2265207 -0.220002,-0.2281503 -0.220002,-0.5899316 0,-0.358522 0.223261,-0.5883021 0.223262,-0.22978 0.567117,-0.22978 0.350374,0 0.570376,0.2281504 0.220002,0.2265207 0.220002,0.5899317 0,0.3634109 -0.221632,0.5899316 -0.220002,0.2265207 -0.568746,0.2265207 z" />
            <path
               inkscape:connector-curvature="0"
               id="path1590"
               style="font-style:normal;font-variant:normal;font-weight:normal;font-stretch:normal;font-size:medium;line-height:1.25;font-family:'ZapfHumnst BT';-inkscape-font-specification:'ZapfHumnst BT';text-align:start;letter-spacing:0px;word-spacing:0px;text-anchor:start;fill:#000000;fill-opacity:1;stroke:none;stroke-width:0.06257838"
               d="m -42.901419,9.4538301 q 0.0065,-0.1629645 0.0098,-0.4237078 0.0033,-0.2623729 0.0033,-0.6648953 0,-0.2134836 -0.0033,-0.3096327 -0.0033,-0.097779 -0.0098,-0.174372 0.03259,0.00815 0.06681,0.011407 0.03585,0.00326 0.07659,0.00326 0.03911,0 0.07333,-0.00326 0.03422,-0.00489 0.06682,-0.011407 -0.0098,0.079853 -0.0163,0.1727424 -0.0049,0.09126 -0.0049,0.1955574 0.09289,-0.1955574 0.195557,-0.2900769 0.102668,-0.094519 0.221632,-0.094519 0.01956,0 0.04889,0.00489 0.03096,0.00326 0.07822,0.013037 -0.0081,0.044 -0.01304,0.1042973 -0.0033,0.060297 -0.0033,0.1482977 l -0.02607,0.016297 q -0.04237,-0.021185 -0.08148,-0.030963 -0.03911,-0.011407 -0.07985,-0.011407 -0.18252,0 -0.267262,0.1597053 -0.08311,0.1597052 -0.08311,0.5133383 0,0.206965 0.0033,0.3797074 0.0049,0.1727424 0.01304,0.2949658 -0.03096,-0.00652 -0.06682,-0.00978 -0.03585,-0.00326 -0.07659,-0.00326 -0.03259,0 -0.06356,0.00326 -0.02933,0.00163 -0.06193,0.00652 z" />
            <path
               inkscape:connector-curvature="0"
               id="path1592"
               style="font-style:normal;font-variant:normal;font-weight:normal;font-stretch:normal;font-size:medium;line-height:1.25;font-family:'ZapfHumnst BT';-inkscape-font-specification:'ZapfHumnst BT';text-align:start;letter-spacing:0px;word-spacing:0px;text-anchor:start;fill:#000000;fill-opacity:1;stroke:none;stroke-width:0.06257838"
               d="m -40.975178,8.6292295 q -0.436745,0.073334 -0.562228,0.156446 -0.125482,0.081482 -0.125482,0.2477061 0,0.151557 0.07659,0.2346689 0.07822,0.081482 0.220002,0.081482 0.08311,0 0.174372,-0.039112 0.09289,-0.040741 0.159705,-0.1075566 0.02933,-0.029334 0.04237,-0.058667 0.01467,-0.030963 0.01467,-0.084742 v -0.016296 z m -0.0049,0.6339321 q -0.105927,0.1108159 -0.23141,0.1678535 -0.123853,0.055408 -0.265632,0.055408 -0.220002,0 -0.340596,-0.1059269 -0.118964,-0.1075566 -0.118964,-0.3031141 0,-0.1776313 0.09452,-0.2835583 0.09615,-0.1075566 0.291706,-0.151557 0.08311,-0.017926 0.226521,-0.044 0.294966,-0.053778 0.355263,-0.1091863 v -0.070075 q 0,-0.2297801 -0.08963,-0.3324477 -0.088,-0.1042973 -0.281929,-0.1042973 -0.13689,0 -0.244446,0.060297 -0.107557,0.058667 -0.18578,0.1760017 h -0.02607 l 0.0065,-0.1760017 q 0.109187,-0.09126 0.246077,-0.1385199 0.13689,-0.048889 0.291706,-0.048889 0.27541,0 0.400893,0.133631 0.125483,0.1320012 0.125483,0.4269671 v 0.040741 l -0.01304,0.5703759 v 0.09289 q 0,0.1352606 0.03096,0.1776314 0.03096,0.042371 0.115705,0.042371 0.02282,0 0.03422,0 0.01304,-0.00163 0.02282,-0.00163 l 0.01304,0.065186 -0.0098,0.00326 q -0.169483,0.050519 -0.264003,0.050519 -0.08148,0 -0.125483,-0.044 -0.04237,-0.04563 -0.05867,-0.1499274 z" />
            <path
               inkscape:connector-curvature="0"
               id="path1594"
               style="font-style:normal;font-variant:normal;font-weight:normal;font-stretch:normal;font-size:medium;line-height:1.25;font-family:'ZapfHumnst BT';-inkscape-font-specification:'ZapfHumnst BT';text-align:start;letter-spacing:0px;word-spacing:0px;text-anchor:start;fill:#000000;fill-opacity:1;stroke:none;stroke-width:0.06257838"
               d="m -40.409691,8.0213718 q 0.0033,-0.035852 0.0049,-0.053778 0.0016,-0.019556 0.0016,-0.032593 0,-0.00978 -0.0016,-0.027704 -0.0016,-0.017926 -0.0016,-0.024445 0.05052,0.00326 0.104297,0.00652 0.05378,0.00163 0.109186,0.00163 V 7.7818139 q 0,-0.055408 -0.0016,-0.1173345 -0.0016,-0.061927 -0.0049,-0.1629645 0.07822,-0.013037 0.145038,-0.034223 0.06681,-0.021185 0.120594,-0.048889 -0.0049,0.1091863 -0.0081,0.1743721 -0.0016,0.065186 -0.0016,0.088001 v 0.2216317 q 0.09289,0 0.200446,-0.00489 0.107557,-0.00489 0.23304,-0.016296 -0.0033,0.024445 -0.0065,0.053778 -0.0033,0.027704 -0.0033,0.057037 v 0.026074 q -0.09126,-0.00489 -0.167854,-0.00652 -0.07496,-0.00326 -0.13852,-0.00326 -0.05215,0 -0.07659,0.00163 -0.02282,0 -0.04237,0.00163 -0.0033,0.04726 -0.0049,0.089631 0,0.040741 0,0.078223 0,0.094519 -0.0081,0.353633 -0.0081,0.257484 -0.0081,0.4204486 0,0.22978 0.06356,0.3259291 0.06519,0.094519 0.216743,0.094519 0.044,0 0.101038,-0.017926 0.05867,-0.017926 0.132001,-0.052149 l 0.02445,0.073334 q -0.08311,0.055408 -0.177631,0.083112 -0.09289,0.029334 -0.18741,0.029334 -0.223261,0 -0.324299,-0.1059269 -0.09941,-0.105927 -0.09941,-0.3503738 0,-0.050519 0.0081,-0.3520034 0.0098,-0.3031141 0.0098,-0.5557091 V 8.0115939 h -0.03748 q -0.04074,0 -0.08474,0.00326 -0.04237,0.00163 -0.088,0.00652 z" />
            <path
               inkscape:connector-curvature="0"
               id="path1596"
               style="font-style:normal;font-variant:normal;font-weight:normal;font-stretch:normal;font-size:medium;line-height:1.25;font-family:'ZapfHumnst BT';-inkscape-font-specification:'ZapfHumnst BT';text-align:start;letter-spacing:0px;word-spacing:0px;text-anchor:start;fill:#000000;fill-opacity:1;stroke:none;stroke-width:0.06257838"
               d="m -38.57471,9.3870147 q 0.247706,0 0.376448,-0.1776314 0.130372,-0.179261 0.130372,-0.5198569 0,-0.3601516 -0.130372,-0.5491905 -0.130371,-0.1890389 -0.379707,-0.1890389 -0.247706,0 -0.376448,0.1825203 -0.127112,0.1825203 -0.127112,0.5328941 0,0.353633 0.128742,0.537783 0.128742,0.1825203 0.378077,0.1825203 z m 0,0.099408 q -0.348744,0 -0.570376,-0.2265207 -0.220002,-0.2281503 -0.220002,-0.5899316 0,-0.358522 0.223262,-0.5883021 0.223261,-0.22978 0.567116,-0.22978 0.350374,0 0.570376,0.2281504 0.220002,0.2265207 0.220002,0.5899317 0,0.3634109 -0.221631,0.5899316 -0.220003,0.2265207 -0.568747,0.2265207 z m -0.286817,-1.8186843 0.470967,-0.487264 q 0.05704,-0.057038 0.08963,-0.076593 0.03422,-0.019556 0.06681,-0.019556 0.05378,0 0.08637,0.032593 0.03422,0.032593 0.03422,0.084742 0,0.034223 -0.02607,0.066816 -0.02445,0.032593 -0.07496,0.065186 l -0.537783,0.3340773 z" />
            <path
               inkscape:connector-curvature="0"
               id="path1598"
               style="font-style:normal;font-variant:normal;font-weight:normal;font-stretch:normal;font-size:medium;line-height:1.25;font-family:'ZapfHumnst BT';-inkscape-font-specification:'ZapfHumnst BT';text-align:start;letter-spacing:0px;word-spacing:0px;text-anchor:start;fill:#000000;fill-opacity:1;stroke:none;stroke-width:0.06257838"
               d="m -37.412772,9.4538301 q 0.0065,-0.1629645 0.0098,-0.4237078 0.0033,-0.2623729 0.0033,-0.6648953 0,-0.2134836 -0.0033,-0.3096327 -0.0033,-0.097779 -0.0098,-0.174372 0.03259,0.00815 0.06681,0.011407 0.03585,0.00326 0.07659,0.00326 0.03911,0 0.07333,-0.00326 0.03422,-0.00489 0.06682,-0.011407 -0.0098,0.079853 -0.0163,0.1727424 -0.0049,0.09126 -0.0049,0.1955574 0.09289,-0.1955574 0.195558,-0.2900769 0.102668,-0.094519 0.221632,-0.094519 0.01955,0 0.04889,0.00489 0.03096,0.00326 0.07822,0.013037 -0.0081,0.044 -0.01304,0.1042973 -0.0033,0.060297 -0.0033,0.1482977 l -0.02607,0.016297 q -0.04237,-0.021185 -0.08148,-0.030963 -0.03911,-0.011407 -0.07985,-0.011407 -0.18252,0 -0.267262,0.1597053 -0.08311,0.1597052 -0.08311,0.5133383 0,0.206965 0.0033,0.3797074 0.0049,0.1727424 0.01304,0.2949658 -0.03096,-0.00652 -0.06681,-0.00978 -0.03585,-0.00326 -0.07659,-0.00326 -0.03259,0 -0.06356,0.00326 -0.02933,0.00163 -0.06193,0.00652 z" />
            <path
               inkscape:connector-curvature="0"
               id="path1600"
               style="font-style:normal;font-variant:normal;font-weight:normal;font-stretch:normal;font-size:medium;line-height:1.25;font-family:'ZapfHumnst BT';-inkscape-font-specification:'ZapfHumnst BT';text-align:start;letter-spacing:0px;word-spacing:0px;text-anchor:start;fill:#000000;fill-opacity:1;stroke:none;stroke-width:0.06257838"
               d="m -36.288317,9.4570894 q 0.0081,-0.22978 0.01141,-0.4334857 0.0049,-0.2053353 0.0049,-0.3943742 0,-0.1727424 -0.0049,-0.3568923 -0.0033,-0.1857796 -0.01141,-0.3894853 0.03259,0.00652 0.06518,0.00978 0.03259,0.00326 0.07171,0.00326 0.03911,0 0.07333,-0.00326 0.03422,-0.00489 0.06356,-0.00978 -0.0081,0.2085946 -0.01304,0.3927446 -0.0033,0.1825203 -0.0033,0.353633 0,0.1890389 0.0033,0.3943742 0.0049,0.2037057 0.01304,0.4318561 -0.03585,-0.00652 -0.07008,-0.00978 -0.03422,-0.00489 -0.06681,-0.00489 -0.03096,0 -0.06356,0.00489 -0.03259,0.00326 -0.07333,0.011407 z m -0.03259,-2.1560209 q 0,-0.070075 0.04889,-0.1173345 0.05052,-0.048889 0.120594,-0.048889 0.07007,0 0.118964,0.048889 0.05052,0.04726 0.05052,0.1173345 0,0.070075 -0.05052,0.1205937 -0.04889,0.048889 -0.118964,0.048889 -0.07008,0 -0.120594,-0.048889 -0.04889,-0.050519 -0.04889,-0.1205937 z" />
            <path
               inkscape:connector-curvature="0"
               id="path1602"
               style="font-style:normal;font-variant:normal;font-weight:normal;font-stretch:normal;font-size:medium;line-height:1.25;font-family:'ZapfHumnst BT';-inkscape-font-specification:'ZapfHumnst BT';text-align:start;letter-spacing:0px;word-spacing:0px;text-anchor:start;fill:#000000;fill-opacity:1;stroke:none;stroke-width:0.06257838"
               d="m -34.826526,9.3870147 q 0.247707,0 0.376449,-0.1776314 0.130371,-0.179261 0.130371,-0.5198569 0,-0.3601516 -0.130371,-0.5491905 -0.130372,-0.1890389 -0.379708,-0.1890389 -0.247706,0 -0.376448,0.1825203 -0.127112,0.1825203 -0.127112,0.5328941 0,0.353633 0.128742,0.537783 0.128742,0.1825203 0.378077,0.1825203 z m 0,0.099408 q -0.348744,0 -0.570375,-0.2265207 -0.220003,-0.2281503 -0.220003,-0.5899316 0,-0.358522 0.223262,-0.5883021 0.223261,-0.22978 0.567116,-0.22978 0.350374,0 0.570376,0.2281504 0.220003,0.2265207 0.220003,0.5899317 0,0.3634109 -0.221632,0.5899316 -0.220002,0.2265207 -0.568747,0.2265207 z" />
            <path
               inkscape:connector-curvature="0"
               id="path1604"
               style="font-style:normal;font-variant:normal;font-weight:normal;font-stretch:normal;font-size:medium;line-height:1.25;font-family:'ZapfHumnst BT';-inkscape-font-specification:'ZapfHumnst BT';text-align:start;letter-spacing:0px;word-spacing:0px;text-anchor:start;fill:#000000;fill-opacity:1;stroke:none;stroke-width:0.06257838"
               d="m -32.108277,7.979001 q -0.236298,0 -0.36667,0.1857796 -0.130372,0.1857795 -0.130372,0.5214865 0,0.3194105 0.120594,0.4970419 0.120594,0.1776313 0.338966,0.1776313 0.242817,0 0.373189,-0.1906685 0.132001,-0.1922981 0.132001,-0.5475609 0,-0.308003 -0.123853,-0.4758564 -0.122223,-0.1678535 -0.343855,-0.1678535 z m 0.464449,1.4780884 q 0.0033,-0.074964 0.0049,-0.1173344 0.0016,-0.044001 0.0016,-0.079853 0,-0.052149 -0.0016,-0.076593 0,-0.026074 -0.0033,-0.048889 -0.09452,0.1808907 -0.23304,0.2672619 -0.138519,0.084741 -0.337336,0.084741 -0.303114,0 -0.487264,-0.2167428 -0.18252,-0.2167429 -0.18252,-0.5736352 0,-0.3764481 0.197187,-0.6094874 0.197187,-0.234669 0.510079,-0.234669 0.172742,0 0.303114,0.076593 0.132001,0.074964 0.22652,0.22978 v -0.599709 q 0,-0.1580757 -0.0033,-0.308003 -0.0016,-0.1515571 -0.0065,-0.2965955 0.04889,0.013037 0.08148,0.017926 0.03422,0.00489 0.06193,0.00489 0.02933,0 0.06193,-0.00489 0.03422,-0.00489 0.08148,-0.017926 -0.0081,0.1939278 -0.01304,0.4481525 -0.0033,0.252595 -0.0033,0.6225246 0,0.3601516 0.0033,0.717044 0.0049,0.3568923 0.01304,0.7154143 -0.03585,-0.00815 -0.07008,-0.011407 -0.03259,-0.00489 -0.06518,-0.00489 -0.03259,0 -0.06845,0.00489 -0.03422,0.00326 -0.0717,0.011407 z" />
            <path
               inkscape:connector-curvature="0"
               id="path1606"
               style="font-style:normal;font-variant:normal;font-weight:normal;font-stretch:normal;font-size:medium;line-height:1.25;font-family:'ZapfHumnst BT';-inkscape-font-specification:'ZapfHumnst BT';text-align:start;letter-spacing:0px;word-spacing:0px;text-anchor:start;fill:#000000;fill-opacity:1;stroke:none;stroke-width:0.06257838"
               d="m -29.654031,9.2973842 q -0.130372,0.094519 -0.272151,0.1417791 -0.14015,0.04726 -0.294966,0.04726 -0.350374,0 -0.568746,-0.224891 -0.218373,-0.2265208 -0.218373,-0.588302 0,-0.3731889 0.208595,-0.5980799 0.210224,-0.2265208 0.558968,-0.2265208 0.319411,0 0.493783,0.1906686 0.176002,0.1890388 0.176002,0.5361533 0,0.011408 -0.0016,0.035852 -0.0016,0.024445 -0.0016,0.037482 h -1.14727 v 0.011408 q 0,0.3389662 0.143409,0.5165976 0.143408,0.1776314 0.417189,0.1776314 0.146668,0 0.272151,-0.055408 0.125482,-0.055408 0.241187,-0.1678535 -0.0033,0.052149 -0.0049,0.079853 -0.0016,0.026074 -0.0016,0.04563 z m -1.0609,-0.7643038 h 0.878379 v -0.057037 q 0,-0.2460765 -0.110816,-0.3845964 -0.110815,-0.1401495 -0.306373,-0.1401495 -0.195557,0 -0.324299,0.1613349 -0.127113,0.1597053 -0.136891,0.420448 z" />
            <path
               inkscape:connector-curvature="0"
               id="path1608"
               style="font-style:normal;font-variant:normal;font-weight:normal;font-stretch:normal;font-size:medium;line-height:1.25;font-family:'ZapfHumnst BT';-inkscape-font-specification:'ZapfHumnst BT';text-align:start;letter-spacing:0px;word-spacing:0px;text-anchor:start;fill:#000000;fill-opacity:1;stroke:none;stroke-width:0.06257838"
               d="m -27.77668,9.4570894 q 0.0098,-0.4123003 0.01467,-0.8034152 0.0049,-0.3927446 0.0049,-0.7626741 V 7.3336614 h -0.08963 q -0.198816,0 -0.353633,0.011407 -0.153186,0.00978 -0.260743,0.029334 0.0033,-0.032593 0.0049,-0.053778 0.0016,-0.021185 0.0016,-0.039111 0,-0.019556 -0.0016,-0.042371 -0.0016,-0.024445 -0.0049,-0.061927 0.190669,0.00489 0.387856,0.00815 0.198816,0.00163 0.409041,0.00163 0.213483,0 0.433485,-0.00163 0.221632,-0.00326 0.454671,-0.00652 -0.0033,0.014667 -0.0049,0.034222 -0.0016,0.019556 -0.0016,0.061927 0,0.040741 0.0016,0.061927 0.0016,0.019556 0.0049,0.037482 -0.114075,-0.021185 -0.257484,-0.030963 -0.143408,-0.00978 -0.332447,-0.00978 l -0.09778,0.00163 q -0.0081,0.1417792 -0.01304,0.3210402 -0.0033,0.1776313 -0.0033,0.4253374 0,0.3177809 0.0049,0.6632658 0.0049,0.3454848 0.01467,0.712155 -0.03748,-0.00489 -0.07496,-0.00652 -0.03748,-0.00326 -0.07822,-0.00326 -0.03748,0 -0.07822,0.00326 -0.04074,0.00163 -0.08474,0.00652 z" />
            <path
               inkscape:connector-curvature="0"
               id="path1610"
               style="font-style:normal;font-variant:normal;font-weight:normal;font-stretch:normal;font-size:medium;line-height:1.25;font-family:'ZapfHumnst BT';-inkscape-font-specification:'ZapfHumnst BT';text-align:start;letter-spacing:0px;word-spacing:0px;text-anchor:start;fill:#000000;fill-opacity:1;stroke:none;stroke-width:0.06257838"
               d="m -25.61577,9.2973842 q -0.130372,0.094519 -0.272151,0.1417791 -0.140149,0.04726 -0.294966,0.04726 -0.350373,0 -0.568746,-0.224891 -0.218372,-0.2265208 -0.218372,-0.588302 0,-0.3731889 0.208594,-0.5980799 0.210225,-0.2265208 0.558969,-0.2265208 0.31941,0 0.493782,0.1906686 0.176002,0.1890388 0.176002,0.5361533 0,0.011408 -0.0016,0.035852 -0.0016,0.024445 -0.0016,0.037482 h -1.147271 v 0.011408 q 0,0.3389662 0.143409,0.5165976 0.143409,0.1776314 0.417189,0.1776314 0.146668,0 0.272151,-0.055408 0.125483,-0.055408 0.241188,-0.1678535 -0.0033,0.052149 -0.0049,0.079853 -0.0016,0.026074 -0.0016,0.04563 z m -1.060899,-0.7643038 h 0.878379 v -0.057037 q 0,-0.2460765 -0.110816,-0.3845964 -0.110816,-0.1401495 -0.306373,-0.1401495 -0.195558,0 -0.3243,0.1613349 -0.127112,0.1597053 -0.13689,0.420448 z" />
            <path
               inkscape:connector-curvature="0"
               id="path1612"
               style="font-style:normal;font-variant:normal;font-weight:normal;font-stretch:normal;font-size:medium;line-height:1.25;font-family:'ZapfHumnst BT';-inkscape-font-specification:'ZapfHumnst BT';text-align:start;letter-spacing:0px;word-spacing:0px;text-anchor:start;fill:#000000;fill-opacity:1;stroke:none;stroke-width:0.06257838"
               d="m -24.488055,9.3870147 q 0.247706,0 0.376448,-0.1776314 0.130372,-0.179261 0.130372,-0.5198569 0,-0.3601516 -0.130372,-0.5491905 -0.130372,-0.1890389 -0.379707,-0.1890389 -0.247706,0 -0.376448,0.1825203 -0.127113,0.1825203 -0.127113,0.5328941 0,0.353633 0.128742,0.537783 0.128742,0.1825203 0.378078,0.1825203 z m 0,0.099408 q -0.348744,0 -0.570376,-0.2265207 -0.220002,-0.2281503 -0.220002,-0.5899316 0,-0.358522 0.223261,-0.5883021 0.223262,-0.22978 0.567117,-0.22978 0.350374,0 0.570376,0.2281504 0.220002,0.2265207 0.220002,0.5899317 0,0.3634109 -0.221632,0.5899316 -0.220002,0.2265207 -0.568746,0.2265207 z" />
            <path
               inkscape:connector-curvature="0"
               id="path1614"
               style="font-style:normal;font-variant:normal;font-weight:normal;font-stretch:normal;font-size:medium;line-height:1.25;font-family:'ZapfHumnst BT';-inkscape-font-specification:'ZapfHumnst BT';text-align:start;letter-spacing:0px;word-spacing:0px;text-anchor:start;fill:#000000;fill-opacity:1;stroke:none;stroke-width:0.06257838"
               d="m -23.326118,9.4538301 q 0.0065,-0.1629645 0.0098,-0.4237078 0.0033,-0.2623729 0.0033,-0.6648953 0,-0.2134836 -0.0033,-0.3096327 -0.0033,-0.097779 -0.0098,-0.174372 0.03259,0.00815 0.06682,0.011407 0.03585,0.00326 0.07659,0.00326 0.03911,0 0.07333,-0.00326 0.03422,-0.00489 0.06681,-0.011407 -0.0098,0.079853 -0.0163,0.1727424 -0.0049,0.09126 -0.0049,0.1955574 0.09289,-0.1955574 0.195558,-0.2900769 0.102667,-0.094519 0.221631,-0.094519 0.01956,0 0.04889,0.00489 0.03096,0.00326 0.07822,0.013037 -0.0081,0.044 -0.01304,0.1042973 -0.0033,0.060297 -0.0033,0.1482977 l -0.02607,0.016297 q -0.04237,-0.021185 -0.08148,-0.030963 -0.03911,-0.011407 -0.07985,-0.011407 -0.18252,0 -0.267262,0.1597053 -0.08311,0.1597052 -0.08311,0.5133383 0,0.206965 0.0033,0.3797074 0.0049,0.1727424 0.01304,0.2949658 -0.03096,-0.00652 -0.06682,-0.00978 -0.03585,-0.00326 -0.07659,-0.00326 -0.03259,0 -0.06356,0.00326 -0.02933,0.00163 -0.06193,0.00652 z" />
            <path
               inkscape:connector-curvature="0"
               id="path1616"
               style="font-style:normal;font-variant:normal;font-weight:normal;font-stretch:normal;font-size:medium;line-height:1.25;font-family:'ZapfHumnst BT';-inkscape-font-specification:'ZapfHumnst BT';text-align:start;letter-spacing:0px;word-spacing:0px;text-anchor:start;fill:#000000;fill-opacity:1;stroke:none;stroke-width:0.06257838"
               d="m -22.201663,9.4570894 q 0.0081,-0.22978 0.01141,-0.4334857 0.0049,-0.2053353 0.0049,-0.3943742 0,-0.1727424 -0.0049,-0.3568923 -0.0033,-0.1857796 -0.01141,-0.3894853 0.03259,0.00652 0.06519,0.00978 0.03259,0.00326 0.0717,0.00326 0.03911,0 0.07333,-0.00326 0.03422,-0.00489 0.06356,-0.00978 -0.0081,0.2085946 -0.01304,0.3927446 -0.0033,0.1825203 -0.0033,0.353633 0,0.1890389 0.0033,0.3943742 0.0049,0.2037057 0.01304,0.4318561 -0.03585,-0.00652 -0.07007,-0.00978 -0.03422,-0.00489 -0.06682,-0.00489 -0.03096,0 -0.06356,0.00489 -0.03259,0.00326 -0.07333,0.011407 z m -0.03259,-2.1560209 q 0,-0.070075 0.04889,-0.1173345 0.05052,-0.048889 0.120593,-0.048889 0.07007,0 0.118965,0.048889 0.05052,0.04726 0.05052,0.1173345 0,0.070075 -0.05052,0.1205937 -0.04889,0.048889 -0.118965,0.048889 -0.07007,0 -0.120593,-0.048889 -0.04889,-0.050519 -0.04889,-0.1205937 z" />
            <path
               inkscape:connector-curvature="0"
               id="path1618"
               style="font-style:normal;font-variant:normal;font-weight:normal;font-stretch:normal;font-size:medium;line-height:1.25;font-family:'ZapfHumnst BT';-inkscape-font-specification:'ZapfHumnst BT';text-align:start;letter-spacing:0px;word-spacing:0px;text-anchor:start;fill:#000000;fill-opacity:1;stroke:none;stroke-width:0.06257838"
               d="m -20.572017,8.6292295 q -0.436745,0.073334 -0.562228,0.156446 -0.125483,0.081482 -0.125483,0.2477061 0,0.151557 0.07659,0.2346689 0.07822,0.081482 0.220002,0.081482 0.08311,0 0.174372,-0.039112 0.09289,-0.040741 0.159705,-0.1075566 0.02933,-0.029334 0.04237,-0.058667 0.01467,-0.030963 0.01467,-0.084742 v -0.016296 z m -0.0049,0.6339321 q -0.105927,0.1108159 -0.23141,0.1678535 -0.123853,0.055408 -0.265632,0.055408 -0.220002,0 -0.340596,-0.1059269 -0.118964,-0.1075566 -0.118964,-0.3031141 0,-0.1776313 0.09452,-0.2835583 0.09615,-0.1075566 0.291707,-0.151557 0.08311,-0.017926 0.226521,-0.044 0.294965,-0.053778 0.355262,-0.1091863 v -0.070075 q 0,-0.2297801 -0.08963,-0.3324477 -0.088,-0.1042973 -0.281929,-0.1042973 -0.13689,0 -0.244447,0.060297 -0.107556,0.058667 -0.185779,0.1760017 h -0.02607 l 0.0065,-0.1760017 q 0.109186,-0.09126 0.246076,-0.1385199 0.136891,-0.048889 0.291707,-0.048889 0.27541,0 0.400893,0.133631 0.125482,0.1320012 0.125482,0.4269671 v 0.040741 l -0.01304,0.5703759 v 0.09289 q 0,0.1352606 0.03096,0.1776314 0.03096,0.042371 0.115705,0.042371 0.02281,0 0.03422,0 0.01304,-0.00163 0.02281,-0.00163 l 0.01304,0.065186 -0.0098,0.00326 q -0.169483,0.050519 -0.264002,0.050519 -0.08148,0 -0.125483,-0.044 -0.04237,-0.04563 -0.05867,-0.1499274 z" />
            <path
               inkscape:connector-curvature="0"
               id="path1620"
               style="font-style:normal;font-variant:normal;font-weight:normal;font-stretch:normal;font-size:medium;line-height:1.25;font-family:'ZapfHumnst BT';-inkscape-font-specification:'ZapfHumnst BT';text-align:start;letter-spacing:0px;word-spacing:0px;text-anchor:start;fill:#000000;fill-opacity:1;stroke:none;stroke-width:0.06257838"
               d="m -18.243254,7.979001 q -0.236299,0 -0.36667,0.1857796 -0.130372,0.1857795 -0.130372,0.5214865 0,0.3194105 0.120594,0.4970419 0.120593,0.1776313 0.338966,0.1776313 0.242817,0 0.373189,-0.1906685 0.132001,-0.1922981 0.132001,-0.5475609 0,-0.308003 -0.123853,-0.4758564 -0.122223,-0.1678535 -0.343855,-0.1678535 z m 0.464449,1.4780884 q 0.0033,-0.074964 0.0049,-0.1173344 0.0016,-0.044001 0.0016,-0.079853 0,-0.052149 -0.0016,-0.076593 0,-0.026074 -0.0033,-0.048889 -0.09452,0.1808907 -0.233039,0.2672619 -0.13852,0.084741 -0.337336,0.084741 -0.303115,0 -0.487264,-0.2167428 -0.182521,-0.2167429 -0.182521,-0.5736352 0,-0.3764481 0.197187,-0.6094874 0.197187,-0.234669 0.510079,-0.234669 0.172743,0 0.303114,0.076593 0.132002,0.074964 0.226521,0.22978 v -0.599709 q 0,-0.1580757 -0.0033,-0.308003 -0.0016,-0.1515571 -0.0065,-0.2965955 0.04889,0.013037 0.08148,0.017926 0.03422,0.00489 0.06193,0.00489 0.02933,0 0.06193,-0.00489 0.03422,-0.00489 0.08148,-0.017926 -0.0081,0.1939278 -0.01304,0.4481525 -0.0033,0.252595 -0.0033,0.6225246 0,0.3601516 0.0033,0.717044 0.0049,0.3568923 0.01304,0.7154143 -0.03585,-0.00815 -0.07007,-0.011407 -0.03259,-0.00489 -0.06519,-0.00489 -0.03259,0 -0.06845,0.00489 -0.03422,0.00326 -0.0717,0.011407 z" />
            <path
               inkscape:connector-curvature="0"
               id="path1622"
               style="font-style:normal;font-variant:normal;font-weight:normal;font-stretch:normal;font-size:medium;line-height:1.25;font-family:'ZapfHumnst BT';-inkscape-font-specification:'ZapfHumnst BT';text-align:start;letter-spacing:0px;word-spacing:0px;text-anchor:start;fill:#000000;fill-opacity:1;stroke:none;stroke-width:0.06257838"
               d="m -16.185011,8.6292295 q -0.436745,0.073334 -0.562227,0.156446 -0.125483,0.081482 -0.125483,0.2477061 0,0.151557 0.07659,0.2346689 0.07822,0.081482 0.220002,0.081482 0.08311,0 0.174373,-0.039112 0.09289,-0.040741 0.159705,-0.1075566 0.02933,-0.029334 0.04237,-0.058667 0.01467,-0.030963 0.01467,-0.084742 v -0.016296 z m -0.0049,0.6339321 q -0.105926,0.1108159 -0.231409,0.1678535 -0.123853,0.055408 -0.265632,0.055408 -0.220003,0 -0.340596,-0.1059269 -0.118964,-0.1075566 -0.118964,-0.3031141 0,-0.1776313 0.09452,-0.2835583 0.09615,-0.1075566 0.291707,-0.151557 0.08311,-0.017926 0.22652,-0.044 0.294966,-0.053778 0.355263,-0.1091863 v -0.070075 q 0,-0.2297801 -0.08963,-0.3324477 -0.088,-0.1042973 -0.281928,-0.1042973 -0.13689,0 -0.244447,0.060297 -0.107557,0.058667 -0.18578,0.1760017 h -0.02607 l 0.0065,-0.1760017 q 0.109186,-0.09126 0.246076,-0.1385199 0.13689,-0.048889 0.291707,-0.048889 0.27541,0 0.400892,0.133631 0.125483,0.1320012 0.125483,0.4269671 v 0.040741 l -0.01304,0.5703759 v 0.09289 q 0,0.1352606 0.03096,0.1776314 0.03096,0.042371 0.115705,0.042371 0.02281,0 0.03422,0 0.01304,-0.00163 0.02281,-0.00163 l 0.01304,0.065186 -0.0098,0.00326 q -0.169483,0.050519 -0.264003,0.050519 -0.08148,0 -0.125482,-0.044 -0.04237,-0.04563 -0.05867,-0.1499274 z" />
            <g
               id="g1714"
               transform="matrix(1.1830558,0,0,1.1830558,9.1408881,-2.2980323)">
              <path
                 d="m -49.934969,13.78329 q 0.06193,-0.27541 0.14015,-0.798527 0.07822,-0.524745 0.203705,-1.523718 h 0.05541 q 0.296596,0.593191 0.518228,1.021788 0.221631,0.428596 0.420448,0.790378 0.218373,-0.386226 0.45956,-0.82786 0.241188,-0.443264 0.528005,-0.984306 h 0.044 q 0.04563,0.440004 0.105927,0.979417 0.06193,0.539412 0.156446,1.342828 -0.04074,-0.0081 -0.07822,-0.01141 -0.03585,-0.0049 -0.0717,-0.0049 -0.03422,0 -0.0717,0.0049 -0.03585,0.0033 -0.07659,0.01141 -0.04237,-0.586673 -0.08963,-1.029936 -0.04563,-0.443264 -0.08474,-0.635562 -0.309632,0.519857 -0.537783,0.963121 -0.22652,0.441633 -0.31778,0.699117 h -0.04563 q -0.03748,-0.130371 -0.110815,-0.290076 -0.07171,-0.159706 -0.206965,-0.407412 L -49.5145,12.121051 q -0.07659,0.537783 -0.118964,0.96801 -0.04237,0.430226 -0.04563,0.694229 -0.03259,-0.0081 -0.06356,-0.01141 -0.02933,-0.0049 -0.05867,-0.0049 -0.02933,0 -0.06193,0.0049 -0.03259,0.0033 -0.07171,0.01141 z"
                 style="font-style:normal;font-variant:normal;font-weight:normal;font-stretch:normal;font-size:medium;line-height:1.25;font-family:'ZapfHumnst BT';-inkscape-font-specification:'ZapfHumnst BT';text-align:start;letter-spacing:0px;word-spacing:0px;text-anchor:start;fill:#000000;fill-opacity:1;stroke:none;stroke-width:0.06257838"
                 id="path1624"
                 inkscape:connector-curvature="0" />
              <path
                 d="m -46.046635,12.95543 q -0.436745,0.07333 -0.562228,0.156446 -0.125482,0.08148 -0.125482,0.247706 0,0.151557 0.07659,0.234669 0.07822,0.08148 0.220002,0.08148 0.08311,0 0.174372,-0.03911 0.09289,-0.04074 0.159706,-0.107557 0.02933,-0.02933 0.04237,-0.05867 0.01467,-0.03096 0.01467,-0.08474 v -0.0163 z m -0.0049,0.633932 q -0.105927,0.110816 -0.231409,0.167853 -0.123853,0.05541 -0.265633,0.05541 -0.220002,0 -0.340596,-0.105927 -0.118964,-0.107556 -0.118964,-0.303114 0,-0.177631 0.09452,-0.283558 0.09615,-0.107557 0.291706,-0.151557 0.08311,-0.01793 0.226521,-0.044 0.294966,-0.05378 0.355263,-0.109187 v -0.07007 q 0,-0.22978 -0.08963,-0.332448 -0.088,-0.104297 -0.281928,-0.104297 -0.136891,0 -0.244447,0.0603 -0.107557,0.05867 -0.18578,0.176002 h -0.02607 l 0.0065,-0.176002 q 0.109187,-0.09126 0.246077,-0.138519 0.13689,-0.04889 0.291706,-0.04889 0.275411,0 0.400893,0.133631 0.125483,0.132001 0.125483,0.426967 v 0.04074 l -0.01304,0.570376 v 0.09289 q 0,0.135261 0.03096,0.177631 0.03096,0.04237 0.115705,0.04237 0.02282,0 0.03422,0 0.01304,-0.0016 0.02282,-0.0016 l 0.01304,0.06518 -0.0098,0.0033 q -0.169483,0.05052 -0.264003,0.05052 -0.08148,0 -0.125483,-0.044 -0.04237,-0.04563 -0.05867,-0.149927 z"
                 style="font-style:normal;font-variant:normal;font-weight:normal;font-stretch:normal;font-size:medium;line-height:1.25;font-family:'ZapfHumnst BT';-inkscape-font-specification:'ZapfHumnst BT';text-align:start;letter-spacing:0px;word-spacing:0px;text-anchor:start;fill:#000000;fill-opacity:1;stroke:none;stroke-width:0.06257838"
                 id="path1626"
                 inkscape:connector-curvature="0" />
              <path
                 d="m -45.481148,12.347572 q 0.0033,-0.03585 0.0049,-0.05378 0.0016,-0.01956 0.0016,-0.03259 0,-0.0098 -0.0016,-0.0277 -0.0016,-0.01793 -0.0016,-0.02445 0.05052,0.0033 0.104297,0.0065 0.05378,0.0016 0.109186,0.0016 v -0.109186 q 0,-0.05541 -0.0016,-0.117334 -0.0016,-0.06193 -0.0049,-0.162965 0.07822,-0.01304 0.145038,-0.03422 0.06682,-0.02119 0.120594,-0.04889 -0.0049,0.109186 -0.0081,0.174372 -0.0016,0.06519 -0.0016,0.088 v 0.221632 q 0.09289,0 0.200446,-0.0049 0.107557,-0.0049 0.23304,-0.0163 -0.0033,0.02444 -0.0065,0.05378 -0.0033,0.0277 -0.0033,0.05704 v 0.02608 q -0.09126,-0.0049 -0.167854,-0.0065 -0.07496,-0.0033 -0.13852,-0.0033 -0.05215,0 -0.07659,0.0016 -0.02282,0 -0.04237,0.0016 -0.0033,0.04726 -0.0049,0.08963 0,0.04074 0,0.07822 0,0.09452 -0.0081,0.353633 -0.0081,0.257484 -0.0081,0.420448 0,0.22978 0.06356,0.325929 0.06519,0.09452 0.216743,0.09452 0.044,0 0.101038,-0.01793 0.05867,-0.01793 0.132001,-0.05215 l 0.02445,0.07333 q -0.08311,0.05541 -0.177631,0.08311 -0.09289,0.02933 -0.18741,0.02933 -0.223261,0 -0.324299,-0.105927 -0.09941,-0.105927 -0.09941,-0.350374 0,-0.05052 0.0081,-0.352004 0.0098,-0.303114 0.0098,-0.555709 v -0.114075 h -0.03748 q -0.04074,0 -0.08474,0.0033 -0.04237,0.0016 -0.088,0.0065 z"
                 style="font-style:normal;font-variant:normal;font-weight:normal;font-stretch:normal;font-size:medium;line-height:1.25;font-family:'ZapfHumnst BT';-inkscape-font-specification:'ZapfHumnst BT';text-align:start;letter-spacing:0px;word-spacing:0px;text-anchor:start;fill:#000000;fill-opacity:1;stroke:none;stroke-width:0.06257838"
                 id="path1628"
                 inkscape:connector-curvature="0" />
              <path
                 d="m -43.08231,13.623584 q -0.130371,0.09452 -0.272151,0.14178 -0.140149,0.04726 -0.294965,0.04726 -0.350374,0 -0.568747,-0.224891 -0.218372,-0.22652 -0.218372,-0.588302 0,-0.373189 0.208594,-0.59808 0.210225,-0.22652 0.558969,-0.22652 0.31941,0 0.493782,0.190668 0.176002,0.189039 0.176002,0.536153 0,0.01141 -0.0016,0.03585 -0.0016,0.02444 -0.0016,0.03748 h -1.147271 v 0.01141 q 0,0.338966 0.143409,0.516598 0.143409,0.177631 0.417189,0.177631 0.146669,0 0.272151,-0.05541 0.125483,-0.05541 0.241188,-0.167853 -0.0033,0.05215 -0.0049,0.07985 -0.0016,0.02608 -0.0016,0.04563 z m -1.060899,-0.764303 h 0.878379 v -0.05704 q 0,-0.246076 -0.110816,-0.384596 -0.110816,-0.14015 -0.306373,-0.14015 -0.195558,0 -0.3243,0.161335 -0.127112,0.159705 -0.13689,0.420449 z m 0.143409,-0.865342 0.470967,-0.487264 q 0.05704,-0.05704 0.08963,-0.07659 0.03422,-0.01956 0.06681,-0.01956 0.05378,0 0.08637,0.03259 0.03422,0.03259 0.03422,0.08474 0,0.03422 -0.02607,0.06682 -0.02445,0.03259 -0.07496,0.06519 l -0.537783,0.334077 z"
                 style="font-style:normal;font-variant:normal;font-weight:normal;font-stretch:normal;font-size:medium;line-height:1.25;font-family:'ZapfHumnst BT';-inkscape-font-specification:'ZapfHumnst BT';text-align:start;letter-spacing:0px;word-spacing:0px;text-anchor:start;fill:#000000;fill-opacity:1;stroke:none;stroke-width:0.06257838"
                 id="path1630"
                 inkscape:connector-curvature="0" />
              <path
                 d="m -42.62112,13.78003 q 0.0065,-0.162964 0.0098,-0.423707 0.0033,-0.262373 0.0033,-0.664896 0,-0.213483 -0.0033,-0.309632 -0.0033,-0.09778 -0.0098,-0.174372 0.03259,0.0081 0.06681,0.01141 0.03585,0.0033 0.07659,0.0033 0.03911,0 0.07333,-0.0033 0.03422,-0.0049 0.06681,-0.01141 -0.0098,0.07985 -0.0163,0.172742 -0.0049,0.09126 -0.0049,0.195557 0.09289,-0.195557 0.195557,-0.290076 0.102668,-0.09452 0.221632,-0.09452 0.01956,0 0.04889,0.0049 0.03096,0.0033 0.07822,0.01304 -0.0081,0.044 -0.01304,0.104297 -0.0033,0.0603 -0.0033,0.148298 l -0.02607,0.0163 q -0.04237,-0.02119 -0.08148,-0.03096 -0.03911,-0.01141 -0.07985,-0.01141 -0.182521,0 -0.267262,0.159705 -0.08311,0.159705 -0.08311,0.513338 0,0.206965 0.0033,0.379708 0.0049,0.172742 0.01304,0.294966 -0.03096,-0.0065 -0.06681,-0.0098 -0.03585,-0.0033 -0.07659,-0.0033 -0.03259,0 -0.06356,0.0033 -0.02933,0.0016 -0.06193,0.0065 z"
                 style="font-style:normal;font-variant:normal;font-weight:normal;font-stretch:normal;font-size:medium;line-height:1.25;font-family:'ZapfHumnst BT';-inkscape-font-specification:'ZapfHumnst BT';text-align:start;letter-spacing:0px;word-spacing:0px;text-anchor:start;fill:#000000;fill-opacity:1;stroke:none;stroke-width:0.06257838"
                 id="path1632"
                 inkscape:connector-curvature="0" />
              <path
                 d="m -41.496665,13.78329 q 0.0081,-0.22978 0.01141,-0.433486 0.0049,-0.205335 0.0049,-0.394374 0,-0.172743 -0.0049,-0.356893 -0.0033,-0.185779 -0.01141,-0.389485 0.03259,0.0065 0.06519,0.0098 0.03259,0.0033 0.0717,0.0033 0.03911,0 0.07333,-0.0033 0.03422,-0.0049 0.06356,-0.0098 -0.0081,0.208595 -0.01304,0.392745 -0.0033,0.18252 -0.0033,0.353633 0,0.189039 0.0033,0.394374 0.0049,0.203706 0.01304,0.431856 -0.03585,-0.0065 -0.07008,-0.0098 -0.03422,-0.0049 -0.06682,-0.0049 -0.03096,0 -0.06356,0.0049 -0.03259,0.0033 -0.07333,0.01141 z m -0.03259,-2.156021 q 0,-0.07007 0.04889,-0.117335 0.05052,-0.04889 0.120593,-0.04889 0.07007,0 0.118965,0.04889 0.05052,0.04726 0.05052,0.117335 0,0.07007 -0.05052,0.120594 -0.04889,0.04889 -0.118965,0.04889 -0.07007,0 -0.120593,-0.04889 -0.04889,-0.05052 -0.04889,-0.120594 z"
                 style="font-style:normal;font-variant:normal;font-weight:normal;font-stretch:normal;font-size:medium;line-height:1.25;font-family:'ZapfHumnst BT';-inkscape-font-specification:'ZapfHumnst BT';text-align:start;letter-spacing:0px;word-spacing:0px;text-anchor:start;fill:#000000;fill-opacity:1;stroke:none;stroke-width:0.06257838"
                 id="path1634"
                 inkscape:connector-curvature="0" />
              <path
                 d="m -39.867019,12.95543 q -0.436745,0.07333 -0.562228,0.156446 -0.125483,0.08148 -0.125483,0.247706 0,0.151557 0.07659,0.234669 0.07822,0.08148 0.220002,0.08148 0.08311,0 0.174372,-0.03911 0.09289,-0.04074 0.159705,-0.107557 0.02933,-0.02933 0.04237,-0.05867 0.01467,-0.03096 0.01467,-0.08474 v -0.0163 z m -0.0049,0.633932 q -0.105927,0.110816 -0.23141,0.167853 -0.123853,0.05541 -0.265632,0.05541 -0.220002,0 -0.340596,-0.105927 -0.118964,-0.107556 -0.118964,-0.303114 0,-0.177631 0.09452,-0.283558 0.09615,-0.107557 0.291707,-0.151557 0.08311,-0.01793 0.226521,-0.044 0.294965,-0.05378 0.355262,-0.109187 v -0.07007 q 0,-0.22978 -0.08963,-0.332448 -0.088,-0.104297 -0.281929,-0.104297 -0.13689,0 -0.244447,0.0603 -0.107556,0.05867 -0.185779,0.176002 h -0.02607 l 0.0065,-0.176002 q 0.109186,-0.09126 0.246076,-0.138519 0.136891,-0.04889 0.291707,-0.04889 0.27541,0 0.400893,0.133631 0.125482,0.132001 0.125482,0.426967 v 0.04074 l -0.01304,0.570376 v 0.09289 q 0,0.135261 0.03096,0.177631 0.03096,0.04237 0.115704,0.04237 0.02282,0 0.03422,0 0.01304,-0.0016 0.02282,-0.0016 l 0.01304,0.06518 -0.0098,0.0033 q -0.169483,0.05052 -0.264002,0.05052 -0.08148,0 -0.125483,-0.044 -0.04237,-0.04563 -0.05867,-0.149927 z"
                 style="font-style:normal;font-variant:normal;font-weight:normal;font-stretch:normal;font-size:medium;line-height:1.25;font-family:'ZapfHumnst BT';-inkscape-font-specification:'ZapfHumnst BT';text-align:start;letter-spacing:0px;word-spacing:0px;text-anchor:start;fill:#000000;fill-opacity:1;stroke:none;stroke-width:0.06257838"
                 id="path1636"
                 inkscape:connector-curvature="0" />
              <path
                 d="m -36.381208,13.639881 q -0.125483,0.09289 -0.314521,0.140149 -0.18741,0.04726 -0.431857,0.04726 -0.555709,0 -0.860452,-0.309633 -0.304744,-0.309632 -0.304744,-0.87186 0,-0.541042 0.335707,-0.862082 0.337337,-0.32267 0.902824,-0.32267 0.197187,0 0.378077,0.04074 0.180891,0.03911 0.338967,0.118964 -0.02607,0.08637 -0.04074,0.166224 -0.01304,0.07822 -0.01304,0.154816 -0.118964,-0.185779 -0.281928,-0.27215 -0.162965,-0.08637 -0.391115,-0.08637 -0.420449,0 -0.653488,0.280299 -0.23141,0.27867 -0.23141,0.785489 0,0.488894 0.22978,0.770823 0.23141,0.280299 0.630673,0.280299 0.187409,0 0.373189,-0.0717 0.185779,-0.0717 0.355263,-0.208594 z"
                 style="font-style:normal;font-variant:normal;font-weight:normal;font-stretch:normal;font-size:medium;line-height:1.25;font-family:'ZapfHumnst BT';-inkscape-font-specification:'ZapfHumnst BT';text-align:start;letter-spacing:0px;word-spacing:0px;text-anchor:start;fill:#000000;fill-opacity:1;stroke:none;stroke-width:0.06257838"
                 id="path1638"
                 inkscape:connector-curvature="0" />
              <path
                 d="m -35.328457,13.713215 q 0.247706,0 0.376448,-0.177631 0.130372,-0.179261 0.130372,-0.519857 0,-0.360152 -0.130372,-0.549191 -0.130371,-0.189039 -0.379707,-0.189039 -0.247706,0 -0.376448,0.182521 -0.127112,0.18252 -0.127112,0.532894 0,0.353633 0.128742,0.537783 0.128742,0.18252 0.378077,0.18252 z m 0,0.09941 q -0.348744,0 -0.570376,-0.22652 -0.220002,-0.228151 -0.220002,-0.589932 0,-0.358522 0.223262,-0.588302 0.223261,-0.22978 0.567116,-0.22978 0.350374,0 0.570376,0.22815 0.220002,0.226521 0.220002,0.589932 0,0.363411 -0.221631,0.589932 -0.220003,0.22652 -0.568747,0.22652 z"
                 style="font-style:normal;font-variant:normal;font-weight:normal;font-stretch:normal;font-size:medium;line-height:1.25;font-family:'ZapfHumnst BT';-inkscape-font-specification:'ZapfHumnst BT';text-align:start;letter-spacing:0px;word-spacing:0px;text-anchor:start;fill:#000000;fill-opacity:1;stroke:none;stroke-width:0.06257838"
                 id="path1640"
                 inkscape:connector-curvature="0" />
              <path
                 d="m -34.16326,13.78329 q 0.0065,-0.09941 0.0098,-0.216743 0.0033,-0.118964 0.0033,-0.363411 v -0.237928 q 0,-0.325929 -0.0033,-0.477486 -0.0033,-0.153187 -0.0098,-0.280299 0.03096,0.0065 0.06519,0.01141 0.03422,0.0033 0.0717,0.0033 0.03911,0 0.07008,-0.0033 0.03259,-0.0033 0.05867,-0.01141 0,0.0065 0,0.0163 -0.0065,0.104297 -0.0065,0.154816 0,0.01956 0.0016,0.0603 0.0016,0.03911 0.0016,0.0603 0.09615,-0.164594 0.224891,-0.244447 0.130371,-0.07985 0.299855,-0.07985 0.265632,0 0.399263,0.149927 0.13526,0.149927 0.13526,0.446523 0,0.08311 -0.0033,0.246076 -0.0033,0.161335 -0.0033,0.237929 0,0.125482 0.0016,0.257484 0.0033,0.130371 0.0065,0.270521 -0.03748,-0.0081 -0.0717,-0.01141 -0.03422,-0.0049 -0.06356,-0.0049 -0.03259,0 -0.06518,0.0049 -0.03096,0.0033 -0.07171,0.01141 0.0098,-0.174372 0.01467,-0.410671 0.0049,-0.237928 0.0049,-0.534524 0,-0.247706 -0.09615,-0.369929 -0.09452,-0.123853 -0.283558,-0.123853 -0.09941,0 -0.177632,0.03585 -0.07659,0.03585 -0.133631,0.107557 -0.06193,0.07822 -0.088,0.187409 -0.02607,0.109186 -0.02607,0.334077 v 0.149927 q 0,0.288448 0.0033,0.410671 0.0033,0.122224 0.0098,0.213484 -0.04237,-0.0081 -0.07659,-0.01141 -0.03422,-0.0049 -0.06519,-0.0049 -0.03259,0 -0.06519,0.0049 -0.03259,0.0033 -0.0717,0.01141 z"
                 style="font-style:normal;font-variant:normal;font-weight:normal;font-stretch:normal;font-size:medium;line-height:1.25;font-family:'ZapfHumnst BT';-inkscape-font-specification:'ZapfHumnst BT';text-align:start;letter-spacing:0px;word-spacing:0px;text-anchor:start;fill:#000000;fill-opacity:1;stroke:none;stroke-width:0.06257838"
                 id="path1642"
                 inkscape:connector-curvature="0" />
              <path
                 d="m -31.697606,12.305201 q -0.236298,0 -0.36667,0.18578 -0.130371,0.185779 -0.130371,0.521486 0,0.319411 0.120593,0.497042 0.120594,0.177632 0.338967,0.177632 0.242817,0 0.373188,-0.190669 0.132002,-0.192298 0.132002,-0.547561 0,-0.308003 -0.123853,-0.475856 -0.122224,-0.167854 -0.343856,-0.167854 z m 0.464449,1.478089 q 0.0033,-0.07496 0.0049,-0.117335 0.0016,-0.044 0.0016,-0.07985 0,-0.05215 -0.0016,-0.07659 0,-0.02607 -0.0033,-0.04889 -0.09452,0.180891 -0.233039,0.267262 -0.13852,0.08474 -0.337337,0.08474 -0.303114,0 -0.487264,-0.216743 -0.18252,-0.216742 -0.18252,-0.573635 0,-0.376448 0.197187,-0.609487 0.197187,-0.234669 0.510079,-0.234669 0.172742,0 0.303114,0.07659 0.132001,0.07496 0.226521,0.22978 v -0.599709 q 0,-0.158076 -0.0033,-0.308003 -0.0016,-0.151557 -0.0065,-0.296596 0.04889,0.01304 0.08148,0.01793 0.03422,0.0049 0.06193,0.0049 0.02933,0 0.06193,-0.0049 0.03422,-0.0049 0.08148,-0.01793 -0.0081,0.193928 -0.01304,0.448153 -0.0033,0.252595 -0.0033,0.622524 0,0.360152 0.0033,0.717044 0.0049,0.356893 0.01304,0.715415 -0.03585,-0.0081 -0.07007,-0.01141 -0.03259,-0.0049 -0.06519,-0.0049 -0.03259,0 -0.06845,0.0049 -0.03422,0.0033 -0.0717,0.01141 z"
                 style="font-style:normal;font-variant:normal;font-weight:normal;font-stretch:normal;font-size:medium;line-height:1.25;font-family:'ZapfHumnst BT';-inkscape-font-specification:'ZapfHumnst BT';text-align:start;letter-spacing:0px;word-spacing:0px;text-anchor:start;fill:#000000;fill-opacity:1;stroke:none;stroke-width:0.06257838"
                 id="path1644"
                 inkscape:connector-curvature="0" />
              <path
                 d="m -29.24336,13.623584 q -0.130372,0.09452 -0.272151,0.14178 -0.140149,0.04726 -0.294966,0.04726 -0.350373,0 -0.568746,-0.224891 -0.218372,-0.22652 -0.218372,-0.588302 0,-0.373189 0.208594,-0.59808 0.210224,-0.22652 0.558969,-0.22652 0.31941,0 0.493782,0.190668 0.176002,0.189039 0.176002,0.536153 0,0.01141 -0.0016,0.03585 -0.0016,0.02444 -0.0016,0.03748 h -1.147271 v 0.01141 q 0,0.338966 0.143409,0.516598 0.143409,0.177631 0.417189,0.177631 0.146668,0 0.272151,-0.05541 0.125483,-0.05541 0.241187,-0.167853 -0.0033,0.05215 -0.0049,0.07985 -0.0016,0.02608 -0.0016,0.04563 z m -1.060899,-0.764303 h 0.878379 v -0.05704 q 0,-0.246076 -0.110816,-0.384596 -0.110816,-0.14015 -0.306374,-0.14015 -0.195557,0 -0.324299,0.161335 -0.127112,0.159705 -0.13689,0.420449 z"
                 style="font-style:normal;font-variant:normal;font-weight:normal;font-stretch:normal;font-size:medium;line-height:1.25;font-family:'ZapfHumnst BT';-inkscape-font-specification:'ZapfHumnst BT';text-align:start;letter-spacing:0px;word-spacing:0px;text-anchor:start;fill:#000000;fill-opacity:1;stroke:none;stroke-width:0.06257838"
                 id="path1646"
                 inkscape:connector-curvature="0" />
              <path
                 d="m -28.778911,13.78329 q 0.0065,-0.09941 0.0098,-0.216743 0.0033,-0.118964 0.0033,-0.363411 v -0.237928 q 0,-0.325929 -0.0033,-0.477486 -0.0033,-0.153187 -0.0098,-0.280299 0.03096,0.0065 0.06519,0.01141 0.03422,0.0033 0.0717,0.0033 0.03911,0 0.07007,-0.0033 0.03259,-0.0033 0.05867,-0.01141 0,0.0065 0,0.0163 -0.0065,0.104297 -0.0065,0.154816 0,0.01956 0.0016,0.0603 0.0016,0.03911 0.0016,0.0603 0.09615,-0.164594 0.224891,-0.244447 0.130371,-0.07985 0.299854,-0.07985 0.265633,0 0.399264,0.149927 0.13526,0.149927 0.13526,0.446523 0,0.08311 -0.0033,0.246076 -0.0033,0.161335 -0.0033,0.237929 0,0.125482 0.0016,0.257484 0.0033,0.130371 0.0065,0.270521 -0.03748,-0.0081 -0.0717,-0.01141 -0.03422,-0.0049 -0.06356,-0.0049 -0.03259,0 -0.06519,0.0049 -0.03096,0.0033 -0.0717,0.01141 0.0098,-0.174372 0.01467,-0.410671 0.0049,-0.237928 0.0049,-0.534524 0,-0.247706 -0.09615,-0.369929 -0.09452,-0.123853 -0.283559,-0.123853 -0.09941,0 -0.177631,0.03585 -0.07659,0.03585 -0.133631,0.107557 -0.06193,0.07822 -0.088,0.187409 -0.02607,0.109186 -0.02607,0.334077 v 0.149927 q 0,0.288448 0.0033,0.410671 0.0033,0.122224 0.0098,0.213484 -0.04237,-0.0081 -0.07659,-0.01141 -0.03422,-0.0049 -0.06519,-0.0049 -0.03259,0 -0.06519,0.0049 -0.03259,0.0033 -0.0717,0.01141 z"
                 style="font-style:normal;font-variant:normal;font-weight:normal;font-stretch:normal;font-size:medium;line-height:1.25;font-family:'ZapfHumnst BT';-inkscape-font-specification:'ZapfHumnst BT';text-align:start;letter-spacing:0px;word-spacing:0px;text-anchor:start;fill:#000000;fill-opacity:1;stroke:none;stroke-width:0.06257838"
                 id="path1648"
                 inkscape:connector-curvature="0" />
              <path
                 d="m -27.043339,13.437805 q 0.08148,0.125483 0.18252,0.189039 0.102668,0.06356 0.223262,0.06356 0.149927,0 0.236298,-0.08148 0.088,-0.08148 0.088,-0.223262 0,-0.107556 -0.05867,-0.169483 -0.05867,-0.06193 -0.205335,-0.104297 l -0.153187,-0.04237 q -0.192298,-0.05378 -0.27704,-0.154816 -0.08311,-0.101038 -0.08311,-0.27541 0,-0.205336 0.14015,-0.332448 0.141779,-0.128742 0.369929,-0.128742 0.117335,0 0.223262,0.0277 0.105927,0.0277 0.192298,0.08148 -0.02281,0.05215 -0.04074,0.105927 -0.01793,0.05215 -0.0277,0.105927 -0.09615,-0.112445 -0.192298,-0.166224 -0.09615,-0.05541 -0.195558,-0.05541 -0.125482,0 -0.205335,0.07822 -0.07822,0.07822 -0.07822,0.202076 0,0.110816 0.05867,0.176002 0.05867,0.06519 0.195558,0.104297 l 0.22652,0.06682 q 0.169484,0.04889 0.244447,0.140149 0.07659,0.09126 0.07659,0.244447 0,0.22978 -0.166224,0.376448 -0.164594,0.146668 -0.425338,0.146668 -0.127112,0 -0.237928,-0.02933 -0.109186,-0.03096 -0.192298,-0.08963 0.02445,-0.06356 0.044,-0.128742 0.02119,-0.06519 0.03748,-0.127112 z"
                 style="font-style:normal;font-variant:normal;font-weight:normal;font-stretch:normal;font-size:medium;line-height:1.25;font-family:'ZapfHumnst BT';-inkscape-font-specification:'ZapfHumnst BT';text-align:start;letter-spacing:0px;word-spacing:0px;text-anchor:start;fill:#000000;fill-opacity:1;stroke:none;stroke-width:0.06257838"
                 id="path1650"
                 inkscape:connector-curvature="0" />
              <path
                 d="m -24.939466,12.95543 q -0.436745,0.07333 -0.562228,0.156446 -0.125483,0.08148 -0.125483,0.247706 0,0.151557 0.07659,0.234669 0.07822,0.08148 0.220002,0.08148 0.08311,0 0.174372,-0.03911 0.09289,-0.04074 0.159705,-0.107557 0.02933,-0.02933 0.04237,-0.05867 0.01467,-0.03096 0.01467,-0.08474 v -0.0163 z m -0.0049,0.633932 q -0.105927,0.110816 -0.23141,0.167853 -0.123853,0.05541 -0.265632,0.05541 -0.220002,0 -0.340596,-0.105927 -0.118964,-0.107556 -0.118964,-0.303114 0,-0.177631 0.09452,-0.283558 0.09615,-0.107557 0.291707,-0.151557 0.08311,-0.01793 0.226521,-0.044 0.294966,-0.05378 0.355262,-0.109187 v -0.07007 q 0,-0.22978 -0.08963,-0.332448 -0.088,-0.104297 -0.281929,-0.104297 -0.13689,0 -0.244447,0.0603 -0.107556,0.05867 -0.185779,0.176002 h -0.02607 l 0.0065,-0.176002 q 0.109186,-0.09126 0.246077,-0.138519 0.13689,-0.04889 0.291706,-0.04889 0.27541,0 0.400893,0.133631 0.125483,0.132001 0.125483,0.426967 v 0.04074 l -0.01304,0.570376 v 0.09289 q 0,0.135261 0.03096,0.177631 0.03096,0.04237 0.115705,0.04237 0.02281,0 0.03422,0 0.01304,-0.0016 0.02281,-0.0016 l 0.01304,0.06518 -0.0098,0.0033 q -0.169483,0.05052 -0.264002,0.05052 -0.08148,0 -0.125483,-0.044 -0.04237,-0.04563 -0.05867,-0.149927 z"
                 style="font-style:normal;font-variant:normal;font-weight:normal;font-stretch:normal;font-size:medium;line-height:1.25;font-family:'ZapfHumnst BT';-inkscape-font-specification:'ZapfHumnst BT';text-align:start;letter-spacing:0px;word-spacing:0px;text-anchor:start;fill:#000000;fill-opacity:1;stroke:none;stroke-width:0.06257838"
                 id="path1652"
                 inkscape:connector-curvature="0" />
              <path
                 d="m -23.523304,12.305201 q -0.236299,0 -0.366671,0.18578 -0.130371,0.185779 -0.130371,0.521486 0,0.319411 0.120593,0.497042 0.120594,0.177632 0.338967,0.177632 0.242817,0 0.373189,-0.190669 0.132001,-0.192298 0.132001,-0.547561 0,-0.308003 -0.123853,-0.475856 -0.122224,-0.167854 -0.343855,-0.167854 z m 0.464448,1.478089 q 0.0033,-0.07496 0.0049,-0.117335 0.0016,-0.044 0.0016,-0.07985 0,-0.05215 -0.0016,-0.07659 0,-0.02607 -0.0033,-0.04889 -0.09452,0.180891 -0.233039,0.267262 -0.13852,0.08474 -0.337337,0.08474 -0.303114,0 -0.487264,-0.216743 -0.18252,-0.216742 -0.18252,-0.573635 0,-0.376448 0.197187,-0.609487 0.197187,-0.234669 0.510079,-0.234669 0.172742,0 0.303114,0.07659 0.132001,0.07496 0.226521,0.22978 v -0.599709 q 0,-0.158076 -0.0033,-0.308003 -0.0016,-0.151557 -0.0065,-0.296596 0.04889,0.01304 0.08148,0.01793 0.03422,0.0049 0.06193,0.0049 0.02933,0 0.06193,-0.0049 0.03422,-0.0049 0.08148,-0.01793 -0.0081,0.193928 -0.01304,0.448153 -0.0033,0.252595 -0.0033,0.622524 0,0.360152 0.0033,0.717044 0.0049,0.356893 0.01304,0.715415 -0.03585,-0.0081 -0.07007,-0.01141 -0.03259,-0.0049 -0.06519,-0.0049 -0.03259,0 -0.06845,0.0049 -0.03422,0.0033 -0.0717,0.01141 z"
                 style="font-style:normal;font-variant:normal;font-weight:normal;font-stretch:normal;font-size:medium;line-height:1.25;font-family:'ZapfHumnst BT';-inkscape-font-specification:'ZapfHumnst BT';text-align:start;letter-spacing:0px;word-spacing:0px;text-anchor:start;fill:#000000;fill-opacity:1;stroke:none;stroke-width:0.06257838"
                 id="path1654"
                 inkscape:connector-curvature="0" />
              <path
                 d="m -21.465063,12.95543 q -0.436745,0.07333 -0.562227,0.156446 -0.125483,0.08148 -0.125483,0.247706 0,0.151557 0.07659,0.234669 0.07822,0.08148 0.220002,0.08148 0.08311,0 0.174372,-0.03911 0.09289,-0.04074 0.159706,-0.107557 0.02933,-0.02933 0.04237,-0.05867 0.01467,-0.03096 0.01467,-0.08474 v -0.0163 z m -0.0049,0.633932 q -0.105927,0.110816 -0.231409,0.167853 -0.123853,0.05541 -0.265633,0.05541 -0.220002,0 -0.340595,-0.105927 -0.118965,-0.107556 -0.118965,-0.303114 0,-0.177631 0.09452,-0.283558 0.09615,-0.107557 0.291706,-0.151557 0.08311,-0.01793 0.226521,-0.044 0.294966,-0.05378 0.355263,-0.109187 v -0.07007 q 0,-0.22978 -0.08963,-0.332448 -0.088,-0.104297 -0.281928,-0.104297 -0.136891,0 -0.244447,0.0603 -0.107557,0.05867 -0.18578,0.176002 h -0.02607 l 0.0065,-0.176002 q 0.109187,-0.09126 0.246077,-0.138519 0.13689,-0.04889 0.291706,-0.04889 0.275411,0 0.400893,0.133631 0.125483,0.132001 0.125483,0.426967 v 0.04074 l -0.01304,0.570376 v 0.09289 q 0,0.135261 0.03096,0.177631 0.03096,0.04237 0.115705,0.04237 0.02282,0 0.03422,0 0.01304,-0.0016 0.02282,-0.0016 l 0.01304,0.06518 -0.0098,0.0033 q -0.169483,0.05052 -0.264003,0.05052 -0.08148,0 -0.125482,-0.044 -0.04237,-0.04563 -0.05867,-0.149927 z"
                 style="font-style:normal;font-variant:normal;font-weight:normal;font-stretch:normal;font-size:medium;line-height:1.25;font-family:'ZapfHumnst BT';-inkscape-font-specification:'ZapfHumnst BT';text-align:start;letter-spacing:0px;word-spacing:0px;text-anchor:start;fill:#000000;fill-opacity:1;stroke:none;stroke-width:0.06257838"
                 id="path1656"
                 inkscape:connector-curvature="0" />
            </g>
          </g>
        </g>
      </g>
    </g>
  </g>
</svg>
