<?xml version="1.0" encoding="UTF-8" standalone="no"?>
<!-- Created with Inkscape (http://www.inkscape.org/) -->

<svg
   version="1.1"
   id="svg1"
   width="473.66666"
   height="334.25333"
   viewBox="0 0 473.66666 334.25333"
   sodipodi:docname="dash.svg"
   inkscape:version="1.3.2 (091e20ef0f, 2023-11-25)"
   xmlns:inkscape="http://www.inkscape.org/namespaces/inkscape"
   xmlns:sodipodi="http://sodipodi.sourceforge.net/DTD/sodipodi-0.dtd"
   xmlns="http://www.w3.org/2000/svg"
   xmlns:svg="http://www.w3.org/2000/svg">
  <defs
     id="defs1" />
  <sodipodi:namedview
     id="namedview1"
     pagecolor="#ffffff"
     bordercolor="#000000"
     borderopacity="0.25"
     inkscape:showpageshadow="2"
     inkscape:pageopacity="0.0"
     inkscape:pagecheckerboard="0"
     inkscape:deskcolor="#d1d1d1"
     inkscape:zoom="1.6129487"
     inkscape:cx="237.14332"
     inkscape:cy="167.08529"
     inkscape:window-width="1920"
     inkscape:window-height="1011"
     inkscape:window-x="0"
     inkscape:window-y="0"
     inkscape:window-maximized="1"
     inkscape:current-layer="g1">
    <inkscape:page
       x="0"
       y="0"
       inkscape:label="1"
       id="page1"
       width="473.66666"
       height="334.25333"
       margin="0"
       bleed="0" />
  </sodipodi:namedview>
  <g
     id="g1"
     inkscape:groupmode="layer"
     inkscape:label="1">
    <path
       id="path1"
       d="m 46.94247,52.72508 69.50626,88.98041"
       style="fill:none;stroke:#000000;stroke-width:0.797;stroke-linecap:round;stroke-linejoin:round;stroke-miterlimit:10;stroke-dasharray:none;stroke-opacity:1"
       transform="matrix(1.3333333,0,0,-1.3333333,1.2293333,330.70933)" />
    <path
       id="path2"
       d="M 307.3645,109.33347 116.44873,141.70549"
       style="fill:none;stroke:#000000;stroke-width:0.797;stroke-linecap:round;stroke-linejoin:round;stroke-miterlimit:10;stroke-dasharray:none;stroke-opacity:1"
       transform="matrix(1.3333333,0,0,-1.3333333,1.2293333,330.70933)" />
    <path
       id="path3"
       d="m 46.94247,52.72508 v 94.67824"
       style="fill:none;stroke:#000000;stroke-width:0.797;stroke-linecap:round;stroke-linejoin:round;stroke-miterlimit:10;stroke-dasharray:none;stroke-opacity:1"
       transform="matrix(1.3333333,0,0,-1.3333333,1.2293333,330.70933)" />
    <path
       id="path4"
       d="m 237.85825,20.35306 2.38111,3.03296"
       style="fill:none;stroke:#000000;stroke-width:0.797;stroke-linecap:round;stroke-linejoin:round;stroke-miterlimit:10;stroke-dasharray:none;stroke-opacity:1"
       transform="matrix(1.3333333,0,0,-1.3333333,1.2293333,330.70933)" />
    <path
       id="path5"
       d="m 307.3645,109.33347 -2.38112,-3.03295"
       style="fill:none;stroke:#000000;stroke-width:0.797;stroke-linecap:round;stroke-linejoin:round;stroke-miterlimit:10;stroke-dasharray:none;stroke-opacity:1"
       transform="matrix(1.3333333,0,0,-1.3333333,1.2293333,330.70933)" />
    <path
       id="path6"
       d="m 2.4959766,0.13932812 c 1.3710937,0 2.25,-1.44140622 2.25,-3.43359372 0,-2.0390625 -0.9140625,-3.4453125 -2.2148438,-3.4453125 -1.453125,0 -2.29687499,1.5351562 -2.29687499,3.3867187 0,2.015625 0.87890629,3.49218752 2.26171879,3.49218752 z m 0,-6.62109372 c 0.84375,0 1.2890625,1.1367187 1.2890625,3.2109375 0,2.0859375 -0.4335938,3.15234372 -1.2890625,3.15234372 -0.8671875,0 -1.3007813,-1.06640622 -1.3007813,-3.14062502 0,-2.109375 0.4453125,-3.2226562 1.3007813,-3.2226562 z m 0,0"
       style="fill:#000000;fill-opacity:1;fill-rule:nonzero;stroke:none"
       aria-label="0"
       transform="matrix(1.3333333,0,0,1.3333333,311.84,316.46267)" />
    <path
       id="path7"
       d="m 199.6751,26.84459 2.38113,3.00441"
       style="fill:none;stroke:#000000;stroke-width:0.797;stroke-linecap:round;stroke-linejoin:round;stroke-miterlimit:10;stroke-dasharray:none;stroke-opacity:1"
       transform="matrix(1.3333333,0,0,-1.3333333,1.2293333,330.70933)" />
    <path
       id="path8"
       d="m 269.18135,115.79689 -2.38112,-3.03339"
       style="fill:none;stroke:#000000;stroke-width:0.797;stroke-linecap:round;stroke-linejoin:round;stroke-miterlimit:10;stroke-dasharray:none;stroke-opacity:1"
       transform="matrix(1.3333333,0,0,-1.3333333,1.2293333,330.70933)" />
    <path
       id="path9"
       d="m 2.4970078,0.14107031 c 1.3710938,0 2.25,-1.44140621 2.25,-3.43359371 0,-2.0390625 -0.9140625,-3.4453125 -2.2148437,-3.4453125 -1.453125,0 -2.29687504,1.5351562 -2.29687504,3.3867187 0,2.015625 0.87890624,3.49218751 2.26171874,3.49218751 z m 0,-6.62109371 c 0.84375,0 1.2890625,1.1367187 1.2890625,3.2109375 0,2.0859375 -0.4335937,3.15234371 -1.2890625,3.15234371 -0.8671875,0 -1.3007812,-1.06640621 -1.3007812,-3.14062501 0,-2.109375 0.4453125,-3.2226562 1.3007812,-3.2226562 z m 3.7265625,5.48437496 c -0.2929687,0 -0.5390625,0.2578125 -0.5390625,0.5625 0,0.29296875 0.2460938,0.5390625 0.5273438,0.5390625 0.3164062,0 0.5742187,-0.24609375 0.5742187,-0.5390625 0,-0.3046875 -0.2578125,-0.5625 -0.5625,-0.5625 z m 1.5527344,-3.74999996 0.2109375,0.046875 c 0.3984375,-0.984375 0.7617187,-1.3007813 1.4414062,-1.3007813 0.8437496,0 1.4062496,0.5742188 1.4062496,1.40625 0,0.7734375 -0.457031,1.6992188 -1.2890621,2.5898438 L 7.7763047,-0.11674219 V 4.453125e-4 H 11.655211 L 12.205992,-1.3589297 12.077086,-1.4175234 c -0.375,0.57421871 -0.503906,0.65624996 -0.949219,0.65624996 H 8.7489609 L 10.424742,-2.5073672 c 0.878906,-0.9257812 1.265625,-1.6875 1.265625,-2.4609375 0,-0.9960937 -0.796875,-1.7695312 -1.8398436,-1.7695312 -1.6054687,0 -1.9570312,1.5234375 -2.0742187,1.9921875 z m 0,0"
       style="fill:#000000;fill-opacity:1;fill-rule:nonzero;stroke:none"
       aria-label="0.2"
       transform="matrix(1.3333333,0,0,1.3333333,255.948,307.808)" />
    <path
       id="path10"
       d="m 180.59758,30.0761 2.35257,3.03294"
       style="fill:none;stroke:#000000;stroke-width:0.797;stroke-linecap:round;stroke-linejoin:round;stroke-miterlimit:10;stroke-dasharray:none;stroke-opacity:1"
       transform="matrix(1.3333333,0,0,-1.3333333,1.2293333,330.70933)" />
    <path
       id="path11"
       d="m 250.07571,119.02838 -2.35301,-3.00484"
       style="fill:none;stroke:#000000;stroke-width:0.797;stroke-linecap:round;stroke-linejoin:round;stroke-miterlimit:10;stroke-dasharray:none;stroke-opacity:1"
       transform="matrix(1.3333333,0,0,-1.3333333,1.2293333,330.70933)" />
    <path
       id="path12"
       d="m 2.4968828,0.141625 c 1.3710938,0 2.25,-1.4414063 2.25,-3.4335938 0,-2.0390625 -0.9140625,-3.4453125 -2.2148437,-3.4453125 -1.453125,0 -2.29687504,1.5351563 -2.29687504,3.3867188 0,2.015625 0.87890624,3.4921875 2.26171874,3.4921875 z m 0,-6.6210938 c 0.84375,0 1.2890625,1.1367188 1.2890625,3.2109375 0,2.0859375 -0.4335937,3.1523438 -1.2890625,3.1523438 -0.8671875,0 -1.3007812,-1.0664063 -1.3007812,-3.140625 0,-2.109375 0.4453125,-3.2226563 1.3007812,-3.2226563 z m 3.7265625,5.48437505 c -0.2929687,0 -0.5390625,0.2578125 -0.5390625,0.5625 0,0.29296875 0.2460938,0.5390625 0.5273438,0.5390625 0.3164062,0 0.5742187,-0.24609375 0.5742187,-0.5390625 0,-0.3046875 -0.2578125,-0.5625 -0.5625,-0.5625 z m 2.0566406,0.22265625 c -0.234375,0 -0.375,0.140625 -0.375,0.33984375 0,0.3515625 0.421875,0.57421875 1.125,0.57421875 1.5351561,0 2.7421871,-0.890625 2.7421871,-2.3203125 0,-1.0898438 -0.609375,-1.5234375 -1.277343,-1.8164063 0.691406,-0.46875 0.9375,-0.8320312 0.9375,-1.3710937 0,-0.8085938 -0.632813,-1.3710938 -1.5468753,-1.3710938 -1.21875,0 -1.6992188,0.8671875 -1.96875,1.6171875 l 0.1523437,0.035156 C 8.4793047,-5.8115 8.9246172,-6.139625 9.5574297,-6.139625 c 0.6445313,0 1.0898433,0.4453125 1.0898433,1.0664062 0,0.9960938 -0.9023433,1.3945313 -1.6523433,1.6523438 v 0.1289062 c 0.84375,0 2.0625003,0.2226563 2.0625003,1.59375 0,0.8320313 -0.5625,1.47656255 -1.3007816,1.47656255 -0.6445312,0 -0.984375,-0.55078125 -1.4765625,-0.55078125 z m 0,0"
       style="fill:#000000;fill-opacity:1;fill-rule:nonzero;stroke:none"
       aria-label="0.3"
       transform="matrix(1.3333333,0,0,1.3333333,230.51067,303.49867)" />
    <path
       id="path13"
       d="m 142.41443,36.53906 2.35255,3.03296"
       style="fill:none;stroke:#000000;stroke-width:0.797;stroke-linecap:round;stroke-linejoin:round;stroke-miterlimit:10;stroke-dasharray:none;stroke-opacity:1"
       transform="matrix(1.3333333,0,0,-1.3333333,1.2293333,330.70933)" />
    <path
       id="path14"
       d="m 211.89256,125.51949 -2.35301,-3.03296"
       style="fill:none;stroke:#000000;stroke-width:0.797;stroke-linecap:round;stroke-linejoin:round;stroke-miterlimit:10;stroke-dasharray:none;stroke-opacity:1"
       transform="matrix(1.3333333,0,0,-1.3333333,1.2293333,330.70933)" />
    <path
       id="path15"
       d="m 2.4972656,0.1404375 c 1.3710938,0 2.25,-1.4414062 2.25,-3.4335937 0,-2.0390625 -0.9140625,-3.4453125 -2.2148437,-3.4453125 -1.453125,0 -2.29687502,1.5351562 -2.29687502,3.3867187 0,2.015625 0.87890622,3.4921875 2.26171872,3.4921875 z m 0,-6.6210937 c 0.84375,0 1.2890625,1.1367187 1.2890625,3.2109375 0,2.0859375 -0.4335937,3.1523437 -1.2890625,3.1523437 -0.8671875,0 -1.3007812,-1.0664062 -1.3007812,-3.140625 0,-2.109375 0.4453125,-3.2226562 1.3007812,-3.2226562 z m 3.7265625,5.48437495 c -0.2929687,0 -0.5390625,0.2578125 -0.5390625,0.5625 0,0.29296875 0.2460938,0.5390625 0.5273438,0.5390625 0.3164062,0 0.5742187,-0.24609375 0.5742187,-0.5390625 0,-0.3046875 -0.2578125,-0.5625 -0.5625,-0.5625 z M 11.022656,-1.9337812 c 0,0.96093745 -0.597656,1.6992187 -1.3828122,1.6992187 -0.5273438,0 -0.8671875,-0.609375 -1.4179688,-0.609375 -0.2929687,0 -0.4335937,0.1171875 -0.4335937,0.36328125 0,0.375 0.46875,0.62109375 1.21875,0.62109375 1.0546877,0 2.7187497,-0.50390625 2.7187497,-2.5546875 0,-1.546875 -1.019531,-2.2148437 -2.8710935,-2.5429687 l 0.421875,-0.8554688 h 1.9453125 c 0.164063,0 0.199219,-0.011719 0.234375,-0.082031 l 0.375,-0.890625 -0.08203,-0.070312 C 11.596876,-6.644718 11.491407,-6.597843 11.292189,-6.597843 H 9.20625 l -1.0898437,2.3671875 c -0.011719,0.011719 -0.011719,0.023437 -0.011719,0.046875 0,0.046875 0.046875,0.082031 0.1289063,0.082031 0.609375,0 2.7890624,0.3164063 2.7890624,2.1679683 z m 0,0"
       style="fill:#000000;fill-opacity:1;fill-rule:nonzero;stroke:none"
       aria-label="0.5"
       transform="matrix(1.3333333,0,0,1.3333333,179.6,294.844)" />
    <path
       id="path16"
       d="m 104.23126,43.0306 2.35257,3.03295"
       style="fill:none;stroke:#000000;stroke-width:0.797;stroke-linecap:round;stroke-linejoin:round;stroke-miterlimit:10;stroke-dasharray:none;stroke-opacity:1"
       transform="matrix(1.3333333,0,0,-1.3333333,1.2293333,330.70933)" />
    <path
       id="path17"
       d="m 173.70941,131.9829 -2.35301,-3.03339"
       style="fill:none;stroke:#000000;stroke-width:0.797;stroke-linecap:round;stroke-linejoin:round;stroke-miterlimit:10;stroke-dasharray:none;stroke-opacity:1"
       transform="matrix(1.3333333,0,0,-1.3333333,1.2293333,330.70933)" />
    <path
       id="path18"
       d="m 2.4947188,0.14054687 c 1.3710937,0 2.25,-1.44140627 2.25,-3.43359377 0,-2.0390625 -0.9140625,-3.4453125 -2.2148438,-3.4453125 -1.453125,0 -2.296875,1.5351563 -2.296875,3.3867188 0,2.015625 0.8789063,3.49218747 2.2617188,3.49218747 z m 0,-6.62109377 c 0.84375,0 1.2890625,1.1367188 1.2890625,3.2109375 0,2.0859375 -0.4335938,3.15234377 -1.2890625,3.15234377 -0.8671875,0 -1.3007813,-1.06640627 -1.3007813,-3.14062497 0,-2.109375 0.4453125,-3.2226563 1.3007813,-3.2226563 z m 3.7294921,5.48437502 c -0.2929687,0 -0.5390625,0.2578125 -0.5390625,0.5625 0,0.29296875 0.2460938,0.5390625 0.5273438,0.5390625 0.3164062,0 0.5742187,-0.24609375 0.5742187,-0.5390625 0,-0.3046875 -0.2578125,-0.5625 -0.5625,-0.5625 z M 11.94882,-6.5977344 H 8.2574141 l -0.5859375,1.4648438 0.1640625,0.082031 c 0.4335937,-0.6796875 0.609375,-0.8085937 1.1601562,-0.8085937 H 11.163664 L 9.1831953,0.08195312 H 9.8277266 L 11.94882,-6.4336719 Z m 0,0"
       style="fill:#000000;fill-opacity:1;fill-rule:nonzero;stroke:none"
       aria-label="0.7"
       transform="matrix(1.3333333,0,0,1.3333333,128.68933,286.22667)" />
    <path
       id="path19"
       d="m 46.94247,52.72508 2.38113,3.03295"
       style="fill:none;stroke:#000000;stroke-width:0.797;stroke-linecap:round;stroke-linejoin:round;stroke-miterlimit:10;stroke-dasharray:none;stroke-opacity:1"
       transform="matrix(1.3333333,0,0,-1.3333333,1.2293333,330.70933)" />
    <path
       id="path20"
       d="m 116.44873,141.70549 -2.38112,-3.03296"
       style="fill:none;stroke:#000000;stroke-width:0.797;stroke-linecap:round;stroke-linejoin:round;stroke-miterlimit:10;stroke-dasharray:none;stroke-opacity:1"
       transform="matrix(1.3333333,0,0,-1.3333333,1.2293333,330.70933)" />
    <path
       id="path21"
       d="m 1.8282891,-5.9069609 c 0.1992187,0 0.2929687,0.1523437 0.2929687,0.46875 v 4.51171871 c 0,0.64453125 -0.234375,0.76171875 -0.9492187,0.7734375 V -7.109375e-4 H 3.9259453 V -0.15305469 C 3.1407891,-0.16477344 2.9767266,-0.25852344 2.9767266,-0.73899219 V -6.7155547 l -0.082031,-0.023437 -1.7929687,0.9140625 v 0.140625 c 0.3984375,-0.1640625 0.5742187,-0.2226562 0.7265622,-0.2226567 z m 0,0"
       style="fill:#000000;fill-opacity:1;fill-rule:nonzero;stroke:none"
       aria-label="1"
       transform="matrix(1.3333333,0,0,1.3333333,57.324,273.26267)" />
    <path
       id="path22"
       d="m 237.85825,20.35306 -6.49154,1.10557"
       style="fill:none;stroke:#000000;stroke-width:0.797;stroke-linecap:round;stroke-linejoin:round;stroke-miterlimit:10;stroke-dasharray:none;stroke-opacity:1"
       transform="matrix(1.3333333,0,0,-1.3333333,1.2293333,330.70933)" />
    <path
       id="path23"
       d="m 46.94247,52.72508 6.49109,-1.07704"
       style="fill:none;stroke:#000000;stroke-width:0.797;stroke-linecap:round;stroke-linejoin:round;stroke-miterlimit:10;stroke-dasharray:none;stroke-opacity:1"
       transform="matrix(1.3333333,0,0,-1.3333333,1.2293333,330.70933)" />
    <path
       id="path24"
       d="m 4.58225,-3.1877187 c 0,-0.796875 -0.046875,-1.59375 -0.3984375,-2.3320313 -0.4570313,-0.9609375 -1.2773438,-1.1132812 -1.6875,-1.1132812 -0.5976563,0 -1.3359375,0.2578125 -1.734375,1.1835937 -0.328125,0.6914063 -0.375,1.4648438 -0.375,2.2617188 0,0.75 0.046875,1.640625 0.4453125,2.4023437 0.4335937,0.80859375 1.1601562,1.0078125 1.6523437,1.0078125 0.5390625,0 1.2890625,-0.2109375 1.734375,-1.16015625 C 4.535375,-1.629125 4.58225,-2.4025625 4.58225,-3.1877187 Z M 2.4845937,-2.1875e-4 c -0.3867187,0 -0.984375,-0.24609375 -1.1601562,-1.20703125 -0.1054688,-0.5976562 -0.1054688,-1.5117187 -0.1054688,-2.0976562 0,-0.6445313 0,-1.3007813 0.082031,-1.8398438 0.1875,-1.1835937 0.9257812,-1.265625 1.1835937,-1.265625 0.328125,0 0.984375,0.1757813 1.171875,1.1601563 0.09375,0.5625 0.09375,1.3125 0.09375,1.9453125 0,0.75 0,1.4179687 -0.1054687,2.0625 -0.1523438,0.93749995 -0.7148438,1.24218745 -1.160156,1.24218745 z m 0,0"
       style="fill:#000000;fill-opacity:1;fill-rule:nonzero;stroke:none"
       aria-label="0"
       transform="matrix(1.3333333,0,0,1.3333333,324.76533,309.73467)" />
    <path
       id="path25"
       d="m 255.2346,42.60541 -6.49154,1.10556"
       style="fill:none;stroke:#000000;stroke-width:0.797;stroke-linecap:round;stroke-linejoin:round;stroke-miterlimit:10;stroke-dasharray:none;stroke-opacity:1"
       transform="matrix(1.3333333,0,0,-1.3333333,1.2293333,330.70933)" />
    <path
       id="path26"
       d="m 64.31882,74.97742 6.49153,-1.10558"
       style="fill:none;stroke:#000000;stroke-width:0.797;stroke-linecap:round;stroke-linejoin:round;stroke-miterlimit:10;stroke-dasharray:none;stroke-opacity:1"
       transform="matrix(1.3333333,0,0,-1.3333333,1.2293333,330.70933)" />
    <g
       id="g26"
       aria-label="0.25"
       transform="matrix(1.3333333,0,0,1.3333333,347.93467,280.10267)">
      <path
         id="path27"
         d="m 4.5812266,-3.1883281 c 0,-0.796875 -0.046875,-1.59375 -0.3984375,-2.3320313 -0.4570313,-0.9609375 -1.2773438,-1.1132812 -1.6875,-1.1132812 -0.5976563,0 -1.3359375,0.2578125 -1.73437504,1.1835937 -0.328125,0.6914063 -0.375,1.4648438 -0.375,2.2617188 0,0.75 0.046875,1.640625 0.4453125,2.40234373 0.43359374,0.80859375 1.16015624,1.0078125 1.65234374,1.0078125 0.5390625,0 1.2890625,-0.2109375 1.734375,-1.16015625 C 4.5343516,-1.6297344 4.5812266,-2.4031719 4.5812266,-3.1883281 Z M 2.4835703,-8.28125e-4 c -0.3867187,0 -0.984375,-0.246093745 -1.1601562,-1.207031275 -0.1054688,-0.5976562 -0.1054688,-1.5117187 -0.1054688,-2.0976562 0,-0.6445313 0,-1.3007813 0.082031,-1.8398438 0.1875,-1.1835937 0.9257812,-1.265625 1.1835937,-1.265625 0.328125,0 0.984375,0.1757813 1.171875,1.1601563 0.09375,0.5625 0.09375,1.3125 0.09375,1.9453125 0,0.75 0,1.4179687 -0.1054687,2.0625 -0.1523438,0.93749998 -0.7148438,1.242187475 -1.160156,1.242187475 z m 0,0"
         style="fill:#000000;fill-opacity:1;fill-rule:nonzero;stroke:none" />
      <path
         id="path28"
         d="m 6.8898203,-0.52817187 c 0,-0.29296875 -0.234375,-0.52734373 -0.5273437,-0.52734373 -0.28125,0 -0.5273438,0.23437498 -0.5273438,0.52734373 0,0.29296875 0.2460938,0.527343745 0.5273438,0.527343745 0.2929687,0 0.5273437,-0.234374995 0.5273437,-0.527343745 z m 0,0"
         style="fill:#000000;fill-opacity:1;fill-rule:nonzero;stroke:none" />
      <path
         id="path29"
         d="M 9.0138437,-0.76254687 10.068531,-1.7937969 c 1.558594,-1.3710937 2.15625,-1.9101562 2.15625,-2.90625 0,-1.1367187 -0.902344,-1.9335937 -2.121094,-1.9335937 -1.1249995,0 -1.851562,0.9140625 -1.851562,1.8046875 0,0.5507812 0.4921875,0.5507812 0.5273437,0.5507812 0.1640625,0 0.515625,-0.1171875 0.515625,-0.5273437 0,-0.2578125 -0.1875,-0.515625 -0.5273437,-0.515625 -0.082031,0 -0.1054688,0 -0.1289063,0.011719 0.2226563,-0.6445312 0.7617188,-1.0195312 1.3359375,-1.0195312 0.9140628,0 1.3359378,0.8085937 1.3359378,1.6289062 0,0.796875 -0.492188,1.5820313 -1.042969,2.203125 L 8.3575937,-0.36410937 C 8.252125,-0.25864062 8.252125,-0.23520312 8.252125,-8.28125e-4 h 3.691406 l 0.28125,-1.734374975 h -0.257812 c -0.04687,0.3046875 -0.117188,0.73828123 -0.210938,0.89062498 -0.07031,0.0820313 -0.726562,0.0820313 -0.949219,0.0820313 z M 17.20525,-2.0047344 c 0,-1.1835937 -0.820313,-2.1796875 -1.898438,-2.1796875 -0.480468,0 -0.902343,0.1640625 -1.265625,0.5039063 v -1.9335938 c 0.199219,0.058594 0.527344,0.1289063 0.84375,0.1289063 1.230469,0 1.933594,-0.9140625 1.933594,-1.0429688 0,-0.058594 -0.03516,-0.1054687 -0.105469,-0.1054687 -0.01172,0 -0.03516,0 -0.08203,0.023437 -0.199219,0.09375 -0.679687,0.2929687 -1.347656,0.2929687 -0.398438,0 -0.855469,-0.070312 -1.324219,-0.28125 -0.08203,-0.023437 -0.105469,-0.023437 -0.128906,-0.023437 -0.09375,0 -0.09375,0.082031 -0.09375,0.234375 v 2.953125 c 0,0.1757813 0,0.2578125 0.140625,0.2578125 0.07031,0 0.08203,-0.035156 0.128906,-0.09375 0.105469,-0.1523437 0.480469,-0.6914062 1.277344,-0.6914062 0.527344,0 0.773437,0.4570312 0.855469,0.6328125 0.152343,0.375 0.175781,0.7617187 0.175781,1.2539062 0,0.3515625 0,0.9492188 -0.234375,1.37109378 -0.246094,0.38671875 -0.609375,0.64453125 -1.066406,0.64453125 -0.726563,0 -1.300782,-0.52734375 -1.464844,-1.11328123 0.02344,0.011719 0.05859,0.011719 0.164062,0.011719 0.328125,0 0.503907,-0.2460937 0.503907,-0.4804687 0,-0.2460938 -0.175782,-0.4921875 -0.503907,-0.4921875 -0.140625,0 -0.480468,0.070312 -0.480468,0.5273437 0,0.85546878 0.679687,1.82812503 1.792968,1.82812503 1.160157,0 2.179688,-0.9609375 2.179688,-2.22656253 z m 0,0"
         style="fill:#000000;fill-opacity:1;fill-rule:nonzero;stroke:none" />
    </g>
    <path
       id="path30"
       d="m 272.61139,64.82921 -6.49153,1.10556"
       style="fill:none;stroke:#000000;stroke-width:0.797;stroke-linecap:round;stroke-linejoin:round;stroke-miterlimit:10;stroke-dasharray:none;stroke-opacity:1"
       transform="matrix(1.3333333,0,0,-1.3333333,1.2293333,330.70933)" />
    <path
       id="path31"
       d="M 81.69559,97.22934 88.1867,96.1242"
       style="fill:none;stroke:#000000;stroke-width:0.797;stroke-linecap:round;stroke-linejoin:round;stroke-miterlimit:10;stroke-dasharray:none;stroke-opacity:1"
       transform="matrix(1.3333333,0,0,-1.3333333,1.2293333,330.70933)" />
    <g
       id="g31"
       aria-label="0.5"
       transform="matrix(1.3333333,0,0,1.3333333,371.06533,250.43333)">
      <path
         id="path32"
         d="m 4.5828359,-3.1873047 c 0,-0.796875 -0.046875,-1.59375 -0.3984375,-2.3320312 -0.4570312,-0.9609375 -1.2773437,-1.1132813 -1.6875,-1.1132813 -0.5976562,0 -1.3359375,0.2578125 -1.73437496,1.1835938 -0.328125,0.6914062 -0.375,1.4648437 -0.375,2.2617187 0,0.75 0.046875,1.640625 0.4453125,2.40234376 0.43359376,0.80859375 1.16015626,1.0078125 1.65234376,1.0078125 0.5390625,0 1.2890625,-0.2109375 1.734375,-1.16015625 C 4.5359609,-1.6287109 4.5828359,-2.4021484 4.5828359,-3.1873047 Z M 2.4851797,1.953125e-4 c -0.3867188,0 -0.984375,-0.2460937525 -1.1601563,-1.2070312125 -0.1054687,-0.5976563 -0.1054687,-1.5117188 -0.1054687,-2.0976563 0,-0.6445312 0,-1.3007812 0.082031,-1.8398437 0.1875,-1.1835938 0.9257813,-1.265625 1.1835938,-1.265625 0.328125,0 0.984375,0.1757812 1.171875,1.1601562 0.09375,0.5625 0.09375,1.3125 0.09375,1.9453125 0,0.75 0,1.4179688 -0.1054688,2.0625 C 3.4929922,-0.30449219 2.9304922,1.953125e-4 2.4851797,1.953125e-4 Z m 0,0"
         style="fill:#000000;fill-opacity:1;fill-rule:nonzero;stroke:none" />
      <path
         id="path33"
         d="m 6.8914297,-0.52714844 c 0,-0.29296875 -0.234375,-0.52734376 -0.5273438,-0.52734376 -0.28125,0 -0.5273437,0.23437501 -0.5273437,0.52734376 0,0.29296875 0.2460937,0.5273437525 0.5273437,0.5273437525 0.2929688,0 0.5273438,-0.2343750025 0.5273438,-0.5273437525 z m 0,0"
         style="fill:#000000;fill-opacity:1;fill-rule:nonzero;stroke:none" />
      <path
         id="path34"
         d="m 12.223461,-2.0037109 c 0,-1.1835938 -0.820313,-2.1796875 -1.898438,-2.1796875 -0.4804683,0 -0.9023433,0.1640625 -1.2656246,0.5039062 v -1.9335937 c 0.1992188,0.058594 0.5273438,0.1289062 0.84375,0.1289062 1.2304686,0 1.9335936,-0.9140625 1.9335936,-1.0429687 0,-0.058594 -0.03516,-0.1054688 -0.105469,-0.1054688 -0.01172,0 -0.03516,0 -0.08203,0.023437 -0.199219,0.09375 -0.679687,0.2929688 -1.347656,0.2929688 -0.3984376,0 -0.8554688,-0.070312 -1.3242188,-0.28125 -0.082031,-0.023437 -0.1054688,-0.023437 -0.1289063,-0.023437 -0.09375,0 -0.09375,0.082031 -0.09375,0.234375 v 2.953125 c 0,0.1757812 0,0.2578125 0.140625,0.2578125 0.070312,0 0.082031,-0.035156 0.1289063,-0.09375 0.1054687,-0.1523438 0.4804687,-0.6914063 1.2773438,-0.6914063 0.527344,0 0.773437,0.4570313 0.855469,0.6328125 0.152343,0.375 0.175781,0.7617188 0.175781,1.2539063 0,0.3515625 0,0.9492187 -0.234375,1.37109371 -0.246094,0.38671875 -0.609375,0.64453125 -1.066406,0.64453125 -0.7265628,0 -1.3007816,-0.52734375 -1.4648441,-1.11328126 0.023437,0.011719 0.058594,0.011719 0.1640625,0.011719 0.328125,0 0.5039063,-0.2460938 0.5039063,-0.4804688 0,-0.2460937 -0.1757813,-0.4921875 -0.5039063,-0.4921875 -0.140625,0 -0.4804687,0.070312 -0.4804687,0.5273438 0,0.85546871 0.6796875,1.82812496 1.7929683,1.82812496 1.160157,0 2.179688,-0.9609375 2.179688,-2.22656246 z m 0,0"
         style="fill:#000000;fill-opacity:1;fill-rule:nonzero;stroke:none" />
    </g>
    <path
       id="path35"
       d="m 289.98773,87.08156 -6.4911,1.10514"
       style="fill:none;stroke:#000000;stroke-width:0.797;stroke-linecap:round;stroke-linejoin:round;stroke-miterlimit:10;stroke-dasharray:none;stroke-opacity:1"
       transform="matrix(1.3333333,0,0,-1.3333333,1.2293333,330.70933)" />
    <path
       id="path36"
       d="m 99.07196,119.45357 6.49152,-1.10557"
       style="fill:none;stroke:#000000;stroke-width:0.797;stroke-linecap:round;stroke-linejoin:round;stroke-miterlimit:10;stroke-dasharray:none;stroke-opacity:1"
       transform="matrix(1.3333333,0,0,-1.3333333,1.2293333,330.70933)" />
    <g
       id="g36"
       aria-label="0.75"
       transform="matrix(1.3333333,0,0,1.3333333,394.23467,220.80133)">
      <path
         id="path37"
         d="m 4.5818125,-3.1879141 c 0,-0.796875 -0.046875,-1.59375 -0.3984375,-2.3320312 -0.4570313,-0.9609375 -1.2773438,-1.1132813 -1.6875,-1.1132813 -0.5976563,0 -1.3359375,0.2578125 -1.734375,1.1835938 -0.328125,0.6914062 -0.375,1.4648437 -0.375,2.2617187 0,0.75 0.046875,1.640625 0.4453125,2.40234379 0.4335937,0.80859375 1.1601562,1.0078125 1.6523437,1.0078125 0.5390625,0 1.2890625,-0.2109375 1.734375,-1.16015625 C 4.5349375,-1.6293203 4.5818125,-2.4027578 4.5818125,-3.1879141 Z M 2.4841562,-4.140625e-4 C 2.0974375,-4.140625e-4 1.4997812,-0.24650781 1.324,-1.2074453 1.2185312,-1.8051016 1.2185312,-2.7191641 1.2185312,-3.3051016 c 0,-0.6445312 0,-1.3007812 0.082031,-1.8398437 0.1875,-1.1835938 0.9257812,-1.265625 1.1835937,-1.265625 0.328125,0 0.984375,0.1757812 1.171875,1.1601562 0.09375,0.5625 0.09375,1.3125 0.09375,1.9453125 0,0.75 0,1.4179688 -0.1054687,2.0625 -0.1523438,0.93750004 -0.7148438,1.2421875375 -1.160156,1.2421875375 z m 0,0"
         style="fill:#000000;fill-opacity:1;fill-rule:nonzero;stroke:none" />
      <path
         id="path38"
         d="m 6.8904062,-0.52775781 c 0,-0.29296875 -0.234375,-0.52734379 -0.5273437,-0.52734379 -0.28125,0 -0.5273438,0.23437504 -0.5273438,0.52734379 0,0.29296875 0.2460938,0.5273437475 0.5273438,0.5273437475 0.2929687,0 0.5273437,-0.2343749975 0.5273437,-0.5273437475 z m 0,0"
         style="fill:#000000;fill-opacity:1;fill-rule:nonzero;stroke:none" />
      <path
         id="path39"
         d="m 12.494898,-6.0707266 c 0.08203,-0.1171875 0.08203,-0.140625 0.08203,-0.3398437 h -2.414063 c -1.2187498,0 -1.2421873,-0.1289063 -1.2773436,-0.328125 H 8.6394297 l -0.328125,2.0507812 h 0.2460937 c 0.023437,-0.1523437 0.1171875,-0.7851562 0.2460938,-0.9023437 0.070312,-0.058594 0.84375,-0.058594 0.9726562,-0.058594 h 2.0624996 c -0.105468,0.1640625 -0.890625,1.2421875 -1.113281,1.5703125 -0.8906248,1.3476563 -1.2187498,2.7304688 -1.2187498,3.75000004 0,0.09375 0,0.55078125 0.4570312,0.55078125 0.4570316,0 0.4570316,-0.45703125 0.4570316,-0.55078125 v -0.50390625 c 0,-0.55078129 0.02344,-1.10156249 0.105468,-1.64062499 0.04687,-0.2226563 0.175782,-1.078125 0.621094,-1.6992188 z m 4.710938,4.0664063 c 0,-1.1835938 -0.820313,-2.1796875 -1.898438,-2.1796875 -0.480468,0 -0.902343,0.1640625 -1.265625,0.5039062 v -1.9335937 c 0.199219,0.058594 0.527344,0.1289062 0.84375,0.1289062 1.230469,0 1.933594,-0.9140625 1.933594,-1.0429687 0,-0.058594 -0.03516,-0.1054688 -0.105469,-0.1054688 -0.01172,0 -0.03516,0 -0.08203,0.023437 -0.199219,0.09375 -0.679687,0.2929688 -1.347656,0.2929688 -0.398438,0 -0.855469,-0.070312 -1.324219,-0.28125 -0.08203,-0.023437 -0.105469,-0.023437 -0.128906,-0.023437 -0.09375,0 -0.09375,0.082031 -0.09375,0.234375 v 2.953125 c 0,0.1757812 0,0.2578125 0.140625,0.2578125 0.07031,0 0.08203,-0.035156 0.128906,-0.09375 0.105469,-0.1523438 0.480469,-0.6914063 1.277344,-0.6914063 0.527344,0 0.773437,0.4570313 0.855469,0.6328125 0.152343,0.375 0.175781,0.7617188 0.175781,1.2539063 0,0.3515625 0,0.9492187 -0.234375,1.37109374 -0.246094,0.38671875 -0.609375,0.64453125 -1.066406,0.64453125 -0.726563,0 -1.300782,-0.52734375 -1.464844,-1.11328129 0.02344,0.011719 0.05859,0.011719 0.164062,0.011719 0.328125,0 0.503907,-0.2460938 0.503907,-0.4804688 0,-0.2460937 -0.175782,-0.4921875 -0.503907,-0.4921875 -0.140625,0 -0.480468,0.070312 -0.480468,0.5273438 0,0.85546874 0.679687,1.82812499 1.792968,1.82812499 1.160157,0 2.179688,-0.9609375 2.179688,-2.22656249 z m 0,0"
         style="fill:#000000;fill-opacity:1;fill-rule:nonzero;stroke:none" />
    </g>
    <path
       id="path40"
       d="m 307.3645,109.33347 -6.49153,1.07746"
       style="fill:none;stroke:#000000;stroke-width:0.797;stroke-linecap:round;stroke-linejoin:round;stroke-miterlimit:10;stroke-dasharray:none;stroke-opacity:1"
       transform="matrix(1.3333333,0,0,-1.3333333,1.2293333,330.70933)" />
    <path
       id="path41"
       d="m 116.44873,141.70549 6.49153,-1.10513"
       style="fill:none;stroke:#000000;stroke-width:0.797;stroke-linecap:round;stroke-linejoin:round;stroke-miterlimit:10;stroke-dasharray:none;stroke-opacity:1"
       transform="matrix(1.3333333,0,0,-1.3333333,1.2293333,330.70933)" />
    <path
       id="path42"
       d="m 2.9284453,-6.3743906 c 0,-0.234375 0,-0.2578125 -0.234375,-0.2578125 -0.609375,0.6328125 -1.4882812,0.6328125 -1.80468749,0.6328125 v 0.3164062 c 0.19921879,0 0.78515629,0 1.30078129,-0.2578125 v 5.15625002 c 0,0.3515625 -0.035156,0.48046875 -0.9257813,0.48046875 H 0.94797656 V 6.09375e-4 C 1.2995391,-0.03454688 2.1550078,-0.03454688 2.5534453,-0.03454688 c 0.3984375,0 1.265625,0 1.6171875,0.035156255 V -0.30407813 H 3.8542266 c -0.9023438,0 -0.9257813,-0.1171875 -0.9257813,-0.48046875 z m 0,0"
       style="fill:#000000;fill-opacity:1;fill-rule:nonzero;stroke:none"
       aria-label="1"
       transform="matrix(1.3333333,0,0,1.3333333,417.404,191.132)" />
    <path
       id="path43"
       d="m 46.94247,52.72508 h 5.10221"
       style="fill:none;stroke:#000000;stroke-width:0.797;stroke-linecap:round;stroke-linejoin:round;stroke-miterlimit:10;stroke-dasharray:none;stroke-opacity:1"
       transform="matrix(1.3333333,0,0,-1.3333333,1.2293333,330.70933)" />
    <path
       id="path44"
       d="m 4.5819922,-3.1869062 c 0,-0.796875 -0.046875,-1.59375 -0.3984375,-2.3320313 -0.4570313,-0.9609375 -1.2773438,-1.1132812 -1.6875,-1.1132812 -0.5976563,0 -1.3359375,0.2578125 -1.73437501,1.1835937 -0.328125,0.6914063 -0.375,1.4648438 -0.375,2.2617188 0,0.75 0.046875,1.640625 0.4453125,2.4023437 C 1.2655859,0.02403125 1.9921484,0.22325 2.4843359,0.22325 c 0.5390625,0 1.2890625,-0.2109375 1.734375,-1.16015625 C 4.5351172,-1.6283125 4.5819922,-2.40175 4.5819922,-3.1869062 Z M 2.4843359,5.9375e-4 c -0.3867187,0 -0.984375,-0.24609375 -1.1601562,-1.20703125 -0.1054688,-0.5976562 -0.1054688,-1.5117187 -0.1054688,-2.0976562 0,-0.6445313 0,-1.3007813 0.082031,-1.8398438 0.1875,-1.1835937 0.9257812,-1.265625 1.1835937,-1.265625 0.328125,0 0.984375,0.1757813 1.171875,1.1601563 0.09375,0.5625 0.09375,1.3125 0.09375,1.9453125 0,0.75 0,1.4179687 -0.1054687,2.0625 C 3.4921484,-0.30409375 2.9296484,5.9375e-4 2.4843359,5.9375e-4 Z m 0,0"
       style="fill:#000000;fill-opacity:1;fill-rule:nonzero;stroke:none"
       aria-label="0"
       transform="matrix(1.3333333,0,0,1.3333333,49.613333,264.07733)" />
    <path
       id="path45"
       d="m 46.94247,66.86992 h 5.10221"
       style="fill:none;stroke:#000000;stroke-width:0.797;stroke-linecap:round;stroke-linejoin:round;stroke-miterlimit:10;stroke-dasharray:none;stroke-opacity:1"
       transform="matrix(1.3333333,0,0,-1.3333333,1.2293333,330.70933)" />
    <path
       id="path46"
       d="m 2.9296484,-6.3739375 c 0,-0.234375 0,-0.2578125 -0.234375,-0.2578125 -0.609375,0.6328125 -1.4882812,0.6328125 -1.80468746,0.6328125 v 0.3164062 c 0.19921876,0 0.78515626,0 1.30078126,-0.2578125 v 5.15625005 c 0,0.3515625 -0.035156,0.48046875 -0.9257813,0.48046875 H 0.94917969 V 0.0010625 C 1.3007422,-0.03409375 2.1562109,-0.03409375 2.5546484,-0.03409375 c 0.3984375,0 1.265625,0 1.6171875,0.03515625 V -0.303625 H 3.8554297 c -0.9023438,0 -0.9257813,-0.1171875 -0.9257813,-0.48046875 z m 0,0"
       style="fill:#000000;fill-opacity:1;fill-rule:nonzero;stroke:none"
       aria-label="1"
       transform="matrix(1.3333333,0,0,1.3333333,49.613333,245.21733)" />
    <path
       id="path47"
       d="m 46.94247,80.98666 h 5.10221"
       style="fill:none;stroke:#000000;stroke-width:0.797;stroke-linecap:round;stroke-linejoin:round;stroke-miterlimit:10;stroke-dasharray:none;stroke-opacity:1"
       transform="matrix(1.3333333,0,0,-1.3333333,1.2293333,330.70933)" />
    <path
       id="path48"
       d="M 1.2655859,-0.76182031 2.3202734,-1.7930703 c 1.5585938,-1.3710938 2.15625,-1.9101563 2.15625,-2.90625 0,-1.1367188 -0.9023437,-1.9335938 -2.1210937,-1.9335938 -1.125,0 -1.85156251,0.9140625 -1.85156251,1.8046875 0,0.5507813 0.4921875,0.5507813 0.52734371,0.5507813 0.1640625,0 0.515625,-0.1171875 0.515625,-0.5273438 0,-0.2578125 -0.1875,-0.515625 -0.5273437,-0.515625 -0.0820313,0 -0.10546876,0 -0.12890626,0.011719 0.22265626,-0.6445313 0.76171876,-1.0195313 1.33593746,-1.0195313 0.9140625,0 1.3359375,0.8085938 1.3359375,1.6289063 0,0.796875 -0.4921875,1.5820312 -1.0429687,2.203125 L 0.60933594,-0.36338281 C 0.50386719,-0.25791406 0.50386719,-0.23447656 0.50386719,-1.015625e-4 H 4.1952734 L 4.4765234,-1.7344766 H 4.2187109 c -0.046875,0.3046875 -0.1171875,0.73828129 -0.2109375,0.89062504 -0.070312,0.0820313 -0.7265625,0.0820313 -0.9492187,0.0820313 z m 0,0"
       style="fill:#000000;fill-opacity:1;fill-rule:nonzero;stroke:none"
       aria-label="2"
       transform="matrix(1.3333333,0,0,1.3333333,49.613333,226.39467)" />
    <path
       id="path49"
       d="m 46.94247,95.13196 h 5.10221"
       style="fill:none;stroke:#000000;stroke-width:0.797;stroke-linecap:round;stroke-linejoin:round;stroke-miterlimit:10;stroke-dasharray:none;stroke-opacity:1"
       transform="matrix(1.3333333,0,0,-1.3333333,1.2293333,330.70933)" />
    <path
       id="path50"
       d="m 2.8944922,-3.5045391 c 0.8085937,-0.2695312 1.3945312,-0.9726562 1.3945312,-1.7578125 0,-0.8203125 -0.8789062,-1.3710937 -1.8398437,-1.3710937 -1.0078125,0 -1.75781251,0.5976562 -1.75781251,1.3476562 0,0.3398438 0.2109375,0.5273438 0.50390621,0.5273438 0.3046875,0 0.5039063,-0.2226563 0.5039063,-0.515625 0,-0.4921875 -0.46875,-0.4921875 -0.609375,-0.4921875 0.3046875,-0.4921875 0.9609375,-0.6210938 1.3242187,-0.6210938 0.4101563,0 0.9492188,0.2226563 0.9492188,1.1132813 0,0.1289062 -0.011719,0.703125 -0.2695313,1.1367187 -0.3046875,0.4804688 -0.6445312,0.515625 -0.890625,0.515625 -0.082031,0.011719 -0.3164062,0.035156 -0.3867187,0.035156 -0.082031,0.011719 -0.1523438,0.023437 -0.1523438,0.1171875 0,0.1171875 0.070312,0.1171875 0.234375,0.1171875 h 0.4453125 c 0.8085938,0 1.1835938,0.6679687 1.1835938,1.6523437 0,1.34765629 -0.6914063,1.64062504 -1.125,1.64062504 -0.4335938,0 -1.171875,-0.17578125 -1.52343751,-0.76171875 0.35156251,0.0585938 0.65625001,-0.1640625 0.65625001,-0.53906249 0,-0.3632813 -0.2695313,-0.5625 -0.56250001,-0.5625 -0.234375,0 -0.55078125,0.140625 -0.55078125,0.5742187 0,0.91406254 0.92578126,1.57031254 2.00390626,1.57031254 1.21875,0 2.1210937,-0.9140625 2.1210937,-1.92187504 0,-0.8203125 -0.6210937,-1.59375 -1.6523437,-1.8046872 z m 0,0"
       style="fill:#000000;fill-opacity:1;fill-rule:nonzero;stroke:none"
       aria-label="3"
       transform="matrix(1.3333333,0,0,1.3333333,49.613333,207.536)" />
    <path
       id="path51"
       d="m 46.94247,109.2487 h 5.10221"
       style="fill:none;stroke:#000000;stroke-width:0.797;stroke-linecap:round;stroke-linejoin:round;stroke-miterlimit:10;stroke-dasharray:none;stroke-opacity:1"
       transform="matrix(1.3333333,0,0,-1.3333333,1.2293333,330.70933)" />
    <path
       id="path52"
       d="m 2.9296484,-1.6394922 v 0.86718751 c 0,0.3515625 -0.023437,0.46875 -0.7617187,0.46875 H 1.9569922 v 0.3046875 c 0.4101562,-0.03515625 0.9375,-0.03515625 1.3476562,-0.03515625 0.421875,0 0.9492188,0 1.359375,0.03515625 v -0.3046875 H 4.4530859 c -0.7382812,0 -0.7617187,-0.1171875 -0.7617187,-0.46875 V -1.6394922 H 4.6874609 V -1.9558984 H 3.6913672 v -4.5234375 c 0,-0.1992188 0,-0.2578125 -0.1523438,-0.2578125 -0.09375,0 -0.1171875,0 -0.1992187,0.1171875 l -3.05859376,4.6640625 v 0.3164062 z m 0.058594,-0.3164062 H 0.56246094 L 2.9882422,-5.6707422 Z m 0,0"
       style="fill:#000000;fill-opacity:1;fill-rule:nonzero;stroke:none"
       aria-label="4"
       transform="matrix(1.3333333,0,0,1.3333333,49.613333,188.71333)" />
    <path
       id="path53"
       d="m 46.94247,123.39355 h 5.10221"
       style="fill:none;stroke:#000000;stroke-width:0.797;stroke-linecap:round;stroke-linejoin:round;stroke-miterlimit:10;stroke-dasharray:none;stroke-opacity:1"
       transform="matrix(1.3333333,0,0,-1.3333333,1.2293333,330.70933)" />
    <path
       id="path54"
       d="m 4.4765234,-2.0042344 c 0,-1.1835937 -0.8203125,-2.1796875 -1.8984375,-2.1796875 -0.4804687,0 -0.9023437,0.1640625 -1.265625,0.5039063 v -1.9335938 c 0.1992188,0.058594 0.5273438,0.1289063 0.84375,0.1289063 1.2304688,0 1.9335938,-0.9140625 1.9335938,-1.0429688 0,-0.058594 -0.035156,-0.1054687 -0.1054688,-0.1054687 -0.011719,0 -0.035156,0 -0.082031,0.023437 -0.1992188,0.09375 -0.6796875,0.2929687 -1.3476563,0.2929687 -0.3984375,0 -0.8554687,-0.070312 -1.3242187,-0.28125 -0.082031,-0.023437 -0.1054688,-0.023437 -0.1289063,-0.023437 -0.09375,0 -0.09375,0.082031 -0.09375,0.234375 v 2.953125 c 0,0.1757813 0,0.2578125 0.140625,0.2578125 0.070312,0 0.082031,-0.035156 0.1289063,-0.09375 0.1054687,-0.1523437 0.4804687,-0.6914062 1.2773437,-0.6914062 0.5273438,0 0.7734375,0.4570312 0.8554688,0.6328125 0.1523437,0.375 0.1757812,0.7617187 0.1757812,1.2539062 0,0.3515625 0,0.9492188 -0.234375,1.37109377 -0.2460937,0.38671875 -0.609375,0.64453125 -1.0664062,0.64453125 -0.7265625,0 -1.30078126,-0.52734375 -1.46484376,-1.11328122 0.0234375,0.011719 0.0585938,0.011719 0.1640625,0.011719 0.32812496,0 0.50390626,-0.2460937 0.50390626,-0.4804687 0,-0.2460938 -0.1757813,-0.4921875 -0.50390626,-0.4921875 -0.140625,0 -0.48046875,0.070312 -0.48046875,0.5273437 0,0.85546877 0.67968751,1.82812502 1.79296871,1.82812502 1.1601563,0 2.1796875,-0.9609375 2.1796873,-2.22656282 z m 0,0"
       style="fill:#000000;fill-opacity:1;fill-rule:nonzero;stroke:none"
       aria-label="5"
       transform="matrix(1.3333333,0,0,1.3333333,49.613333,169.852)" />
    <path
       id="path55"
       d="m 46.94247,137.5103 h 5.10221"
       style="fill:none;stroke:#000000;stroke-width:0.797;stroke-linecap:round;stroke-linejoin:round;stroke-miterlimit:10;stroke-dasharray:none;stroke-opacity:1"
       transform="matrix(1.3333333,0,0,-1.3333333,1.2293333,330.70933)" />
    <path
       id="path56"
       d="m 1.3124609,-3.2707266 v -0.234375 c 0,-2.5195312 1.2421875,-2.8828125 1.7460938,-2.8828125 0.234375,0 0.65625,0.058594 0.8789062,0.3984375 -0.1523437,0 -0.5507812,0 -0.5507812,0.4453125 0,0.3164063 0.234375,0.4570313 0.4570312,0.4570313 0.1640625,0 0.4570313,-0.082031 0.4570313,-0.46875 0,-0.5976563 -0.4335938,-1.078125 -1.265625,-1.078125 -1.2773438,0 -2.61328126,1.2890625 -2.61328126,3.4804687 0,2.66015629 1.14843746,3.37500004 2.07421876,3.37500004 1.1132812,0 2.0507812,-0.9375 2.0507812,-2.25000004 0,-1.265625 -0.8789062,-2.2265625 -1.9921875,-2.2265625 -0.6679687,0 -1.0429687,0.5039063 -1.2421875,0.984375 z m 1.1835938,3.21093754 c -0.6210938,0 -0.9257813,-0.59765625 -0.984375,-0.75 C 1.3358984,-1.2785391 1.3358984,-2.0754141 1.3358984,-2.2511953 c 0,-0.7734375 0.3164063,-1.7695313 1.21875,-1.7695313 0.1523438,0 0.609375,0 0.9257813,0.609375 0.1757812,0.375 0.1757812,0.8789063 0.1757812,1.3710938 0,0.4804687 0,0.9726562 -0.1640625,1.33593749 -0.3046875,0.59765625 -0.7617187,0.64453125 -0.9960937,0.64453125 z m 0,0"
       style="fill:#000000;fill-opacity:1;fill-rule:nonzero;stroke:none"
       aria-label="6"
       transform="matrix(1.3333333,0,0,1.3333333,49.613333,151.068)" />
    <path
       id="path57"
       d="m 6.4689453,-5.7529219 c 0,-1.734375 -1.8398437,-2.15625 -3.1289062,-2.15625 H 0.17597656 v 0.2226563 c 0.89062504,0.09375 1.00781254,0.2109375 1.00781254,1.078125 v 5.1796875 c 0,0.99609372 -0.09375,1.11328122 -1.00781254,1.20703122 V 9.84375e-4 H 3.5275391 V -0.22167188 c -0.9492188,-0.0351563 -1.125,-0.2109375 -1.125,-1.07812502 v -2.1796875 c 0.3164062,0.023437 0.515625,0.035156 0.8203125,0.035156 2.7539062,0 3.2460937,-1.3828125 3.2460937,-2.3085935 z m -4.0664062,-1.3125 c 0,-0.3164062 0.082031,-0.4101562 0.4101562,-0.4101562 1.6054688,0 2.3554688,0.5625 2.3554688,1.7929687 0,1.1601563 -0.7148438,1.7578125 -2.0859375,1.7578125 -0.234375,0 -0.4101563,-0.011719 -0.6796875,-0.035156 z m 12.5800779,0.2226563 v 5.4140625 c 0,0.98437497 -0.152344,1.14843747 -1.089844,1.20703122 V 9.84375e-4 h 3.339844 V -0.22167188 c -0.867187,-0.0585938 -1.03125,-0.234375 -1.03125,-1.07812502 v -5.3085937 c 0,-0.84375 0.152344,-1.0078125 1.03125,-1.078125 V -7.9091719 H 14.853711 L 12.216992,-1.8740156 9.4513672,-7.9091719 H 7.0841797 v 0.2226563 c 0.984375,0.058594 1.1367187,0.1992187 1.1367187,1.078125 v 4.8515625 c 0,1.23046872 -0.1640625,1.45312497 -1.1601562,1.53515622 V 9.84375e-4 h 2.8125 V -0.22167188 c -0.9257813,-0.046875 -1.125,-0.328125 -1.125,-1.53515622 V -6.5732344 L 11.748242,9.84375e-4 h 0.164063 z m 0,0"
       style="fill:#012030;fill-opacity:1;fill-rule:nonzero;stroke:none"
       aria-label="PM"
       transform="matrix(1.3333333,0,0,1.3333333,72.933333,131.944)" />
    <path
       id="path58"
       d="M 46.97058,52.75319 64.34737,75.00554 207.49884,50.71246 237.85825,20.38118 Z"
       style="fill:#f2d57e;fill-opacity:1;fill-rule:nonzero;stroke:#f2d57e;stroke-width:0.03984;stroke-linecap:round;stroke-linejoin:round;stroke-miterlimit:10;stroke-dasharray:none;stroke-opacity:1;opacity:0.4"
       transform="matrix(1.3333333,0,0,-1.3333333,1.2293333,330.70933)" />
    <path
       id="path59"
       d="M 64.34737,75.00554 207.49884,50.71246"
       style="fill:none;stroke:#000000;stroke-width:0.797;stroke-linecap:round;stroke-linejoin:round;stroke-miterlimit:10;stroke-dasharray:0.797, 2.24158;stroke-dashoffset:0;stroke-opacity:1"
       transform="matrix(1.3333333,0,0,-1.3333333,1.2293333,330.70933)" />
    <path
       id="path60"
       d="M 207.49884,50.71246 237.85825,20.38118"
       style="fill:none;stroke:#000000;stroke-width:0.797;stroke-linecap:round;stroke-linejoin:round;stroke-miterlimit:10;stroke-dasharray:none;stroke-opacity:1"
       transform="matrix(1.3333333,0,0,-1.3333333,1.2293333,330.70933)" />
    <path
       id="path61"
       d="M 116.47684,141.70549 64.34737,75.00554 207.49884,50.71246 l 52.12947,66.72852 z"
       style="fill:#bf4f45;fill-opacity:1;fill-rule:nonzero;stroke:#bf4f45;stroke-width:0.03984;stroke-linecap:round;stroke-linejoin:round;stroke-miterlimit:10;stroke-dasharray:none;stroke-opacity:1;opacity:0.4"
       transform="matrix(1.3333333,0,0,-1.3333333,1.2293333,330.70933)" />
    <path
       id="path62"
       d="m 237.85825,20.38118 -30.35941,30.33128 52.12947,66.72852 47.73619,-8.07897 z"
       style="fill:#f2935c;fill-opacity:1;fill-rule:nonzero;stroke:#f2935c;stroke-width:0.03984;stroke-linecap:round;stroke-linejoin:round;stroke-miterlimit:10;stroke-dasharray:none;stroke-opacity:1;opacity:0.4"
       transform="matrix(1.3333333,0,0,-1.3333333,1.2293333,330.70933)" />
    <path
       id="path63"
       d="m 207.49884,50.71246 52.12947,66.72852"
       style="fill:none;stroke:#000000;stroke-width:0.797;stroke-linecap:round;stroke-linejoin:round;stroke-miterlimit:10;stroke-dasharray:0.797, 2.24158;stroke-dashoffset:0;stroke-opacity:1"
       transform="matrix(1.3333333,0,0,-1.3333333,1.2293333,330.70933)" />
    <path
       id="path64"
       d="m 259.62831,117.44098 v 1.41699 l -0.0281,18.34047 v 5.66928 l -0.0285,2.83484 -0.0281,4.22374 -0.0285,1.41743 -0.0281,1.41742 v 1.417 l -0.0571,1.41743 v 1.41742 l -0.0567,1.41744 -0.0281,1.41741 -0.0567,1.44556 -0.0567,1.41742 -0.0852,1.41699 -0.0848,1.41744 -0.0852,1.44597 -0.0285,0.28331 v 0.14187 0.0281 h -0.0567 l -0.0281,0.0285 -18.31236,9.46783 -19.10564,9.41117 -19.10564,9.15594 -19.07752,8.98598 -19.07708,8.90079 -19.07753,8.81597 -19.10564,8.7589 -9.52491,4.3656 v -93.62976 l 143.15147,-24.26451 z"
       style="fill:#bf4f45;fill-opacity:1;fill-rule:nonzero;stroke:#bf4f45;stroke-width:0.03984;stroke-linecap:round;stroke-linejoin:round;stroke-miterlimit:10;stroke-dasharray:none;stroke-opacity:1;opacity:0.7"
       transform="matrix(1.3333333,0,0,-1.3333333,1.2293333,330.70933)" />
    <path
       id="path65"
       d="m 259.62831,117.44098 v 1.41699 l -0.0281,18.34047 v 5.66928 l -0.0285,2.83484 -0.0281,4.22374 -0.0285,1.41743 -0.0281,1.41742 v 1.417 l -0.0571,1.41743 v 1.41742 l -0.0567,1.41744 -0.0281,1.41741 -0.0567,1.44556 -0.0567,1.41742 -0.0852,1.41699 -0.0848,1.41744 -0.0852,1.44597 -0.0285,0.28331 v 0.14187 0.0281 0 h 0.11375 l 0.56662,0.0852 9.55304,1.41744 19.07752,2.7211 19.10563,2.57965 V 109.362 l -47.73619,8.07897 z"
       style="fill:#f2935c;fill-opacity:1;fill-rule:nonzero;stroke:#f2935c;stroke-width:0.03984;stroke-linecap:round;stroke-linejoin:round;stroke-miterlimit:10;stroke-dasharray:none;stroke-opacity:1;opacity:0.7"
       transform="matrix(1.3333333,0,0,-1.3333333,1.2293333,330.70933)" />
    <path
       id="path66"
       d="m 64.34737,75.00554 v 2.83484 19.78602 2.83486 l 0.0281,2.83442 v 2.83486 1.41742 1.41701 l 0.02855,1.44596 v 1.41742 l 0.02812,1.44555 0.02854,4.28039 -0.02854,-1.44597 v -1.44554 l -0.02812,-1.41743 0.05666,5.72638 0.02812,1.44554 0.02855,1.44554 0.02812,1.44598 0.02855,1.44554 0.02855,0.31185 v 0.14189 0.0281 l -0.2552,-0.11335 -3.4867,-1.4174 -6.94525,-2.94818 -6.94484,-3.06153 V 52.75318 l 17.37679,22.25235 z"
       style="fill:#f2d57e;fill-opacity:1;fill-rule:nonzero;stroke:#f2d57e;stroke-width:0.03984;stroke-linecap:round;stroke-linejoin:round;stroke-miterlimit:10;stroke-dasharray:none;stroke-opacity:1;opacity:0.7"
       transform="matrix(1.3333333,0,0,-1.3333333,1.2293333,330.70933)" />
    <path
       id="path67"
       d="m 64.34737,75.00554 v 2.83484 19.78602 2.83486 l 0.0281,2.83442 v 2.83486 1.41742 1.41701 l 0.02855,1.44596 v 1.41742 l 0.02812,1.44555 0.02854,4.28039 -0.02854,-1.44597 v -1.44554 l -0.02812,-1.41743 0.05666,5.72638 0.02812,1.44554 0.02855,1.44554 0.02812,1.44598 0.02855,1.44554 0.02855,0.31185 v 0.14189 0.0281 l 0.02811,0.0566 0.39706,0.93559 2.80631,6.23632 6.94483,15.25042 6.94483,14.91047 6.94527,14.74044 6.94484,14.59861 6.94482,14.51338 6.94526,14.45714 6.97294,14.40005 V 141.70543 L 64.34737,75.00548 Z"
       style="fill:#bf4f45;fill-opacity:1;fill-rule:nonzero;stroke:#bf4f45;stroke-width:0.03984;stroke-linecap:round;stroke-linejoin:round;stroke-miterlimit:10;stroke-dasharray:none;stroke-opacity:1;opacity:0.7"
       transform="matrix(1.3333333,0,0,-1.3333333,1.2293333,330.70933)" />
    <path
       id="path68"
       d="m 64.60257,125.23618 -0.2552,-0.11335 -3.4867,-1.4174 -6.94525,-2.94818 -6.94484,-3.06153"
       style="fill:none;stroke:#011526;stroke-width:0.797;stroke-linecap:round;stroke-linejoin:round;stroke-miterlimit:10;stroke-dasharray:none;stroke-opacity:1"
       transform="matrix(1.3333333,0,0,-1.3333333,1.2293333,330.70933)" />
    <path
       id="path69"
       d="m 64.34737,75.00554 v 2.83484 19.78602 2.83486 l 0.0281,2.83442 v 2.83486 1.41742 1.41701 l 0.02855,1.44596 v 1.41742 1.417 l 0.05666,5.72638 0.02812,1.44554 0.02855,1.44554 0.02812,1.44598 0.02855,1.44554 0.02855,0.31185 v 0.14189"
       style="fill:none;stroke:#011526;stroke-width:0.797;stroke-linecap:round;stroke-linejoin:round;stroke-miterlimit:10;stroke-dasharray:0.797, 2.24158;stroke-dashoffset:0;stroke-opacity:1"
       transform="matrix(1.3333333,0,0,-1.3333333,1.2293333,330.70933)" />
    <path
       id="path70"
       d="m 64.60257,125.23618 0.02811,0.0566 0.39706,0.93559 2.80631,6.23632 6.94483,15.25042 6.94483,14.91047 6.94527,14.74044 6.94484,14.59861 6.94482,14.51338 6.94526,14.45714 6.97294,14.40005"
       style="fill:none;stroke:#011526;stroke-width:0.797;stroke-linecap:round;stroke-linejoin:round;stroke-miterlimit:10;stroke-dasharray:none;stroke-opacity:1"
       transform="matrix(1.3333333,0,0,-1.3333333,1.2293333,330.70933)" />
    <path
       id="path71"
       d="m 121.63615,65.28252 v 1.41742 9.893 4.25229 1.44554 l 0.0285,1.41742 v 1.41744 l 0.0281,1.44554 v 1.41742 l 0.0286,1.44554 0.0281,1.44555 0.0285,1.47408 0.0567,1.47409 0.0567,1.47409 0.0848,1.53076 0.11375,1.55886 0.0848,0.82226 0.14189,0.11333 -0.68039,-0.28333 -3.48669,-1.36075 -6.94482,-2.91963 -6.94527,-3.03338 V 43.05872 l 17.37678,22.2238 z"
       style="fill:#f2d57e;fill-opacity:1;fill-rule:nonzero;stroke:#f2d57e;stroke-width:0.03984;stroke-linecap:round;stroke-linejoin:round;stroke-miterlimit:10;stroke-dasharray:none;stroke-opacity:1;opacity:0.7"
       transform="matrix(1.3333333,0,0,-1.3333333,1.2293333,330.70933)" />
    <path
       id="path72"
       d="m 121.63615,65.28252 v 1.41742 9.893 4.25229 1.44554 l 0.0285,1.41742 v 1.41744 l 0.0281,1.44554 v 1.41742 l 0.0286,1.44554 0.0281,1.44555 0.0285,1.47408 0.0567,1.47409 0.0567,1.47409 0.0848,1.53076 0.11375,1.55886 0.0848,0.82226 0.0285,0.08521 0.11334,0.31187 2.77774,6.51964 3.4867,7.82374 6.94528,15.13709 6.94482,14.79713 6.94483,14.62671 6.94527,14.48528 6.94482,14.42859 6.97337,14.3434 3.45815,7.17192 v -76.9615 z"
       style="fill:#bf4f45;fill-opacity:1;fill-rule:nonzero;stroke:#bf4f45;stroke-width:0.03984;stroke-linecap:round;stroke-linejoin:round;stroke-miterlimit:10;stroke-dasharray:none;stroke-opacity:1;opacity:0.7"
       transform="matrix(1.3333333,0,0,-1.3333333,1.2293333,330.70933)" />
    <path
       id="path73"
       d="m 122.31654,99.32715 -0.68039,-0.28333 -3.48669,-1.36075 -6.94482,-2.91963 -6.94527,-3.03338"
       style="fill:none;stroke:#011526;stroke-width:0.797;stroke-linecap:round;stroke-linejoin:round;stroke-miterlimit:10;stroke-dasharray:none;stroke-opacity:1"
       transform="matrix(1.3333333,0,0,-1.3333333,1.2293333,330.70933)" />
    <path
       id="path74"
       d="m 121.63615,65.28252 v 1.41742 9.893 4.25229 1.44554 l 0.0285,1.41742 v 1.41744 l 0.0281,1.44554 v 1.41742 l 0.0286,1.44554 0.0281,1.44555 0.0285,1.47408 0.0567,1.47409 0.0567,1.47409 0.0848,1.53076 0.11375,1.55886 0.0848,0.82226"
       style="fill:none;stroke:#011526;stroke-width:0.797;stroke-linecap:round;stroke-linejoin:round;stroke-miterlimit:10;stroke-dasharray:0.797, 2.24158;stroke-dashoffset:0;stroke-opacity:1"
       transform="matrix(1.3333333,0,0,-1.3333333,1.2293333,330.70933)" />
    <path
       id="path75"
       d="m 122.2032,99.29903 0.11334,0.31187 2.77774,6.51964 3.4867,7.82374 6.94528,15.13709 6.94482,14.79713 6.94483,14.62671 6.94527,14.48528 6.94482,14.42859 6.97337,14.3434 3.45815,7.17192"
       style="fill:none;stroke:#011526;stroke-width:0.797;stroke-linecap:round;stroke-linejoin:round;stroke-miterlimit:10;stroke-dasharray:none;stroke-opacity:1"
       transform="matrix(1.3333333,0,0,-1.3333333,1.2293333,330.70933)" />
    <path
       id="path76"
       d="m 159.81932,58.81953 v 1.41742 2.80631 1.41742 1.41743 1.44554 1.41744 l 0.0285,1.44554 0.0281,1.41742 0.0285,1.47409 0.0567,1.47409 0.0848,1.50221 0.11333,1.58741 0.19853,1.64407 0.16998,0.93558 0.28375,1.07704 -0.31185,0.05666 -0.68038,-0.22666 -1.38888,-0.48184 -0.70893,-0.2552 -0.68039,-0.28332 -0.70849,-0.25518 -6.94483,-2.74965 -6.94526,-2.94818 V 36.56718 l 17.37678,22.25235 z"
       style="fill:#f2d57e;fill-opacity:1;fill-rule:nonzero;stroke:#f2d57e;stroke-width:0.03984;stroke-linecap:round;stroke-linejoin:round;stroke-miterlimit:10;stroke-dasharray:none;stroke-opacity:1;opacity:0.7"
       transform="matrix(1.3333333,0,0,-1.3333333,1.2293333,330.70933)" />
    <path
       id="path77"
       d="m 159.81932,58.81953 v 1.41742 2.80631 1.41742 1.41743 1.44554 1.41744 l 0.0285,1.44554 0.0281,1.41742 0.0285,1.47409 0.0567,1.47409 0.0848,1.50221 0.11333,1.58741 0.19853,1.64407 0.16998,0.93558 0.28375,1.07704 0.0281,0.0852 0.36851,0.8785 0.68039,1.70116 0.7085,1.67217 0.68037,1.72931 0.70892,1.67261 0.33998,0.85037 5.89637,13.60636 6.94482,15.10898 6.94484,14.71191 6.94525,14.51339 6.94483,14.45714 6.94484,14.3434 6.94526,14.31484 V 125.54802 L 159.81925,58.81953 Z"
       style="fill:#bf4f45;fill-opacity:1;fill-rule:nonzero;stroke:#bf4f45;stroke-width:0.03984;stroke-linecap:round;stroke-linejoin:round;stroke-miterlimit:10;stroke-dasharray:none;stroke-opacity:1;opacity:0.7"
       transform="matrix(1.3333333,0,0,-1.3333333,1.2293333,330.70933)" />
    <path
       id="path78"
       d="m 160.4997,81.3552 -0.68038,-0.22666 -0.70851,-0.25519 -0.68037,-0.22665 -0.70893,-0.2552 -0.68039,-0.28332 -0.70849,-0.25518 -6.94483,-2.74965 -6.94526,-2.94818"
       style="fill:none;stroke:#011526;stroke-width:0.797;stroke-linecap:round;stroke-linejoin:round;stroke-miterlimit:10;stroke-dasharray:none;stroke-opacity:1"
       transform="matrix(1.3333333,0,0,-1.3333333,1.2293333,330.70933)" />
    <path
       id="path79"
       d="m 159.81932,58.81953 v 1.41742 2.80631 1.41742 1.41743 1.44554 1.41744 l 0.0285,1.44554 0.0281,1.41742 0.0285,1.47409 0.0567,1.47409 0.0848,1.50221 0.11333,1.58741 0.19853,1.64407 0.16998,0.93558 0.28375,1.07704"
       style="fill:none;stroke:#011526;stroke-width:0.797;stroke-linecap:round;stroke-linejoin:round;stroke-miterlimit:10;stroke-dasharray:0.797, 2.24158;stroke-dashoffset:0;stroke-opacity:1"
       transform="matrix(1.3333333,0,0,-1.3333333,1.2293333,330.70933)" />
    <path
       id="path80"
       d="m 164.32635,89.88786 5.89637,13.60636 6.94482,15.10898 6.94484,14.71191 6.94525,14.51339 6.94483,14.45714 6.94484,14.3434 6.94526,14.31484"
       style="fill:none;stroke:#011526;stroke-width:0.797;stroke-linecap:round;stroke-linejoin:round;stroke-miterlimit:10;stroke-dasharray:none;stroke-opacity:1;opacity:0.7"
       transform="matrix(1.3333333,0,0,-1.3333333,1.2293333,330.70933)" />
    <path
       id="path81"
       d="m 160.83968,81.38374 0.36851,0.8785 0.68039,1.70116 0.7085,1.67217 0.68037,1.72931 0.70892,1.67261 0.33998,0.85037"
       style="fill:none;stroke:#011526;stroke-width:0.797;stroke-linecap:round;stroke-linejoin:round;stroke-miterlimit:10;stroke-dasharray:0.797, 2.24158;stroke-dashoffset:0;stroke-opacity:1"
       transform="matrix(1.3333333,0,0,-1.3333333,1.2293333,330.70933)" />
    <path
       id="path82"
       d="m 165.92038,89.88786 c 0,0.88036 -0.71367,1.59403 -1.59403,1.59403 -0.88035,0 -1.59402,-0.71367 -1.59402,-1.59403 0,-0.88036 0.71367,-1.59402 1.59402,-1.59402 0.88036,0 1.59403,0.71366 1.59403,1.59402 z"
       style="fill:#000000;fill-opacity:1;fill-rule:nonzero;stroke:#000000;stroke-width:0.797;stroke-linecap:round;stroke-linejoin:round;stroke-miterlimit:10;stroke-dasharray:none;stroke-opacity:1"
       transform="matrix(1.3333333,0,0,-1.3333333,1.2293333,330.70933)" />
    <path
       id="path83"
       d="m 197.97392,52.328 v 1.41744 1.4174 l 0.0285,1.47409 0.11334,1.53077 0.25519,1.78594 0.0567,0.19811 0.0566,0.22708 0.0852,0.22664 0.11334,0.28333 0.68038,1.72929 -0.62372,-1.72929 h -0.0852 l -0.68039,0.0852 h -0.70849 l -0.68039,-0.02855 -0.7085,-0.05665 -0.68037,-0.11333 -0.70894,-0.11333 -3.45815,-0.85037 -3.48668,-1.10557 -6.94482,-2.57966 V 30.1042 l 17.37634,22.2238 z"
       style="fill:#f2d57e;fill-opacity:1;fill-rule:nonzero;stroke:#f2d57e;stroke-width:0.03984;stroke-linecap:round;stroke-linejoin:round;stroke-miterlimit:10;stroke-dasharray:none;stroke-opacity:1;opacity:0.7"
       transform="matrix(1.3333333,0,0,-1.3333333,1.2293333,330.70933)" />
    <path
       id="path84"
       d="m 197.97392,52.328 v 1.41744 1.4174 l 0.0285,1.47409 0.11334,1.53077 0.25519,1.78594 0.0567,0.19811 0.0566,0.22708 0.0852,0.22664 0.11334,0.28333 0.68038,1.72929 -0.70893,-1.75742 0.70893,1.70073 0.68037,1.70076 0.70851,1.61595 0.68038,1.61554 6.94482,15.67603 6.97339,15.50563 0.68037,1.53076 0.7085,1.55885 0.34041,0.76561 5.21554,11.42375 6.94527,14.76859 6.94482,14.57003 6.94484,14.42861 6.94525,14.34383 V 119.0565 L 197.97385,52.328 Z"
       style="fill:#bf4f45;fill-opacity:1;fill-rule:nonzero;stroke:#bf4f45;stroke-width:0.03984;stroke-linecap:round;stroke-linejoin:round;stroke-miterlimit:10;stroke-dasharray:none;stroke-opacity:1;opacity:0.7"
       transform="matrix(1.3333333,0,0,-1.3333333,1.2293333,330.70933)" />
    <path
       id="path85"
       d="m 198.73952,60.8888 h -0.0852 l -0.68039,0.0852 h -0.70849 l -0.68039,-0.02855 -0.7085,-0.05665 -0.68037,-0.11333 -0.70894,-0.11333 -3.45815,-0.85037 -3.48668,-1.10557 -6.94482,-2.57966"
       style="fill:none;stroke:#011526;stroke-width:0.797;stroke-linecap:round;stroke-linejoin:round;stroke-miterlimit:10;stroke-dasharray:none;stroke-opacity:1"
       transform="matrix(1.3333333,0,0,-1.3333333,1.2293333,330.70933)" />
    <path
       id="path86"
       d="m 197.97392,52.328 v 1.41744 1.4174 l 0.0285,1.47409 0.11334,1.53077 0.25519,1.78594 0.0567,0.19811 0.0566,0.22708 0.0852,0.22664 0.11334,0.28333 0.68038,1.72929"
       style="fill:none;stroke:#000000;stroke-width:0.797;stroke-linecap:round;stroke-linejoin:round;stroke-miterlimit:10;stroke-dasharray:0.797, 2.24158;stroke-dashoffset:0;stroke-opacity:1"
       transform="matrix(1.3333333,0,0,-1.3333333,1.2293333,330.70933)" />
    <path
       id="path87"
       d="m 217.07999,102.53053 5.21554,11.42375 6.94527,14.76859 6.94482,14.57003 6.94484,14.42861 6.94525,14.34383"
       style="fill:none;stroke:#011526;stroke-width:0.797;stroke-linecap:round;stroke-linejoin:round;stroke-miterlimit:10;stroke-dasharray:none;stroke-opacity:1"
       transform="matrix(1.3333333,0,0,-1.3333333,1.2293333,330.70933)" />
    <path
       id="path88"
       d="m 198.65431,60.86067 0.70893,1.70073 0.68037,1.70076 0.70851,1.61595 0.68038,1.61554 6.94482,15.67603 6.97339,15.50563 0.68037,1.53076 0.7085,1.55885 0.34041,0.76561"
       style="fill:none;stroke:#011526;stroke-width:0.797;stroke-linecap:round;stroke-linejoin:round;stroke-miterlimit:10;stroke-dasharray:0.797, 2.24158;stroke-dashoffset:0;stroke-opacity:1"
       transform="matrix(1.3333333,0,0,-1.3333333,1.2293333,330.70933)" />
    <path
       id="path89"
       d="m 218.67401,102.53053 c 0,0.88036 -0.71367,1.59401 -1.59402,1.59401 -0.88036,0 -1.59403,-0.71365 -1.59403,-1.59401 0,-0.88037 0.71367,-1.59402 1.59403,-1.59402 0.88035,0 1.59402,0.71365 1.59402,1.59402 z"
       style="fill:#000000;fill-opacity:1;fill-rule:nonzero;stroke:#000000;stroke-width:0.797;stroke-linecap:round;stroke-linejoin:round;stroke-miterlimit:10;stroke-dasharray:none;stroke-opacity:1"
       transform="matrix(1.3333333,0,0,-1.3333333,1.2293333,330.70933)" />
    <path
       id="path90"
       d="m 213.5933,44.64612 -0.11332,1.27556 -0.28375,1.07745 -0.48184,0.7937 -0.62372,0.59519 -0.82183,0.33996 -0.45373,0.14188 -0.7085,0.0852 -0.68037,0.02812 -0.70851,-0.02812 -0.68038,-0.05666 -0.70894,-0.0852 -0.68037,-0.14189 -0.70851,-0.11331 -0.70848,-0.16998 -0.68038,-0.17 -0.70895,-0.19853 -0.67993,-0.19854 -0.70894,-0.16999 -0.68037,-0.22664 -0.7085,-0.22708 -0.68039,-0.22666 -0.70849,-0.22665 V 26.87271 Z"
       style="fill:#f2d57e;fill-opacity:1;fill-rule:nonzero;stroke:#f2d57e;stroke-width:0.03984;stroke-linecap:round;stroke-linejoin:round;stroke-miterlimit:10;stroke-dasharray:none;stroke-opacity:1;opacity:0.7"
       transform="matrix(1.3333333,0,0,-1.3333333,1.2293333,330.70933)" />
    <path
       id="path91"
       d="m 213.5933,44.64612 0.0848,1.55929 0.28375,1.75742 0.48186,2.04114 0.62372,2.21071 0.85037,2.49444 0.96368,2.63632 1.10558,2.86296 1.19034,2.92008 1.36076,3.20294 3.45815,7.90895 3.48668,7.65376 6.94526,14.93857 6.94483,14.62714 6.94484,14.48483 6.97337,14.37193 6.94527,14.34339 6.94482,14.28717 V 115.82501 L 213.59333,44.64612 Z"
       style="fill:#f2935c;fill-opacity:1;fill-rule:nonzero;stroke:#f2935c;stroke-width:0.03984;stroke-linecap:round;stroke-linejoin:round;stroke-miterlimit:10;stroke-dasharray:none;stroke-opacity:1;opacity:0.7"
       transform="matrix(1.3333333,0,0,-1.3333333,1.2293333,330.70933)" />
    <path
       id="path92"
       d="m 213.5933,44.64612 -0.11332,1.27556 -0.28375,1.07745 -0.48184,0.7937 -0.62372,0.59519 -0.82183,0.33996 -0.45373,0.14188 -0.7085,0.0852 -0.68037,0.02812 -0.70851,-0.02812 -0.68038,-0.05666 -0.70894,-0.0852 -0.68037,-0.14189 -0.70851,-0.11331 -0.70848,-0.16998 -0.68038,-0.17 -0.70895,-0.19853 -0.67993,-0.19854 -0.70894,-0.16999 -0.68037,-0.22664 -0.7085,-0.22708 -0.68039,-0.22666 -0.70849,-0.22665"
       style="fill:none;stroke:#011526;stroke-width:0.797;stroke-linecap:round;stroke-linejoin:round;stroke-miterlimit:10;stroke-dasharray:none;stroke-opacity:1"
       transform="matrix(1.3333333,0,0,-1.3333333,1.2293333,330.70933)" />
    <path
       id="path93"
       d="m 213.5933,44.64612 0.0848,1.55929 0.28375,1.75742 0.48186,2.04114 0.62372,2.21071 0.85037,2.49444 0.96368,2.63632 1.10558,2.86296 1.19034,2.92008 1.36076,3.20294 3.45815,7.90895 3.48668,7.65376 6.94526,14.93857 6.94483,14.62714 6.94484,14.48483 6.97337,14.37193 6.94527,14.34339 6.94482,14.28717"
       style="fill:none;stroke:#011526;stroke-width:0.797;stroke-linecap:round;stroke-linejoin:round;stroke-miterlimit:10;stroke-dasharray:none;stroke-opacity:1;opacity:0.7"
       transform="matrix(1.3333333,0,0,-1.3333333,1.2293333,330.70933)" />
    <path
       id="path94"
       d="m 237.85825,20.38118 0.11332,1.5593 0.28331,1.7574 0.48186,2.04115 0.6237,2.21069 0.76517,2.38156 0.96413,2.66443 1.0489,2.74965 1.19034,2.91964 1.24745,3.03294 0.25476,0.59561 3.45857,7.99375 3.48668,7.76707 6.94486,15.05189 6.94482,14.76901 6.94527,14.57003 6.94482,14.48527 6.94483,14.37195 6.97337,14.34338 6.94527,14.31528 6.94482,14.28673 v -64.8859 z"
       style="fill:#f2935c;fill-opacity:1;fill-rule:nonzero;stroke:#f2935c;stroke-width:0.03984;stroke-linecap:round;stroke-linejoin:round;stroke-miterlimit:10;stroke-dasharray:none;stroke-opacity:1;opacity:0.7"
       transform="matrix(1.3333333,0,0,-1.3333333,1.2293333,330.70933)" />
    <path
       id="path95"
       d="m 237.85825,20.38118 0.11332,1.5593 0.28331,1.7574 0.48186,2.04115 0.6237,2.21069 0.76517,2.38156 0.96413,2.66443 1.0489,2.74965 1.19034,2.91964 1.24745,3.03294 0.25476,0.59561 3.45857,7.99375 3.48668,7.76707 6.94486,15.05189 6.94482,14.76901 6.94527,14.57003 6.94482,14.48527 6.94483,14.37195 6.97337,14.34338 6.94527,14.31528 6.94482,14.28673"
       style="fill:none;stroke:#011526;stroke-width:0.797;stroke-linecap:round;stroke-linejoin:round;stroke-miterlimit:10;stroke-dasharray:none;stroke-opacity:1"
       transform="matrix(1.3333333,0,0,-1.3333333,1.2293333,330.70933)" />
    <path
       id="path96"
       d="m 258.89128,167.44452 -0.0281,0.0285 -18.31236,9.46783 -19.10564,9.41117 -19.10564,9.15594 -19.07752,8.98598 -19.07708,8.90079 -19.07753,8.81597 -19.10564,8.7589 -9.52491,4.3656"
       style="fill:none;stroke:#011526;stroke-width:0.797;stroke-linecap:round;stroke-linejoin:round;stroke-miterlimit:10;stroke-dasharray:none;stroke-opacity:1"
       transform="matrix(1.3333333,0,0,-1.3333333,1.2293333,330.70933)" />
    <path
       id="path97"
       d="m 258.94794,167.44452 h 0.11375 l 0.56662,0.0852 9.55304,1.41744 19.07752,2.7211 19.10563,2.57965"
       style="fill:none;stroke:#011526;stroke-width:0.797;stroke-linecap:round;stroke-linejoin:round;stroke-miterlimit:10;stroke-dasharray:none;stroke-opacity:1"
       transform="matrix(1.3333333,0,0,-1.3333333,1.2293333,330.70933)" />
    <path
       id="path98"
       d="m 116.47684,145.24883 v 0.0285"
       style="fill:none;stroke:#000000;stroke-width:0.797;stroke-linecap:round;stroke-linejoin:round;stroke-miterlimit:10;stroke-dasharray:0.797, 2.24158;stroke-dashoffset:0;stroke-opacity:1"
       transform="matrix(1.3333333,0,0,-1.3333333,1.2293333,330.70933)" />
    <path
       id="path99"
       d="M 307.3645,109.33347 237.85825,20.35306"
       style="fill:none;stroke:#000000;stroke-width:0.797;stroke-linecap:round;stroke-linejoin:round;stroke-miterlimit:10;stroke-dasharray:none;stroke-opacity:1"
       transform="matrix(1.3333333,0,0,-1.3333333,1.2293333,330.70933)" />
    <path
       id="path100"
       d="M 46.94247,52.72508 237.85825,20.35306"
       style="fill:none;stroke:#000000;stroke-width:0.797;stroke-linecap:round;stroke-linejoin:round;stroke-miterlimit:10;stroke-dasharray:none;stroke-opacity:1"
       transform="matrix(1.3333333,0,0,-1.3333333,1.2293333,330.70933)" />
    <g
       id="g100"
       aria-label="J&#10;1&#10;/J&#10;p"
       transform="matrix(1.3333333,0,0,1.3333333,167.236,326.02533)">
      <path
         id="path101"
         d="m 5.3894062,-6.0834531 c 0.082031,-0.328125 0.09375,-0.4101563 0.6445313,-0.4101563 0.1640625,0 0.2695312,0 0.2695312,-0.1875 0,-0.09375 -0.058594,-0.1289062 -0.140625,-0.1289062 -0.2460937,0 -0.8554687,0.035156 -1.1015625,0.035156 -0.328125,0 -1.1367187,-0.035156 -1.4648437,-0.035156 -0.09375,0 -0.2109375,0 -0.2109375,0.1992187 0,0.1171875 0.082031,0.1171875 0.3398437,0.1171875 0.2226563,0 0.328125,0 0.5742188,0.011719 0.2460937,0.035156 0.3164062,0.070312 0.3164062,0.1992187 0,0.070312 -0.023437,0.140625 -0.046875,0.2109375 l -1.1484375,4.5703125 c -0.234375,0.97265627 -0.9140625,1.50000002 -1.4296875,1.50000002 -0.2578125,0 -0.7851562,-0.10546875 -0.9492187,-0.62109375 0.035156,0.0117188 0.1054687,0.0117188 0.1171875,0.0117188 0.3984375,0 0.65625,-0.33984375 0.65625,-0.63281247 0,-0.3164062 -0.2695313,-0.421875 -0.4453125,-0.421875 -0.1757813,0 -0.66796875,0.1171875 -0.66796875,0.79687497 0,0.62109375 0.52734375,1.08984375 1.32421875,1.08984375 0.9140625,0 1.9453125,-0.65625 2.1914062,-1.65234372 z m 0,0"
         style="fill:#000000;fill-opacity:1;fill-rule:nonzero;stroke:none" />
      <path
         id="path102"
         d="m 7.8562031,-2.9340391 c 0,-0.1875 -0.011719,-0.1992187 -0.2109375,-0.1992187 -0.4453125,0.4335937 -1.078125,0.4453125 -1.359375,0.4453125 v 0.2460937 c 0.1640625,0 0.6210938,0 1.0078125,-0.1875 v 3.55078129 c 0,0.23437501 0,0.32812501 -0.6914062,0.32812501 H 6.3327656 v 0.2460937 c 0.1289063,-0.011719 0.984375,-0.023437 1.2421875,-0.023437 0.2109375,0 1.0898438,0.011719 1.2421875,0.023437 V 1.2495547 H 8.5593281 c -0.703125,0 -0.703125,-0.09375 -0.703125,-0.32812501 z m 0,0"
         style="fill:#000000;fill-opacity:1;fill-rule:nonzero;stroke:none" />
      <path
         id="path103"
         d="m 14.35132,-7.0912656 c 0.05859,-0.1289063 0.05859,-0.1640625 0.05859,-0.1875 0,-0.1054688 -0.09375,-0.1992188 -0.199219,-0.1992188 -0.140625,0 -0.1875,0.1054688 -0.210937,0.1992188 L 10.60132,2.1079531 c -0.04687,0.1289063 -0.04687,0.1640625 -0.04687,0.1875 0,0.1054688 0.08203,0.1992188 0.199219,0.1992188 0.140625,0 0.175781,-0.1054688 0.199219,-0.1992188 z m 0,0"
         style="fill:#000000;fill-opacity:1;fill-rule:nonzero;stroke:none" />
      <path
         id="path104"
         d="m 20.365969,-6.0834531 c 0.08203,-0.328125 0.09375,-0.4101563 0.644531,-0.4101563 0.164062,0 0.269531,0 0.269531,-0.1875 0,-0.09375 -0.05859,-0.1289062 -0.140625,-0.1289062 -0.246094,0 -0.855469,0.035156 -1.101562,0.035156 -0.328125,0 -1.136719,-0.035156 -1.464844,-0.035156 -0.09375,0 -0.210938,0 -0.210938,0.1992187 0,0.1171875 0.08203,0.1171875 0.339844,0.1171875 0.222656,0 0.328125,0 0.574219,0.011719 0.246094,0.035156 0.316406,0.070312 0.316406,0.1992187 0,0.070312 -0.02344,0.140625 -0.04687,0.2109375 l -1.148437,4.5703125 c -0.234375,0.97265627 -0.914063,1.50000002 -1.429688,1.50000002 -0.257812,0 -0.785156,-0.10546875 -0.949219,-0.62109375 0.03516,0.0117188 0.105469,0.0117188 0.117188,0.0117188 0.398437,0 0.65625,-0.33984375 0.65625,-0.63281247 0,-0.3164062 -0.269531,-0.421875 -0.445313,-0.421875 -0.175781,0 -0.667968,0.1171875 -0.667968,0.79687497 0,0.62109375 0.527343,1.08984375 1.324218,1.08984375 0.914063,0 1.945313,-0.65625 2.191407,-1.65234372 z m 0,0"
         style="fill:#000000;fill-opacity:1;fill-rule:nonzero;stroke:none" />
      <path
         id="path105"
         d="m 21.025148,2.3511172 c -0.05859,0.1875 -0.07031,0.2460937 -0.351562,0.2460937 -0.08203,0 -0.1875,0 -0.1875,0.1523438 0,0.070312 0.07031,0.09375 0.105469,0.09375 0.175781,0 0.410156,-0.023437 0.597656,-0.023437 0.234375,0 0.503906,0.023437 0.726562,0.023437 0.07031,0 0.140625,-0.011719 0.140625,-0.1523438 0,-0.09375 -0.09375,-0.09375 -0.175781,-0.09375 -0.152344,0 -0.339844,0 -0.339844,-0.082031 0,-0.035156 0.04687,-0.2226563 0.07031,-0.3164063 0.08203,-0.375 0.1875,-0.75 0.257812,-1.0429687 0.08203,0.140625 0.304688,0.4101562 0.726563,0.4101562 0.84375,0 1.78125,-0.93749996 1.78125,-1.98046871 0,-0.82031249 -0.5625,-1.16015629 -1.042969,-1.16015629 -0.433594,0 -0.796875,0.2929688 -0.984375,0.4804688 -0.117187,-0.3984375 -0.515625,-0.4804688 -0.726562,-0.4804688 -0.269532,0 -0.433594,0.1757813 -0.550782,0.3632813 -0.140625,0.23437499 -0.246093,0.65624999 -0.246093,0.70312499 0,0.0820313 0.09375,0.0820313 0.117187,0.0820313 0.09375,0 0.105469,-0.0117188 0.152344,-0.19921875 0.105469,-0.41015634 0.234375,-0.76171884 0.515625,-0.76171884 0.175781,0 0.222656,0.1523438 0.222656,0.3398438 0,0.0820313 -0.01172,0.17578129 -0.02344,0.21093754 z m 1.3125,-3.09375001 c 0.410157,-0.53906249 0.75,-0.64453129 0.972657,-0.64453129 0.28125,0 0.515625,0.2109375 0.515625,0.67968754 0,0.28125 -0.152344,0.99609375 -0.363282,1.40625 -0.175781,0.33984376 -0.515625,0.66796876 -0.867187,0.66796876 -0.503906,0 -0.621094,-0.53906251 -0.621094,-0.59765626 0,-0.0351563 0.01172,-0.0820313 0.01172,-0.10546875 z m 0,0"
         style="fill:#000000;fill-opacity:1;fill-rule:nonzero;stroke:none" />
    </g>
    <g
       id="g105"
       aria-label="J&#10;x&#10;/J&#10;p"
       transform="matrix(1.3333333,0,0,1.3333333,399.504,262.604)">
      <path
         id="path106"
         d="m 5.3905547,-6.0809297 c 0.082031,-0.328125 0.09375,-0.4101562 0.6445312,-0.4101562 0.1640625,0 0.2695313,0 0.2695313,-0.1875 0,-0.09375 -0.058594,-0.1289063 -0.140625,-0.1289063 -0.2460938,0 -0.8554688,0.035156 -1.1015625,0.035156 -0.328125,0 -1.1367188,-0.035156 -1.4648438,-0.035156 -0.09375,0 -0.2109375,0 -0.2109375,0.1992188 0,0.1171875 0.082031,0.1171875 0.3398438,0.1171875 0.2226562,0 0.328125,0 0.5742187,0.011719 0.2460938,0.035156 0.3164063,0.070312 0.3164063,0.1992188 0,0.070312 -0.023437,0.140625 -0.046875,0.2109375 l -1.1484375,4.5703125 c -0.234375,0.97265621 -0.9140625,1.49999996 -1.4296875,1.49999996 -0.2578125,0 -0.7851563,-0.10546875 -0.9492188,-0.62109375 0.035156,0.0117188 0.1054688,0.0117188 0.1171875,0.0117188 0.3984375,0 0.65625,-0.33984375 0.65625,-0.63281251 0,-0.3164063 -0.2695312,-0.421875 -0.4453125,-0.421875 -0.1757812,0 -0.66796871,0.1171875 -0.66796871,0.79687501 0,0.62109375 0.52734371,1.08984375 1.32421871,1.08984375 0.9140625,0 1.9453125,-0.65625 2.1914063,-1.65234376 z m 0,0"
         style="fill:#000000;fill-opacity:1;fill-rule:nonzero;stroke:none" />
      <path
         id="path107"
         d="m 7.2596953,0.75696094 c -0.070312,0.234375 -0.2929687,0.60937496 -0.65625,0.60937496 -0.023437,0 -0.2226562,0 -0.375,-0.09375 0.28125,-0.09375 0.3046875,-0.33984371 0.3046875,-0.38671871 0,-0.15234375 -0.1171875,-0.2578125 -0.28125,-0.2578125 -0.1875,0 -0.3867187,0.1640625 -0.3867187,0.43359371 0,0.3398438 0.3867187,0.5039063 0.7265625,0.5039063 0.3164062,0 0.609375,-0.1992188 0.7851562,-0.4921875 0.1640625,0.3632812 0.5507813,0.4921875 0.8203125,0.4921875 0.8085938,0 1.2304688,-0.86718751 1.2304688,-1.06640626 0,-0.09375 -0.09375,-0.09375 -0.1054688,-0.09375 -0.1054687,0 -0.1054687,0.0351563 -0.140625,0.1171875 -0.140625,0.48046876 -0.5625,0.84374996 -0.9492187,0.84374996 -0.28125,0 -0.421875,-0.1875 -0.421875,-0.44531246 0,-0.1875 0.1640625,-0.8203125 0.3632812,-1.59375 0.1289063,-0.53906254 0.4453125,-0.71484374 0.6796875,-0.71484374 0.011719,0 0.2226563,0 0.375,0.1054687 -0.2226562,0.058594 -0.3046875,0.2578125 -0.3046875,0.37500004 0,0.15234375 0.1171875,0.2578125 0.28125,0.2578125 0.1523438,0 0.3867188,-0.12890625 0.3867188,-0.42187504 0,-0.3867187 -0.4453125,-0.5039062 -0.7265625,-0.5039062 -0.3515625,0 -0.6328125,0.2226562 -0.7851563,0.4921875 -0.1171875,-0.2929688 -0.4453125,-0.4921875 -0.8320312,-0.4921875 -0.7851563,0 -1.2304688,0.85546874 -1.2304688,1.06640624 0,0.0820313 0.1054688,0.0820313 0.1171875,0.0820313 0.09375,0 0.1054688,-0.0234375 0.140625,-0.1171875 0.1757813,-0.53906244 0.609375,-0.84374994 0.9492188,-0.84374994 0.234375,0 0.421875,0.1289062 0.421875,0.46874994 0,0.12890625 -0.082031,0.48046875 -0.1523438,0.71484375 z m 0,0"
         style="fill:#000000;fill-opacity:1;fill-rule:nonzero;stroke:none" />
      <path
         id="path108"
         d="m 14.90032,-7.0887422 c 0.05859,-0.1289062 0.05859,-0.1640625 0.05859,-0.1875 0,-0.1054687 -0.09375,-0.1992187 -0.199219,-0.1992187 -0.140625,0 -0.1875,0.1054687 -0.210937,0.1992187 L 11.15032,2.1104766 c -0.04687,0.1289062 -0.04687,0.1640625 -0.04687,0.1875 0,0.1054687 0.08203,0.1992187 0.199219,0.1992187 0.140625,0 0.175781,-0.1054687 0.199219,-0.1992187 z m 0,0"
         style="fill:#000000;fill-opacity:1;fill-rule:nonzero;stroke:none" />
      <path
         id="path109"
         d="m 20.912039,-6.0809297 c 0.08203,-0.328125 0.09375,-0.4101562 0.644531,-0.4101562 0.164063,0 0.269532,0 0.269532,-0.1875 0,-0.09375 -0.05859,-0.1289063 -0.140625,-0.1289063 -0.246094,0 -0.855469,0.035156 -1.101563,0.035156 -0.328125,0 -1.136719,-0.035156 -1.464844,-0.035156 -0.09375,0 -0.210937,0 -0.210937,0.1992188 0,0.1171875 0.08203,0.1171875 0.339844,0.1171875 0.222656,0 0.328125,0 0.574218,0.011719 0.246094,0.035156 0.316407,0.070312 0.316407,0.1992188 0,0.070312 -0.02344,0.140625 -0.04687,0.2109375 l -1.148438,4.5703125 c -0.234375,0.97265621 -0.914062,1.49999996 -1.429687,1.49999996 -0.257813,0 -0.785157,-0.10546875 -0.949219,-0.62109375 0.03516,0.0117188 0.105469,0.0117188 0.117187,0.0117188 0.398438,0 0.65625,-0.33984375 0.65625,-0.63281251 0,-0.3164063 -0.269531,-0.421875 -0.445312,-0.421875 -0.175781,0 -0.667969,0.1171875 -0.667969,0.79687501 0,0.62109375 0.527344,1.08984375 1.324219,1.08984375 0.914062,0 1.945312,-0.65625 2.191406,-1.65234376 z m 0,0"
         style="fill:#000000;fill-opacity:1;fill-rule:nonzero;stroke:none" />
      <path
         id="path110"
         d="m 21.574148,2.3507109 c -0.05859,0.1875 -0.07031,0.2460938 -0.351562,0.2460938 -0.08203,0 -0.1875,0 -0.1875,0.1523437 0,0.070312 0.07031,0.09375 0.105469,0.09375 0.175781,0 0.410156,-0.023437 0.597656,-0.023437 0.234375,0 0.503906,0.023437 0.726562,0.023437 0.07031,0 0.140625,-0.011719 0.140625,-0.1523437 0,-0.09375 -0.09375,-0.09375 -0.175781,-0.09375 -0.152344,0 -0.339844,0 -0.339844,-0.082031 0,-0.035156 0.04687,-0.2226562 0.07031,-0.3164062 0.08203,-0.375 0.1875,-0.75 0.257812,-1.0429688 0.08203,0.140625 0.304688,0.4101563 0.726563,0.4101563 0.84375,0 1.78125,-0.93750001 1.78125,-1.98046876 0,-0.82031254 -0.5625,-1.16015624 -1.042969,-1.16015624 -0.433594,0 -0.796875,0.2929687 -0.984375,0.4804687 -0.117187,-0.3984375 -0.515625,-0.4804687 -0.726562,-0.4804687 -0.269532,0 -0.433594,0.1757812 -0.550782,0.3632812 -0.140625,0.23437504 -0.246093,0.65625004 -0.246093,0.70312504 0,0.0820313 0.09375,0.0820313 0.117187,0.0820313 0.09375,0 0.105469,-0.0117188 0.152344,-0.19921875 0.105469,-0.41015619 0.234375,-0.76171869 0.515625,-0.76171869 0.175781,0 0.222656,0.1523437 0.222656,0.3398437 0,0.0820313 -0.01172,0.17578124 -0.02344,0.21093749 z m 1.3125,-3.09374996 c 0.410157,-0.53906254 0.75,-0.64453124 0.972657,-0.64453124 0.28125,0 0.515625,0.2109375 0.515625,0.67968749 0,0.28125 -0.152344,0.99609375 -0.363282,1.40625 -0.175781,0.33984371 -0.515625,0.66796871 -0.867187,0.66796871 -0.503906,0 -0.621094,-0.53906246 -0.621094,-0.59765621 0,-0.0351563 0.01172,-0.0820313 0.01172,-0.10546875 z m 0,0"
         style="fill:#000000;fill-opacity:1;fill-rule:nonzero;stroke:none" />
    </g>
    <g
       id="g110"
       aria-label="/J&#10;p"
       transform="matrix(1.3333333,0,0,1.3333333,4.428,200.95867)">
      <path
         id="path111"
         d="M 5.5207969,-6.7746641 H 0.32939062 v 0.3046875 h 0.234375 c 0.77343748,0 0.79687498,0.1171875 0.79687498,0.46875 v 5.22656254 c 0,0.3515625 -0.023437,0.46875 -0.79687498,0.46875 h -0.234375 v 0.3046875 c 0.3515625,-0.03515625 1.12499998,-0.03515625 1.51171878,-0.03515625 0.4101562,0 1.3125,0 1.6757812,0.03515625 v -0.3046875 h -0.328125 c -0.9492187,0 -0.9492187,-0.12890625 -0.9492187,-0.48046875 V -6.0715391 c 0,-0.328125 0.023437,-0.3984375 0.4921875,-0.3984375 h 1.0195312 c 1.4296875,0 1.640625,0.5859375 1.7929688,1.9335938 h 0.2578125 z m 5.0654301,-0.3164062 c 0.05859,-0.1289063 0.05859,-0.1640625 0.05859,-0.1875 0,-0.1054688 -0.09375,-0.1992188 -0.199218,-0.1992188 -0.140625,0 -0.1875,0.1054688 -0.210938,0.1992188 L 6.8362266,2.1081484 c -0.046875,0.1289063 -0.046875,0.1640625 -0.046875,0.1875 0,0.1054688 0.082031,0.1992188 0.1992187,0.1992188 0.140625,0 0.1757813,-0.1054688 0.1992188,-0.1992188 z m 0,0"
         style="fill:#000000;fill-opacity:1;fill-rule:nonzero;stroke:none" />
      <path
         id="path112"
         d="m 16.597945,-6.0832578 c 0.08203,-0.328125 0.09375,-0.4101563 0.644532,-0.4101563 0.164062,0 0.269531,0 0.269531,-0.1875 0,-0.09375 -0.05859,-0.1289062 -0.140625,-0.1289062 -0.246094,0 -0.855469,0.035156 -1.101563,0.035156 -0.328125,0 -1.136718,-0.035156 -1.464843,-0.035156 -0.09375,0 -0.210938,0 -0.210938,0.1992187 0,0.1171875 0.08203,0.1171875 0.339844,0.1171875 0.222656,0 0.328125,0 0.574219,0.011719 0.246093,0.035156 0.316406,0.070312 0.316406,0.1992187 0,0.070312 -0.02344,0.140625 -0.04687,0.2109375 L 14.6292,-1.5012264 c -0.234375,0.97265629 -0.914062,1.50000004 -1.429687,1.50000004 -0.257813,0 -0.785156,-0.10546875 -0.949219,-0.62109375 0.03516,0.0117188 0.105469,0.0117188 0.117188,0.0117188 0.398437,0 0.65625,-0.33984375 0.65625,-0.63281249 0,-0.3164062 -0.269532,-0.421875 -0.445313,-0.421875 -0.175781,0 -0.667969,0.1171875 -0.667969,0.79687499 0,0.62109375 0.527344,1.08984375 1.324219,1.08984375 0.914063,0 1.945313,-0.65625 2.191406,-1.65234374 z m 0,0"
         style="fill:#000000;fill-opacity:1;fill-rule:nonzero;stroke:none" />
      <path
         id="path113"
         d="m 17.260055,2.3513125 c -0.05859,0.1875 -0.07031,0.2460937 -0.351563,0.2460937 -0.08203,0 -0.1875,0 -0.1875,0.1523438 0,0.070312 0.07031,0.09375 0.105469,0.09375 0.175781,0 0.410156,-0.023437 0.597656,-0.023437 0.234375,0 0.503906,0.023437 0.726563,0.023437 0.07031,0 0.140625,-0.011719 0.140625,-0.1523438 0,-0.09375 -0.09375,-0.09375 -0.175782,-0.09375 -0.152343,0 -0.339843,0 -0.339843,-0.082031 0,-0.035156 0.04687,-0.2226563 0.07031,-0.3164063 0.08203,-0.375 0.1875,-0.75 0.257813,-1.0429687 0.08203,0.140625 0.304687,0.4101562 0.726562,0.4101562 0.84375,0 1.78125,-0.93749995 1.78125,-1.9804687 0,-0.8203125 -0.5625,-1.1601563 -1.042969,-1.1601563 -0.433593,0 -0.796875,0.2929688 -0.984375,0.4804688 -0.117187,-0.3984375 -0.515625,-0.4804688 -0.726562,-0.4804688 -0.269531,0 -0.433594,0.1757813 -0.550781,0.3632813 -0.140625,0.234375 -0.246094,0.65625 -0.246094,0.703125 0,0.0820313 0.09375,0.0820313 0.117187,0.0820313 0.09375,0 0.105469,-0.0117188 0.152344,-0.19921875 0.105469,-0.41015635 0.234375,-0.76171885 0.515625,-0.76171885 0.175781,0 0.222656,0.1523438 0.222656,0.3398438 0,0.0820313 -0.01172,0.1757813 -0.02344,0.21093755 z m 1.3125,-3.09375 c 0.410156,-0.5390625 0.75,-0.6445313 0.972656,-0.6445313 0.28125,0 0.515625,0.2109375 0.515625,0.67968755 0,0.28125 -0.152344,0.99609375 -0.363281,1.40625 -0.175782,0.33984375 -0.515625,0.66796875 -0.867188,0.66796875 -0.503906,0 -0.621094,-0.5390625 -0.621094,-0.59765625 0,-0.0351563 0.01172,-0.0820313 0.01172,-0.10546875 z m 0,0"
         style="fill:#000000;fill-opacity:1;fill-rule:nonzero;stroke:none" />
    </g>
    <g
       id="g113"
       aria-label="AF&#10;1"
       transform="matrix(1.3333333,0,0,1.3333333,95.384,255.23333)">
      <path
         id="path114"
         d="M 8.4366094,-0.221875 C 7.8975469,-0.25703125 7.7569219,-0.37421875 7.3584844,-1.2648438 L 4.3819219,-8.05 h -0.234375 l -2.484375,5.859375 c -0.73828128,1.7578125 -0.91406253,1.9453125 -1.48828128,1.96875 V 7.8125e-4 H 2.5420781 V -0.221875 c -0.5742187,0 -0.8085937,-0.1640625 -0.8085937,-0.4921875 0,-0.140625 0.035156,-0.3164063 0.09375,-0.46875 l 0.5507812,-1.3945313 h 3.1289063 l 0.4921875,1.1484375 c 0.140625,0.3164063 0.2226562,0.63281255 0.2226562,0.79687505 0,0.29296875 -0.1992187,0.3984375 -0.8320312,0.41015625 V 7.8125e-4 h 3.046875 z M 2.5772344,-3.0695313 3.9600469,-6.3625 5.3428594,-3.0695313 Z m 11.8066406,0.3046875 v -2.765625 h -0.28125 C 13.962,-4.58125 13.751062,-4.39375 12.790125,-4.39375 H 11.05575 v -2.6601563 c 0,-0.328125 0.05859,-0.3984375 0.386719,-0.3984375 h 1.617187 c 1.359375,0 1.617188,0.1757813 1.816406,1.2539063 H 15.18075 L 15.145594,-7.909375 H 8.7940312 v 0.2226562 C 9.6846562,-7.6164063 9.837,-7.440625 9.837,-6.6085938 v 5.1796875 c 0,0.98437505 -0.1289063,1.14843755 -1.0429688,1.2070313 V 7.8125e-4 H 12.145594 V -0.221875 C 11.219812,-0.26875 11.05575,-0.45625 11.05575,-1.4171875 v -2.4960938 h 1.734375 c 0.972656,0 1.171875,0.1875 1.3125,1.1484375 z m 0,0"
         style="fill:#012030;fill-opacity:1;fill-rule:nonzero;stroke:none" />
      <path
         id="path115"
         d="m 17.870203,-3.2804688 c 0,-0.2226562 -0.02344,-0.2226562 -0.234375,-0.2226562 -0.328125,0.3164062 -0.75,0.5039062 -1.511719,0.5039062 v 0.2695313 c 0.222657,0 0.644532,0 1.113282,-0.2226563 V 1.1375 c 0,0.2929687 -0.02344,0.3984375 -0.785157,0.3984375 h -0.28125 V 1.79375 c 0.328125,-0.023437 1.019532,-0.023437 1.371094,-0.023437 0.363281,0 1.054688,0 1.382813,0.023437 V 1.5359375 h -0.28125 c -0.75,0 -0.773438,-0.1054688 -0.773438,-0.3984375 z m 0,0"
         style="fill:#012030;fill-opacity:1;fill-rule:nonzero;stroke:none" />
    </g>
    <g
       id="g115"
       aria-label="AF&#10;2"
       transform="matrix(1.3333333,0,0,1.3333333,127.284,192.41733)">
      <path
         id="path116"
         d="M 8.4383672,-0.22217969 C 7.8993047,-0.25733594 7.7586797,-0.37452344 7.3602422,-1.2651484 L 4.3836797,-8.0503047 h -0.234375 l -2.484375,5.859375 C 0.92664844,-0.43311719 0.75086719,-0.24561719 0.17664844,-0.22217969 V 4.765625e-4 H 2.5438359 V -0.22217969 c -0.5742187,0 -0.8085937,-0.1640625 -0.8085937,-0.4921875 0,-0.140625 0.035156,-0.31640621 0.09375,-0.46875001 l 0.5507812,-1.3945312 h 3.1289063 l 0.4921875,1.1484375 c 0.140625,0.3164062 0.2226562,0.63281246 0.2226562,0.79687496 0,0.29296875 -0.1992187,0.3984375 -0.8320312,0.41015625 V 4.765625e-4 h 3.046875 z m -5.859375,-2.84765621 1.3828125,-3.2929688 1.3828125,3.2929688 z m 11.8066408,0.3046875 v -2.765625 h -0.28125 c -0.140625,0.9492187 -0.351563,1.1367187 -1.3125,1.1367187 h -1.734375 v -2.6601562 c 0,-0.328125 0.05859,-0.3984375 0.386719,-0.3984375 h 1.617187 c 1.359375,0 1.617188,0.1757812 1.816406,1.2539062 h 0.304688 l -0.03516,-1.7109375 H 8.7957891 v 0.2226563 c 0.890625,0.070312 1.0429687,0.2460937 1.0429687,1.078125 v 5.1796875 c 0,0.98437496 -0.1289062,1.14843746 -1.0429687,1.20703121 V 4.765625e-4 H 12.147352 V -0.22217969 c -0.925782,-0.046875 -1.089844,-0.234375 -1.089844,-1.19531251 v -2.4960937 h 1.734375 c 0.972656,0 1.171875,0.1875 1.3125,1.1484375 z m 0,0"
         style="fill:#012030;fill-opacity:1;fill-rule:nonzero;stroke:none" />
      <path
         id="path117"
         d="m 17.611219,0.16453906 c 0.128906,-0.1171875 0.457031,-0.375 0.585937,-0.4921875 0.492188,-0.45703125 0.960938,-0.89062496 0.960938,-1.61718746 0,-0.9492188 -0.796875,-1.5585938 -1.792969,-1.5585938 -0.949219,0 -1.582031,0.7265625 -1.582031,1.4296875 0,0.3984375 0.316406,0.4453125 0.421875,0.4453125 0.164062,0 0.410156,-0.1171875 0.410156,-0.421875 0,-0.4101562 -0.398438,-0.4101562 -0.492188,-0.4101562 0.234375,-0.5859375 0.773438,-0.7851563 1.160157,-0.7851563 0.738281,0 1.125,0.6328125 1.125,1.3007813 0,0.8320312 -0.585938,1.42968746 -1.523438,2.40234371 L 15.876844,1.4887578 c -0.09375,0.09375 -0.09375,0.1054688 -0.09375,0.3046875 h 3.152343 L 19.158094,0.36375781 H 18.912 c -0.02344,0.1640625 -0.08203,0.5625 -0.175781,0.71484379 -0.04687,0.058594 -0.65625,0.058594 -0.785157,0.058594 h -1.417968 z m 0,0"
         style="fill:#012030;fill-opacity:1;fill-rule:nonzero;stroke:none" />
    </g>
    <g
       id="g117"
       aria-label="AF&#10;3"
       transform="matrix(1.3333333,0,0,1.3333333,298.76267,264.19067)">
      <path
         id="path118"
         d="M 8.4367891,-0.22210156 C 7.8977266,-0.25725781 7.7571016,-0.37444531 7.3586641,-1.2650703 L 4.3821016,-8.0502266 h -0.234375 l -2.484375,5.859375 C 0.92507031,-0.43303906 0.74928906,-0.24553906 0.17507031,-0.22210156 V 5.546875e-4 H 2.5422578 V -0.22210156 c -0.5742187,0 -0.8085937,-0.1640625 -0.8085937,-0.4921875 0,-0.140625 0.035156,-0.31640624 0.09375,-0.46875004 l 0.5507812,-1.3945312 h 3.1289063 l 0.4921875,1.1484375 c 0.140625,0.3164062 0.2226562,0.63281249 0.2226562,0.79687499 0,0.29296875 -0.1992187,0.3984375 -0.8320312,0.41015625 V 5.546875e-4 h 3.046875 z m -5.859375,-2.84765624 1.3828125,-3.2929688 1.3828125,3.2929688 z m 11.8066409,0.3046875 v -2.765625 h -0.28125 c -0.140625,0.9492187 -0.351563,1.1367187 -1.3125,1.1367187 H 11.05593 v -2.6601562 c 0,-0.328125 0.05859,-0.3984375 0.386718,-0.3984375 h 1.617188 c 1.359375,0 1.617187,0.1757812 1.816406,1.2539062 H 15.18093 L 15.14577,-7.9096016 H 8.7942109 v 0.2226563 c 0.890625,0.070312 1.0429688,0.2460937 1.0429688,1.078125 v 5.1796875 c 0,0.98437499 -0.1289063,1.14843749 -1.0429688,1.20703124 V 5.546875e-4 H 12.145773 V -0.22210156 c -0.925781,-0.046875 -1.089843,-0.234375 -1.089843,-1.19531254 v -2.4960937 h 1.734375 c 0.972656,0 1.171875,0.1875 1.3125,1.1484375 z m 0,0"
         style="fill:#012030;fill-opacity:1;fill-rule:nonzero;stroke:none" />
      <path
         id="path119"
         d="m 17.378195,-0.86663281 c 0.632813,0 1.03125,0.45703125 1.03125,1.30078125 0,0.99609376 -0.574218,1.28906246 -0.996093,1.28906246 -0.433594,0 -1.03125,-0.1640625 -1.3125,-0.5859375 0.292968,0 0.492187,-0.17578121 0.492187,-0.44531246 0,-0.2578125 -0.1875,-0.43359375 -0.445312,-0.43359375 -0.210938,0 -0.433594,0.12890625 -0.433594,0.45703125 0,0.74999996 0.808594,1.24218746 1.722656,1.24218746 1.054688,0 1.792969,-0.7265625 1.792969,-1.52343746 0,-0.66796875 -0.515625,-1.265625 -1.335938,-1.44140624 0.632813,-0.2226563 1.101563,-0.7734375 1.101563,-1.40625 0,-0.6328125 -0.714844,-1.0898438 -1.546875,-1.0898438 -0.855469,0 -1.5,0.4570313 -1.5,1.0664063 0,0.2929687 0.199219,0.421875 0.410156,0.421875 0.246094,0 0.410156,-0.1757813 0.410156,-0.4101563 0,-0.2929687 -0.257812,-0.3984375 -0.433593,-0.4101562 0.339843,-0.4335938 0.949218,-0.46875 1.089843,-0.46875 0.210938,0 0.808594,0.070312 0.808594,0.890625 0,0.5625 -0.222656,0.890625 -0.339844,1.0195312 -0.234375,0.2460938 -0.421875,0.2578125 -0.902343,0.2929688 -0.152344,0.011719 -0.222657,0.023437 -0.222657,0.11718749 0,0.1171875 0.07031,0.1171875 0.210938,0.1171875 z m 0,0"
         style="fill:#012030;fill-opacity:1;fill-rule:nonzero;stroke:none" />
    </g>
  </g>
</svg>
